<svg width="18" height="18" viewBox="0 0 18 18" fill="none" xmlns="http://www.w3.org/2000/svg">
<path fill-rule="evenodd" clip-rule="evenodd" d="M14.325 14.37C14.7675 13.695 14.9325 13.35 15.27 12.5925C12.78 11.6475 12.3825 8.09999 14.8425 6.74249C14.0925 5.79749 13.035 5.25 12.0375 5.25C11.3175 5.25 10.8225 5.43751 10.38 5.61001C10.005 5.75251 9.66749 5.88 9.24749 5.88C8.79749 5.88 8.39999 5.73751 7.97999 5.58751C7.52249 5.42251 7.04249 5.25 6.44249 5.25C5.32499 5.25 4.13249 5.9325 3.37499 7.1025C2.30999 8.7525 2.49749 11.8425 4.21499 14.4825C4.82999 15.4275 5.65499 16.485 6.72749 16.5C7.17749 16.5075 7.46999 16.3725 7.79249 16.23C8.15999 16.065 8.55749 15.885 9.25499 15.885C9.95249 15.8775 10.3425 16.065 10.71 16.23C11.025 16.3725 11.31 16.5075 11.7525 16.5C12.84 16.485 13.71 15.315 14.325 14.37Z" fill="#060E17"/>
<path fill-rule="evenodd" clip-rule="evenodd" d="M11.88 1.5C12 2.325 11.6625 3.14251 11.22 3.71251C10.7475 4.32751 9.92252 4.8075 9.12752 4.7775C8.98502 3.9825 9.35252 3.16499 9.80252 2.61749C10.305 2.01749 11.1525 1.5525 11.88 1.5Z" fill="#060E17"/>
</svg>
