<svg width="24" height="24" viewBox="0 0 24 24" fill="none" xmlns="http://www.w3.org/2000/svg">
<path d="M14.9299 2.5V8.4C14.9299 8.84 14.4099 9.06 14.0899 8.77L12.3399 7.16C12.1499 6.98 11.8499 6.98 11.6599 7.16L9.90995 8.76C9.58995 9.06 9.06995 8.83 9.06995 8.4V2.5C9.06995 2.22 9.28995 2 9.56995 2H14.4299C14.7099 2 14.9299 2.22 14.9299 2.5Z" fill="#0B99FF"/>
<path d="M16.98 2.06086C16.69 2.02086 16.43 2.27086 16.43 2.56086V8.58086C16.43 9.34086 15.98 10.0309 15.28 10.3409C14.58 10.6409 13.77 10.5109 13.21 9.99086L12.34 9.19086C12.15 9.01086 11.86 9.01086 11.66 9.19086L10.79 9.99086C10.43 10.3309 9.96 10.5009 9.49 10.5009C9.23 10.5009 8.97 10.4509 8.72 10.3409C8.02 10.0309 7.57 9.34086 7.57 8.58086V2.56086C7.57 2.27086 7.31 2.02086 7.02 2.06086C4.22 2.41086 3 4.30086 3 7.00086V17.0009C3 20.0009 4.5 22.0009 8 22.0009H16C19.5 22.0009 21 20.0009 21 17.0009V7.00086C21 4.30086 19.78 2.41086 16.98 2.06086ZM17.5 18.7509H9C8.59 18.7509 8.25 18.4109 8.25 18.0009C8.25 17.5909 8.59 17.2509 9 17.2509H17.5C17.91 17.2509 18.25 17.5909 18.25 18.0009C18.25 18.4109 17.91 18.7509 17.5 18.7509ZM17.5 14.7509H13.25C12.84 14.7509 12.5 14.4109 12.5 14.0009C12.5 13.5909 12.84 13.2509 13.25 13.2509H17.5C17.91 13.2509 18.25 13.5909 18.25 14.0009C18.25 14.4109 17.91 14.7509 17.5 14.7509Z" fill="#0B99FF"/>
</svg>
