<svg width="56" height="57" viewBox="0 0 56 57" fill="none" xmlns="http://www.w3.org/2000/svg">
<rect y="0.945312" width="56" height="56" rx="28" fill="#F2F2F2"/>
<path d="M28 5.61133C21.8866 5.61133 16.9166 10.5813 16.9166 16.6947C16.9166 22.6913 21.6066 27.5447 27.72 27.7547C27.9066 27.7313 28.0933 27.7313 28.2333 27.7547C28.28 27.7547 28.3033 27.7547 28.35 27.7547C28.3733 27.7547 28.3733 27.7547 28.3966 27.7547C34.37 27.5447 39.06 22.6913 39.0833 16.6947C39.0833 10.5813 34.1133 5.61133 28 5.61133Z" fill="#5E758A"/>
<path d="M39.8534 33.962C33.3434 29.622 22.7267 29.622 16.17 33.962C13.2067 35.9454 11.5734 38.6287 11.5734 41.4987C11.5734 44.3687 13.2067 47.0287 16.1467 48.9887C19.4134 51.182 23.7067 52.2787 28 52.2787C32.2934 52.2787 36.5867 51.182 39.8534 48.9887C42.7934 47.0054 44.4267 44.3454 44.4267 41.452C44.4034 38.582 42.7934 35.922 39.8534 33.962Z" fill="#5E758A"/>
</svg>
