<svg width="18" height="19" viewBox="0 0 18 19" fill="none" xmlns="http://www.w3.org/2000/svg">
<path d="M12 10.5078H6C5.6925 10.5078 5.4375 10.2528 5.4375 9.94531C5.4375 9.63781 5.6925 9.38281 6 9.38281H12C12.3075 9.38281 12.5625 9.63781 12.5625 9.94531C12.5625 10.2528 12.3075 10.5078 12 10.5078Z" fill="#0B99FF"/>
<mask id="path-2-inside-1_448_4284" fill="white">
<path d="M9 13.5078C8.6925 13.5078 8.4375 13.2528 8.4375 12.9453V6.94531C8.4375 6.63781 8.6925 6.38281 9 6.38281C9.3075 6.38281 9.5625 6.63781 9.5625 6.94531V12.9453C9.5625 13.2528 9.3075 13.5078 9 13.5078Z"/>
</mask>
<path d="M9 13.5078C8.6925 13.5078 8.4375 13.2528 8.4375 12.9453V6.94531C8.4375 6.63781 8.6925 6.38281 9 6.38281C9.3075 6.38281 9.5625 6.63781 9.5625 6.94531V12.9453C9.5625 13.2528 9.3075 13.5078 9 13.5078Z" fill="#0B99FF"/>
<path d="M9 12.0078C9.52093 12.0078 9.9375 12.4244 9.9375 12.9453H6.9375C6.9375 14.0812 7.86407 15.0078 9 15.0078V12.0078ZM9.9375 12.9453V6.94531H6.9375V12.9453H9.9375ZM9.9375 6.94531C9.9375 7.46624 9.52093 7.88281 9 7.88281V4.88281C7.86407 4.88281 6.9375 5.80939 6.9375 6.94531H9.9375ZM9 7.88281C8.47907 7.88281 8.0625 7.46624 8.0625 6.94531H11.0625C11.0625 5.80939 10.1359 4.88281 9 4.88281V7.88281ZM8.0625 6.94531V12.9453H11.0625V6.94531H8.0625ZM8.0625 12.9453C8.0625 12.4244 8.47907 12.0078 9 12.0078V15.0078C10.1359 15.0078 11.0625 14.0812 11.0625 12.9453H8.0625Z" fill="#0B99FF" mask="url(#path-2-inside-1_448_4284)"/>
<path d="M11.25 18.0078H6.75C2.6775 18.0078 0.9375 16.2678 0.9375 12.1953V7.69531C0.9375 3.62281 2.6775 1.88281 6.75 1.88281H11.25C15.3225 1.88281 17.0625 3.62281 17.0625 7.69531V12.1953C17.0625 16.2678 15.3225 18.0078 11.25 18.0078ZM6.75 3.00781C3.2925 3.00781 2.0625 4.23781 2.0625 7.69531V12.1953C2.0625 15.6528 3.2925 16.8828 6.75 16.8828H11.25C14.7075 16.8828 15.9375 15.6528 15.9375 12.1953V7.69531C15.9375 4.23781 14.7075 3.00781 11.25 3.00781H6.75Z" fill="#0B99FF"/>
</svg>
