<svg width="16" height="16" viewBox="0 0 16 16" fill="none" xmlns="http://www.w3.org/2000/svg">
<path fill-rule="evenodd" clip-rule="evenodd" d="M5.52869 8.47221C5.40371 8.34719 5.3335 8.17766 5.3335 8.00088C5.3335 7.8241 5.40371 7.65456 5.52869 7.52955L9.30002 3.75821C9.36152 3.69454 9.43508 3.64375 9.51642 3.60881C9.59775 3.57387 9.68523 3.55548 9.77375 3.55471C9.86227 3.55394 9.95006 3.57081 10.032 3.60433C10.1139 3.63785 10.1884 3.68735 10.251 3.74995C10.3135 3.81254 10.363 3.88698 10.3966 3.96891C10.4301 4.05084 10.447 4.13863 10.4462 4.22715C10.4454 4.31567 10.427 4.40315 10.3921 4.48448C10.3571 4.56582 10.3064 4.63938 10.2427 4.70088L6.94269 8.00088L10.2427 11.3009C10.3641 11.4266 10.4313 11.595 10.4298 11.7698C10.4283 11.9446 10.3582 12.1118 10.2346 12.2354C10.111 12.359 9.94375 12.4291 9.76895 12.4307C9.59416 12.4322 9.42575 12.365 9.30002 12.2435L5.52869 8.47221Z" fill="#F8F8F9"/>
</svg>
