<svg width="24" height="25" viewBox="0 0 24 25" fill="none" xmlns="http://www.w3.org/2000/svg">
<path d="M11.9999 0.779297C5.57158 0.779297 0.333252 6.01763 0.333252 12.446C0.333252 18.8743 5.57158 24.1126 11.9999 24.1126C18.4283 24.1126 23.6666 18.8743 23.6666 12.446C23.6666 6.01763 18.4283 0.779297 11.9999 0.779297ZM16.6666 13.321H12.8749V17.1126C12.8749 17.591 12.4783 17.9876 11.9999 17.9876C11.5216 17.9876 11.1249 17.591 11.1249 17.1126V13.321H7.33325C6.85492 13.321 6.45825 12.9243 6.45825 12.446C6.45825 11.9676 6.85492 11.571 7.33325 11.571H11.1249V7.7793C11.1249 7.30096 11.5216 6.9043 11.9999 6.9043C12.4783 6.9043 12.8749 7.30096 12.8749 7.7793V11.571H16.6666C17.1449 11.571 17.5416 11.9676 17.5416 12.446C17.5416 12.9243 17.1449 13.321 16.6666 13.321Z" fill="#0B99FF"/>
</svg>
