<svg width="17" height="16" viewBox="0 0 17 16" fill="none" xmlns="http://www.w3.org/2000/svg">
<path d="M2.42105 9.91755L5.60221 0.901538C5.60221 0.901538 6.66271 -0.159247 7.9895 1.16751C9.31629 2.49426 8.785 4.08432 8.785 4.08432M2.42105 9.91755L3.48192 10.9788M2.42105 9.91755C0.831433 11.51 0.297571 13.0976 1.62546 14.4254C2.95336 15.7533 4.54239 15.2209 6.13337 13.6299M2.42105 9.91755L6.13337 13.6299M3.48192 10.9788L8.785 4.08432M3.48192 10.9788L5.07275 12.5697M8.785 4.08432C8.785 4.08432 10.1111 3.28915 11.437 4.61497C12.7628 5.9408 11.9673 7.26661 11.9673 7.26661M6.13337 13.6299L15.1501 10.4494C15.1501 10.4494 16.2109 9.38885 14.8841 8.0621C13.5573 6.73535 11.9673 7.26661 11.9673 7.26661M6.13337 13.6299L5.07275 12.5697M5.07275 12.5697L11.9673 7.26661" stroke="#031427" stroke-linejoin="round"/>
</svg>
