<svg width="20" height="21" viewBox="0 0 20 21" fill="none" xmlns="http://www.w3.org/2000/svg">
<path d="M10.7666 2.82852L16.1916 5.75352C16.825 6.09518 16.825 7.07018 16.1916 7.41185L10.7666 10.3368C10.2833 10.5952 9.71665 10.5952 9.23331 10.3368L3.80831 7.41185C3.17498 7.07018 3.17498 6.09518 3.80831 5.75352L9.23331 2.82852C9.71665 2.57018 10.2833 2.57018 10.7666 2.82852Z" stroke="#082546" stroke-width="1.5" stroke-linecap="round" stroke-linejoin="round"/>
<path d="M3.00835 9.38704L8.05002 11.912C8.67502 12.2287 9.07502 12.8704 9.07502 13.5704V18.337C9.07502 19.0287 8.35002 19.4704 7.73335 19.162L2.69169 16.637C2.06669 16.3204 1.66669 15.6787 1.66669 14.9787V10.212C1.66669 9.52037 2.39169 9.07871 3.00835 9.38704Z" stroke="#082546" stroke-width="1.5" stroke-linecap="round" stroke-linejoin="round"/>
<path d="M16.9917 9.38704L11.95 11.912C11.325 12.2287 10.925 12.8704 10.925 13.5704V18.337C10.925 19.0287 11.65 19.4704 12.2667 19.162L17.3083 16.637C17.9333 16.3204 18.3333 15.6787 18.3333 14.9787V10.212C18.3333 9.52037 17.6083 9.07871 16.9917 9.38704Z" stroke="#082546" stroke-width="1.5" stroke-linecap="round" stroke-linejoin="round"/>
</svg>
