<svg width="40" height="40" viewBox="0 0 40 40" fill="none" xmlns="http://www.w3.org/2000/svg">
<rect width="40" height="40" rx="20" fill="#26AE24"/>
<path d="M23.7467 19.1667C23.46 19.1667 23.2333 18.9334 23.2333 18.6534C23.2333 18.4067 22.9867 17.8934 22.5733 17.4467C22.1667 17.0134 21.72 16.7601 21.3467 16.7601C21.06 16.7601 20.8333 16.5267 20.8333 16.2467C20.8333 15.9667 21.0667 15.7334 21.3467 15.7334C22.0133 15.7334 22.7133 16.0934 23.3267 16.7401C23.9 17.3467 24.2667 18.1001 24.2667 18.6467C24.2667 18.9334 24.0333 19.1667 23.7467 19.1667Z" fill="white"/>
<path d="M26.1533 19.1663C25.8667 19.1663 25.64 18.933 25.64 18.653C25.64 16.2863 23.7133 14.3663 21.3533 14.3663C21.0667 14.3663 20.84 14.133 20.84 13.853C20.84 13.573 21.0667 13.333 21.3467 13.333C24.28 13.333 26.6667 15.7197 26.6667 18.653C26.6667 18.933 26.4333 19.1663 26.1533 19.1663Z" fill="white"/>
<path d="M19.3667 21.9663L18.1333 23.1997C17.8733 23.4597 17.46 23.4597 17.1933 23.2063C17.12 23.133 17.0467 23.0663 16.9733 22.993C16.2867 22.2997 15.6667 21.573 15.1133 20.813C14.5667 20.053 14.1267 19.293 13.8067 18.5397C13.4933 17.7797 13.3333 17.053 13.3333 16.3597C13.3333 15.9063 13.4133 15.473 13.5733 15.073C13.7333 14.6663 13.9867 14.293 14.34 13.9597C14.7667 13.5397 15.2333 13.333 15.7267 13.333C15.9133 13.333 16.1 13.373 16.2667 13.453C16.44 13.533 16.5933 13.653 16.7133 13.8263L18.26 16.0063C18.38 16.173 18.4667 16.3263 18.5267 16.473C18.5867 16.613 18.62 16.753 18.62 16.8797C18.62 17.0397 18.5733 17.1997 18.48 17.353C18.3933 17.5063 18.2667 17.6663 18.1067 17.8263L17.6 18.353C17.5267 18.4263 17.4933 18.513 17.4933 18.6197C17.4933 18.673 17.5 18.7197 17.5133 18.773C17.5333 18.8263 17.5533 18.8663 17.5667 18.9063C17.6867 19.1263 17.8933 19.413 18.1867 19.7597C18.4867 20.1063 18.8067 20.4597 19.1533 20.813C19.22 20.8797 19.2933 20.9463 19.36 21.013C19.6267 21.273 19.6333 21.6997 19.3667 21.9663Z" fill="white"/>
<path d="M26.6467 24.2204C26.6467 24.407 26.6133 24.6004 26.5467 24.787C26.5267 24.8404 26.5067 24.8937 26.48 24.947C26.3667 25.187 26.22 25.4137 26.0267 25.627C25.7 25.987 25.34 26.247 24.9333 26.4137C24.9267 26.4137 24.92 26.4204 24.9133 26.4204C24.52 26.5804 24.0933 26.667 23.6333 26.667C22.9533 26.667 22.2267 26.507 21.46 26.1804C20.6933 25.8537 19.9267 25.4137 19.1667 24.8604C18.9067 24.667 18.6467 24.4737 18.4 24.267L20.58 22.087C20.7667 22.227 20.9333 22.3337 21.0733 22.407C21.1067 22.4204 21.1467 22.4404 21.1933 22.4604C21.2467 22.4804 21.3 22.487 21.36 22.487C21.4733 22.487 21.56 22.447 21.6333 22.3737L22.14 21.8737C22.3067 21.707 22.4667 21.5804 22.62 21.5004C22.7733 21.407 22.9267 21.3604 23.0933 21.3604C23.22 21.3604 23.3533 21.387 23.5 21.447C23.6467 21.507 23.8 21.5937 23.9667 21.707L26.1733 23.2737C26.3467 23.3937 26.4667 23.5337 26.54 23.7004C26.6067 23.867 26.6467 24.0337 26.6467 24.2204Z" fill="white"/>
</svg>
