<svg width="20" height="21" viewBox="0 0 20 21" fill="none" xmlns="http://www.w3.org/2000/svg">
<path d="M1.66669 11.4531H15.8334" stroke="#0B99FF" stroke-width="1.25" stroke-miterlimit="10" stroke-linecap="round" stroke-linejoin="round"/>
<path d="M15.8334 9.51458V15.4729C15.8084 17.8479 15.1583 18.4479 12.6833 18.4479H4.81671C2.30004 18.4479 1.66669 17.8229 1.66669 15.3396V9.51458C1.66669 7.26458 2.19169 6.53958 4.16669 6.42292C4.36669 6.41458 4.58338 6.40625 4.81671 6.40625H12.6833C15.2 6.40625 15.8334 7.03125 15.8334 9.51458Z" stroke="#0B99FF" stroke-width="1.25" stroke-linecap="round" stroke-linejoin="round"/>
<path d="M18.3334 6.55365V12.3786C18.3334 14.6286 17.8084 15.3536 15.8334 15.4703V9.51198C15.8334 7.02864 15.2 6.40365 12.6833 6.40365H4.81671C4.58338 6.40365 4.36669 6.41198 4.16669 6.42031C4.19169 4.04531 4.84171 3.44531 7.31671 3.44531H15.1833C17.7 3.44531 18.3334 4.07031 18.3334 6.55365Z" stroke="#0B99FF" stroke-width="1.25" stroke-linecap="round" stroke-linejoin="round"/>
<path d="M4.375 15.7852H5.80831" stroke="#0B99FF" stroke-width="1.25" stroke-miterlimit="10" stroke-linecap="round" stroke-linejoin="round"/>
<path d="M7.59167 15.7852H10.4583" stroke="#0B99FF" stroke-width="1.25" stroke-miterlimit="10" stroke-linecap="round" stroke-linejoin="round"/>
</svg>
