<svg width="16" height="16" viewBox="0 0 16 16" fill="none" xmlns="http://www.w3.org/2000/svg">
<path d="M14.6467 12.2199C14.6467 12.4599 14.5934 12.7066 14.48 12.9466C14.3667 13.1866 14.22 13.4133 14.0267 13.6266C13.7 13.9866 13.34 14.2466 12.9334 14.4133C12.5334 14.5799 12.1 14.6666 11.6334 14.6666C10.9534 14.6666 10.2267 14.5066 9.46004 14.1799C8.69337 13.8533 7.92671 13.4133 7.16671 12.8599C6.40004 12.2999 5.67337 11.6799 4.98004 10.9933C4.29337 10.2999 3.67337 9.57325 3.12004 8.81325C2.57337 8.05325 2.13337 7.29325 1.81337 6.53992C1.49337 5.77992 1.33337 5.05325 1.33337 4.35992C1.33337 3.90659 1.41337 3.47325 1.57337 3.07325C1.73337 2.66659 1.98671 2.29325 2.34004 1.95992C2.76671 1.53992 3.23337 1.33325 3.72671 1.33325C3.91337 1.33325 4.10004 1.37325 4.26671 1.45325C4.44004 1.53325 4.59337 1.65325 4.71337 1.82659L6.26004 4.00659C6.38004 4.17325 6.46671 4.32659 6.52671 4.47325C6.58671 4.61325 6.62004 4.75325 6.62004 4.87992C6.62004 5.03992 6.57337 5.19992 6.48004 5.35325C6.39337 5.50659 6.26671 5.66659 6.10671 5.82659L5.60004 6.35325C5.52671 6.42659 5.49337 6.51325 5.49337 6.61992C5.49337 6.67325 5.50004 6.71992 5.51337 6.77325C5.53337 6.82659 5.55337 6.86659 5.56671 6.90659C5.68671 7.12659 5.89337 7.41325 6.18671 7.75992C6.48671 8.10659 6.80671 8.45992 7.15337 8.81325C7.51337 9.16659 7.86004 9.49325 8.21337 9.79325C8.56004 10.0866 8.84671 10.2866 9.07337 10.4066C9.10671 10.4199 9.14671 10.4399 9.19337 10.4599C9.24671 10.4799 9.30004 10.4866 9.36004 10.4866C9.47337 10.4866 9.56004 10.4466 9.63337 10.3733L10.14 9.87325C10.3067 9.70659 10.4667 9.57992 10.62 9.49992C10.7734 9.40659 10.9267 9.35992 11.0934 9.35992C11.22 9.35992 11.3534 9.38659 11.5 9.44659C11.6467 9.50659 11.8 9.59325 11.9667 9.70659L14.1734 11.2733C14.3467 11.3933 14.4667 11.5333 14.54 11.6999C14.6067 11.8666 14.6467 12.0333 14.6467 12.2199Z" fill="#082546" stroke="#082546" stroke-width="1.5" stroke-miterlimit="10"/>
<path d="M12.3333 5.99984C12.3333 5.59984 12.02 4.9865 11.5533 4.4865C11.1267 4.0265 10.56 3.6665 10 3.6665" stroke="#082546" stroke-width="1.5" stroke-linecap="round" stroke-linejoin="round"/>
<path d="M14.6667 5.99992C14.6667 3.41992 12.58 1.33325 10 1.33325" stroke="#082546" stroke-width="1.5" stroke-linecap="round" stroke-linejoin="round"/>
</svg>
