<svg width="12" height="12" viewBox="0 0 12 12" fill="none" xmlns="http://www.w3.org/2000/svg">
<g clip-path="url(#clip0_684_20901)">
<path d="M8.86053 1.5L8.15403 0.584C8.01329 0.402903 7.83319 0.256208 7.62736 0.155027C7.42153 0.0538457 7.19538 0.000831522 6.96603 0L5.03403 0C4.80468 0.000831522 4.57852 0.0538457 4.37269 0.155027C4.16687 0.256208 3.98676 0.402903 3.84603 0.584L3.13953 1.5H8.86053Z" fill="white"/>
<path d="M6.00001 9C7.10458 9 8.00001 8.10457 8.00001 7C8.00001 5.89543 7.10458 5 6.00001 5C4.89543 5 4 5.89543 4 7C4 8.10457 4.89543 9 6.00001 9Z" fill="white"/>
<path d="M9.5 2.5H2.5C1.8372 2.50079 1.20178 2.76444 0.73311 3.23311C0.264441 3.70178 0.000793928 4.3372 0 5L0 9.5C0.000793928 10.1628 0.264441 10.7982 0.73311 11.2669C1.20178 11.7356 1.8372 11.9992 2.5 12H9.5C10.1628 11.9992 10.7982 11.7356 11.2669 11.2669C11.7356 10.7982 11.9992 10.1628 12 9.5V5C11.9992 4.3372 11.7356 3.70178 11.2669 3.23311C10.7982 2.76444 10.1628 2.50079 9.5 2.5ZM6 10C5.40665 10 4.82663 9.82406 4.33329 9.49441C3.83994 9.16477 3.45542 8.69623 3.22836 8.14805C3.0013 7.59987 2.94189 6.99668 3.05764 6.41473C3.1734 5.83279 3.45912 5.29824 3.87868 4.87868C4.29824 4.45912 4.83278 4.1734 5.41473 4.05765C5.99667 3.94189 6.59987 4.0013 7.14805 4.22836C7.69623 4.45543 8.16476 4.83994 8.4944 5.33329C8.82405 5.82664 9 6.40666 9 7C8.9992 7.79541 8.68288 8.55801 8.12044 9.12045C7.558 9.68288 6.7954 9.99921 6 10Z" fill="white"/>
</g>
<defs>
<clipPath id="clip0_684_20901">
<rect width="12" height="12" fill="white"/>
</clipPath>
</defs>
</svg>
