<svg width="20" height="21" viewBox="0 0 20 21" fill="none" xmlns="http://www.w3.org/2000/svg">
<path d="M9.51295 16.5093L9.51126 16.509L5.60293 15.8924L5.60178 15.8922C4.4147 15.7077 3.54624 15.3853 2.92167 14.9444L2.91843 14.9422C1.36499 13.864 1.40989 11.9944 1.64407 10.463C1.64413 10.4626 1.64419 10.4623 1.64425 10.4619L2.26053 6.55601C2.26054 6.55596 2.26055 6.5559 2.26056 6.55584C2.53409 4.8263 3.10112 3.74821 3.92948 3.14584C4.75802 2.54335 5.95939 2.33576 7.68921 2.60521C7.68937 2.60524 7.68953 2.60526 7.68969 2.60529L11.5968 3.22176C11.5969 3.22177 11.5969 3.22178 11.597 3.2218C11.597 3.2218 11.5971 3.2218 11.5971 3.22181C12.4995 3.36474 13.4844 3.60922 14.2563 4.15161C14.9998 4.67403 15.5793 5.49536 15.6506 6.89502L15.6506 6.89502L15.651 6.90077C15.6815 7.38968 15.6518 7.95994 15.5398 8.64758L15.5393 8.65102L14.9311 12.5582C14.9311 12.5583 14.9311 12.5585 14.9311 12.5586C14.6979 14.0336 14.2487 15.0379 13.6073 15.6739C12.9777 16.2982 12.1015 16.6279 10.875 16.6279C10.456 16.6279 10.008 16.5891 9.51295 16.5093ZM2.50635 6.59846L2.50611 6.59999L1.88944 10.5083L1.8893 10.5092C1.68999 11.7874 1.76219 12.7027 2.00927 13.3821C2.26179 14.0765 2.67877 14.4746 3.06088 14.7442C3.70052 15.1994 4.56185 15.483 5.6401 15.647C5.64057 15.6471 5.64105 15.6472 5.64153 15.6472L9.54707 16.2635L9.54716 16.2635C11.0365 16.4982 12.2348 16.4198 13.1218 15.7724C14.0085 15.1253 14.451 14.007 14.6856 12.5139L14.6857 12.5131L15.2937 8.60691C15.2938 8.60654 15.2938 8.60618 15.2939 8.60581C15.3961 7.96652 15.4348 7.40666 15.4 6.91796V6.91483L15.3993 6.90176C15.3483 5.92879 15.0389 5.13421 14.359 4.54406C13.7018 3.97365 12.7576 3.64766 11.5524 3.45893L11.5521 3.45889L7.65206 2.85056L7.65167 2.8505C7.14636 2.77209 6.69555 2.73625 6.275 2.73625C5.19519 2.73625 4.32187 3.01405 3.67598 3.70248C3.05119 4.36842 2.7074 5.34942 2.50635 6.59846Z" fill="#292D32" stroke="#082546"/>
<path d="M9.95811 18.9701L9.9578 18.97L6.19946 17.72L6.19867 17.7197C4.13638 17.0377 3.17171 16.1134 2.87849 14.8721C2.86592 14.8175 2.89072 14.7678 2.92362 14.7463C2.97683 14.7115 3.0348 14.7193 3.06617 14.7419L3.0683 14.7434C3.7073 15.1985 4.55997 15.4826 5.64007 15.6469C5.64056 15.647 5.64104 15.647 5.64153 15.6471L9.54707 16.2633L9.54716 16.2634C11.0365 16.4981 12.2347 16.4197 13.1218 15.7723C14.0085 15.1252 14.451 14.0069 14.6856 12.5137L14.6857 12.513L15.2937 8.60679C15.2938 8.60642 15.2938 8.60605 15.2939 8.60568C15.3966 7.96371 15.4351 7.40183 15.3996 6.91168C15.4 6.87121 15.4227 6.82405 15.4648 6.7966C15.501 6.77296 15.5464 6.77051 15.5869 6.79245L15.5896 6.79392C16.62 7.34373 17.2182 8.0264 17.4765 8.86193C17.7399 9.71415 17.675 10.8053 17.2087 12.2122L15.9592 15.969C15.9592 15.9691 15.9591 15.9692 15.9591 15.9693C15.3868 17.6781 14.6733 18.6148 13.7611 19.0715C13.3132 19.2917 12.8156 19.4028 12.2333 19.4028C11.5944 19.4028 10.8494 19.2672 9.95811 18.9701ZM4.87976 15.7556L4.49765 16.6605C4.94374 16.9579 5.51989 17.2337 6.27522 17.4855L6.27553 17.4856L10.0339 18.7356L10.0344 18.7357C11.5062 19.2235 12.6905 19.3146 13.6364 18.8519L13.6364 18.852L13.6403 18.85C14.5886 18.3758 15.2284 17.3653 15.7161 15.8939C15.7162 15.8938 15.7162 15.8936 15.7163 15.8934L16.9661 12.1356L16.9664 12.1348C17.3202 11.0648 17.4467 10.1925 17.3532 9.46321C17.2574 8.71487 16.9339 8.14993 16.4585 7.70457L15.701 6.99493L15.6183 8.02958C15.6052 8.19285 15.5808 8.36196 15.5521 8.56165C15.5477 8.59172 15.5433 8.62248 15.5388 8.65402L14.9311 12.558C14.9311 12.5582 14.9311 12.5583 14.9311 12.5584C14.6575 14.2877 14.0905 15.366 13.2619 15.9694C12.433 16.573 11.2315 16.7824 9.50189 16.5171C9.50154 16.517 9.5012 16.517 9.50085 16.5169L5.60317 15.9019C5.34961 15.8528 5.10608 15.8041 4.87976 15.7556Z" fill="#292D32" stroke="#082546"/>
<path d="M6.86667 8.54453C6.00115 8.54453 5.29167 7.83506 5.29167 6.96953C5.29167 6.10401 6.00115 5.39453 6.86667 5.39453C7.7322 5.39453 8.44167 6.10401 8.44167 6.96953C8.44167 7.83506 7.7322 8.54453 6.86667 8.54453ZM6.86667 5.65286C6.14382 5.65286 5.54167 6.24011 5.54167 6.97786C5.54167 7.71234 6.1322 8.30286 6.86667 8.30286C7.58952 8.30286 8.19167 7.71562 8.19167 6.97786C8.19167 6.24011 7.58952 5.65286 6.86667 5.65286Z" fill="#292D32" stroke="#082546"/>
</svg>
