<svg width="24" height="24" viewBox="0 0 24 24" fill="none" xmlns="http://www.w3.org/2000/svg">
<path d="M10.4564 15.4942L10.81 15.8477L11.1636 15.4942L14.6336 12.0242C14.7283 11.9294 14.8917 11.9294 14.9864 12.0242C15.0812 12.1189 15.0812 12.2823 14.9864 12.3771L10.9864 16.3771L10.9804 16.3832L10.9745 16.3895C10.9442 16.4219 10.8854 16.4506 10.81 16.4506C10.7455 16.4506 10.6848 16.4284 10.6336 16.3771L9.13355 14.8771C9.03882 14.7823 9.03882 14.6189 9.13355 14.5242C9.22829 14.4294 9.39171 14.4294 9.48645 14.5242L10.4564 15.4942Z" fill="#292D32" stroke="#082546"/>
<path d="M14 6.25H10C9.49933 6.25 8.95415 6.23911 8.52405 5.97859C8.14991 5.75197 7.75 5.25825 7.75 4C7.75 2.74175 8.14991 2.24803 8.52405 2.02141C8.95415 1.76089 9.49933 1.75 10 1.75H14C14.5007 1.75 15.0459 1.76089 15.476 2.02141C15.8501 2.24803 16.25 2.74175 16.25 4C16.25 4.50067 16.2391 5.04585 15.9786 5.47595C15.752 5.85009 15.2582 6.25 14 6.25ZM10 2.25C9.99263 2.25 9.98526 2.25 9.97789 2.25C9.74875 2.24997 9.5213 2.24995 9.32776 2.27306C9.12478 2.29729 8.88727 2.35359 8.68491 2.5211C8.4758 2.6942 8.37254 2.92824 8.31846 3.16681C8.26592 3.39862 8.25 3.67834 8.25 4C8.25 4.32166 8.26592 4.60138 8.31846 4.83319C8.37254 5.07176 8.4758 5.3058 8.68491 5.4789C8.88727 5.64641 9.12478 5.70271 9.32776 5.72694C9.52129 5.75005 9.74874 5.75003 9.97788 5.75C9.98525 5.75 9.99263 5.75 10 5.75H14C14.3217 5.75 14.6014 5.73408 14.8332 5.68154C15.0718 5.62746 15.3058 5.5242 15.4789 5.31509C15.6464 5.11273 15.7027 4.87522 15.7269 4.67224C15.75 4.47871 15.75 4.25126 15.75 4.02212L15.75 4C15.75 3.67834 15.7341 3.39862 15.6815 3.16681C15.6275 2.92824 15.5242 2.6942 15.3151 2.5211C15.1127 2.35359 14.8752 2.29729 14.6722 2.27306C14.4787 2.24995 14.2513 2.24997 14.0221 2.25L14 2.25H10Z" fill="#292D32" stroke="#082546"/>
<path d="M8.01564 4.27101L8.01564 4.271L8.01188 4.27121C6.57314 4.35227 5.32541 4.60982 4.46643 5.51968C3.61211 6.4246 3.25 7.85935 3.25 10.0004V16.0004C3.25 17.8396 3.41917 19.3363 4.30453 20.3431C5.2052 21.3673 6.71786 21.7504 9 21.7504H15C17.2821 21.7504 18.7948 21.3673 19.6955 20.3431C20.5808 19.3363 20.75 17.8396 20.75 16.0004V10.0004C20.75 7.85935 20.3879 6.4246 19.5336 5.51968C18.6746 4.60982 17.4269 4.35227 15.9881 4.27121V4.2712L15.9844 4.27101C15.856 4.26475 15.7426 4.14487 15.7494 4.00478C15.7558 3.87308 15.8688 3.76349 16.015 3.7698C17.9755 3.87635 19.242 4.39452 20.0363 5.33025C20.8421 6.27942 21.25 7.75896 21.25 9.99042V15.9904C21.25 18.0623 20.9632 19.5928 20.1003 20.6155C19.2543 21.6183 17.7482 22.2504 15 22.2504H9C6.25176 22.2504 4.74552 21.6183 3.89949 20.6165C3.03679 19.5951 2.75 18.0671 2.75 16.0004V10.0004C2.75 7.76362 3.15805 6.28177 3.96368 5.33275C4.75776 4.39733 6.02391 3.88137 7.98492 3.7798C8.12968 3.77303 8.24424 3.88136 8.25057 4.0142C8.25716 4.15266 8.15602 4.26417 8.01564 4.27101Z" fill="#292D32" stroke="#082546"/>
</svg>
