<svg width="24" height="25" viewBox="0 0 24 25" fill="none" xmlns="http://www.w3.org/2000/svg">
<path d="M16.75 4.50531V2.94531C16.75 2.53531 16.41 2.19531 16 2.19531C15.59 2.19531 15.25 2.53531 15.25 2.94531V4.44531H8.74999V2.94531C8.74999 2.53531 8.40999 2.19531 7.99999 2.19531C7.58999 2.19531 7.24999 2.53531 7.24999 2.94531V4.50531C4.54999 4.75531 3.23999 6.36531 3.03999 8.75531C3.01999 9.04531 3.25999 9.28531 3.53999 9.28531H20.46C20.75 9.28531 20.99 9.03531 20.96 8.75531C20.76 6.36531 19.45 4.75531 16.75 4.50531Z" fill="#292D32"/>
<path d="M20 10.7852H4C3.45 10.7852 3 11.2352 3 11.7852V17.9452C3 20.9452 4.5 22.9452 8 22.9452H16C19.5 22.9452 21 20.9452 21 17.9452V11.7852C21 11.2352 20.55 10.7852 20 10.7852ZM9.21 19.1552C9.11 19.2452 9 19.3152 8.88 19.3652C8.76 19.4152 8.63 19.4452 8.5 19.4452C8.37 19.4452 8.24 19.4152 8.12 19.3652C8 19.3152 7.89 19.2452 7.79 19.1552C7.61 18.9652 7.5 18.7052 7.5 18.4452C7.5 18.1852 7.61 17.9252 7.79 17.7352C7.89 17.6452 8 17.5752 8.12 17.5252C8.36 17.4252 8.64 17.4252 8.88 17.5252C9 17.5752 9.11 17.6452 9.21 17.7352C9.39 17.9252 9.5 18.1852 9.5 18.4452C9.5 18.7052 9.39 18.9652 9.21 19.1552ZM9.42 15.3252C9.37 15.4452 9.3 15.5552 9.21 15.6552C9.11 15.7452 9 15.8152 8.88 15.8652C8.76 15.9152 8.63 15.9452 8.5 15.9452C8.37 15.9452 8.24 15.9152 8.12 15.8652C8 15.8152 7.89 15.7452 7.79 15.6552C7.7 15.5552 7.63 15.4452 7.58 15.3252C7.53 15.2052 7.5 15.0752 7.5 14.9452C7.5 14.8152 7.53 14.6852 7.58 14.5652C7.63 14.4452 7.7 14.3352 7.79 14.2352C7.89 14.1452 8 14.0752 8.12 14.0252C8.36 13.9252 8.64 13.9252 8.88 14.0252C9 14.0752 9.11 14.1452 9.21 14.2352C9.3 14.3352 9.37 14.4452 9.42 14.5652C9.47 14.6852 9.5 14.8152 9.5 14.9452C9.5 15.0752 9.47 15.2052 9.42 15.3252ZM12.71 15.6552C12.61 15.7452 12.5 15.8152 12.38 15.8652C12.26 15.9152 12.13 15.9452 12 15.9452C11.87 15.9452 11.74 15.9152 11.62 15.8652C11.5 15.8152 11.39 15.7452 11.29 15.6552C11.11 15.4652 11 15.2052 11 14.9452C11 14.6852 11.11 14.4252 11.29 14.2352C11.39 14.1452 11.5 14.0752 11.62 14.0252C11.86 13.9152 12.14 13.9152 12.38 14.0252C12.5 14.0752 12.61 14.1452 12.71 14.2352C12.89 14.4252 13 14.6852 13 14.9452C13 15.2052 12.89 15.4652 12.71 15.6552Z" fill="#292D32"/>
</svg>
