<svg width="24" height="25" viewBox="0 0 24 25" fill="none" xmlns="http://www.w3.org/2000/svg">
<path d="M13.5 10.1953H2C1.59 10.1953 1.25 9.85531 1.25 9.44531C1.25 9.03531 1.59 8.69531 2 8.69531H13.5C13.91 8.69531 14.25 9.03531 14.25 9.44531C14.25 9.85531 13.91 10.1953 13.5 10.1953Z" fill="#0B99FF"/>
<path d="M8 18.1953H6C5.59 18.1953 5.25 17.8553 5.25 17.4453C5.25 17.0353 5.59 16.6953 6 16.6953H8C8.41 16.6953 8.75 17.0353 8.75 17.4453C8.75 17.8553 8.41 18.1953 8 18.1953Z" fill="#0B99FF"/>
<path d="M14.5 18.1953H10.5C10.09 18.1953 9.75 17.8553 9.75 17.4453C9.75 17.0353 10.09 16.6953 10.5 16.6953H14.5C14.91 16.6953 15.25 17.0353 15.25 17.4453C15.25 17.8553 14.91 18.1953 14.5 18.1953Z" fill="#0B99FF"/>
<path d="M17.56 22.1953H6.44C2.46 22.1953 1.25 20.9953 1.25 17.0553V8.83531C1.25 4.89531 2.46 3.69531 6.44 3.69531H13.5C13.91 3.69531 14.25 4.03531 14.25 4.44531C14.25 4.85531 13.91 5.19531 13.5 5.19531H6.44C3.3 5.19531 2.75 5.73531 2.75 8.83531V17.0453C2.75 20.1453 3.3 20.6853 6.44 20.6853H17.55C20.69 20.6853 21.24 20.1453 21.24 17.0453V12.9653C21.24 12.5553 21.58 12.2153 21.99 12.2153C22.4 12.2153 22.74 12.5553 22.74 12.9653V17.0453C22.75 20.9953 21.54 22.1953 17.56 22.1953Z" fill="#0B99FF"/>
<path d="M22 7.94531H16.5C16.09 7.94531 15.75 7.60531 15.75 7.19531C15.75 6.78531 16.09 6.44531 16.5 6.44531H22C22.41 6.44531 22.75 6.78531 22.75 7.19531C22.75 7.60531 22.41 7.94531 22 7.94531Z" fill="#0B99FF"/>
<path d="M19.25 10.6953C18.84 10.6953 18.5 10.3553 18.5 9.94531V4.44531C18.5 4.03531 18.84 3.69531 19.25 3.69531C19.66 3.69531 20 4.03531 20 4.44531V9.94531C20 10.3553 19.66 10.6953 19.25 10.6953Z" fill="#0B99FF"/>
</svg>
