<svg width="18" height="19" viewBox="0 0 18 19" fill="none" xmlns="http://www.w3.org/2000/svg">
<path d="M9 18.0068C4.5525 18.0068 0.9375 14.3918 0.9375 9.94434C0.9375 5.49684 4.5525 1.88184 9 1.88184C13.4475 1.88184 17.0625 5.49684 17.0625 9.94434C17.0625 14.3918 13.4475 18.0068 9 18.0068ZM9 3.00684C5.175 3.00684 2.0625 6.11934 2.0625 9.94434C2.0625 13.7693 5.175 16.8818 9 16.8818C12.825 16.8818 15.9375 13.7693 15.9375 9.94434C15.9375 6.11934 12.825 3.00684 9 3.00684Z" fill="#F41E21"/>
<mask id="path-2-inside-1_514_14832" fill="white">
<path d="M6.87752 12.6294C6.73502 12.6294 6.59252 12.5769 6.48002 12.4644C6.26252 12.2469 6.26252 11.8869 6.48002 11.6694L10.725 7.42436C10.9425 7.20686 11.3025 7.20686 11.52 7.42436C11.7375 7.64186 11.7375 8.00186 11.52 8.21936L7.27502 12.4644C7.17002 12.5769 7.02002 12.6294 6.87752 12.6294Z"/>
</mask>
<path d="M6.87752 12.6294C6.73502 12.6294 6.59252 12.5769 6.48002 12.4644C6.26252 12.2469 6.26252 11.8869 6.48002 11.6694L10.725 7.42436C10.9425 7.20686 11.3025 7.20686 11.52 7.42436C11.7375 7.64186 11.7375 8.00186 11.52 8.21936L7.27502 12.4644C7.17002 12.5769 7.02002 12.6294 6.87752 12.6294Z" fill="#F41E21"/>
<path d="M7.27502 12.4644L6.21436 11.4037L6.19608 11.422L6.17844 11.4409L7.27502 12.4644ZM6.87752 11.1294C7.11138 11.1294 7.35705 11.2201 7.54068 11.4037L5.41936 13.525C5.82799 13.9336 6.35866 14.1294 6.87752 14.1294V11.1294ZM7.54068 11.4037C7.90897 11.772 7.90897 12.3617 7.54068 12.73L5.41936 10.6087C4.61607 11.412 4.61607 12.7217 5.41936 13.525L7.54068 11.4037ZM7.54068 12.73L11.7857 8.48502L9.66436 6.3637L5.41936 10.6087L7.54068 12.73ZM11.7857 8.48502C11.4174 8.8533 10.8276 8.8533 10.4594 8.48502L12.5807 6.3637C11.7774 5.56041 10.4676 5.56041 9.66436 6.3637L11.7857 8.48502ZM10.4594 8.48502C10.0911 8.11673 10.0911 7.52698 10.4594 7.15869L12.5807 9.28002C13.384 8.47673 13.384 7.16698 12.5807 6.3637L10.4594 8.48502ZM10.4594 7.15869L6.21436 11.4037L8.33568 13.525L12.5807 9.28002L10.4594 7.15869ZM6.17844 11.4409C6.40269 11.2006 6.6761 11.1294 6.87752 11.1294V14.1294C7.36394 14.1294 7.93735 13.9531 8.3716 13.4878L6.17844 11.4409Z" fill="#F41E21" mask="url(#path-2-inside-1_514_14832)"/>
<mask id="path-4-inside-2_514_14832" fill="white">
<path d="M11.1225 12.6294C10.98 12.6294 10.8375 12.5769 10.725 12.4644L6.48002 8.21936C6.26252 8.00186 6.26252 7.64186 6.48002 7.42436C6.69752 7.20686 7.05752 7.20686 7.27502 7.42436L11.52 11.6694C11.7375 11.8869 11.7375 12.2469 11.52 12.4644C11.4075 12.5769 11.265 12.6294 11.1225 12.6294Z"/>
</mask>
<path d="M11.1225 12.6294C10.98 12.6294 10.8375 12.5769 10.725 12.4644L6.48002 8.21936C6.26252 8.00186 6.26252 7.64186 6.48002 7.42436C6.69752 7.20686 7.05752 7.20686 7.27502 7.42436L11.52 11.6694C11.7375 11.8869 11.7375 12.2469 11.52 12.4644C11.4075 12.5769 11.265 12.6294 11.1225 12.6294Z" fill="#F41E21"/>
<path d="M10.725 12.4644L9.66436 13.525L10.725 12.4644ZM6.48002 8.21936L7.54068 7.15869L6.48002 8.21936ZM7.27502 7.42436L6.21436 8.48502L7.27502 7.42436ZM11.52 11.6694L12.5807 10.6087L11.52 11.6694ZM11.1225 11.1294C11.3564 11.1294 11.6021 11.2201 11.7857 11.4037L9.66436 13.525C10.073 13.9336 10.6037 14.1294 11.1225 14.1294V11.1294ZM11.7857 11.4037L7.54068 7.15869L5.41936 9.28002L9.66436 13.525L11.7857 11.4037ZM7.54068 7.15869C7.90897 7.52698 7.90897 8.11673 7.54068 8.48502L5.41936 6.3637C4.61607 7.16698 4.61607 8.47673 5.41936 9.28002L7.54068 7.15869ZM7.54068 8.48502C7.17239 8.8533 6.58265 8.8533 6.21436 8.48502L8.33568 6.3637C7.53239 5.56041 6.22265 5.56041 5.41936 6.3637L7.54068 8.48502ZM6.21436 8.48502L10.4594 12.73L12.5807 10.6087L8.33568 6.3637L6.21436 8.48502ZM10.4594 12.73C10.0911 12.3617 10.0911 11.772 10.4594 11.4037L12.5807 13.525C13.384 12.7217 13.384 11.412 12.5807 10.6087L10.4594 12.73ZM10.4594 11.4037C10.643 11.2201 10.8887 11.1294 11.1225 11.1294V14.1294C11.6414 14.1294 12.1721 13.9336 12.5807 13.525L10.4594 11.4037Z" fill="#F41E21" mask="url(#path-4-inside-2_514_14832)"/>
</svg>
