<svg width="24" height="24" viewBox="0 0 24 24" fill="none" xmlns="http://www.w3.org/2000/svg">
<path d="M16.7502 3.56V2C16.7502 1.59 16.4102 1.25 16.0002 1.25C15.5902 1.25 15.2502 1.59 15.2502 2V3.5H8.75023V2C8.75023 1.59 8.41023 1.25 8.00023 1.25C7.59023 1.25 7.25023 1.59 7.25023 2V3.56C4.55023 3.81 3.24023 5.42 3.04023 7.81C3.02023 8.1 3.26023 8.34 3.54023 8.34H20.4602C20.7502 8.34 20.9902 8.09 20.9602 7.81C20.7602 5.42 19.4502 3.81 16.7502 3.56Z" fill="#0B99FF"/>
<path d="M20 9.84003H4C3.45 9.84003 3 10.29 3 10.84V17C3 20 4.5 22 8 22H16C19.5 22 21 20 21 17V10.84C21 10.29 20.55 9.84003 20 9.84003ZM15.66 19.53C15.51 19.68 15.32 19.75 15.13 19.75C14.94 19.75 14.75 19.68 14.6 19.53L13.86 18.79C13.28 19.17 12.58 19.4 11.83 19.4C9.79 19.4 8.13 17.74 8.13 15.7C8.13 13.66 9.79 12 11.83 12C13.87 12 15.53 13.66 15.53 15.7C15.53 16.45 15.3 17.15 14.92 17.73L15.66 18.47C15.95 18.76 15.95 19.24 15.66 19.53Z" fill="#0B99FF"/>
</svg>
