<svg width="17" height="16" viewBox="0 0 17 16" fill="none" xmlns="http://www.w3.org/2000/svg">
<path fill-rule="evenodd" clip-rule="evenodd" d="M5.77148 2.16675C5.52986 2.16675 5.33398 2.36262 5.33398 2.60425V4.14395C5.33398 4.42009 5.11013 4.64395 4.83398 4.64395C4.55784 4.64395 4.33398 4.42009 4.33398 4.14395V2.60425C4.33398 1.81034 4.97758 1.16675 5.77148 1.16675H13.8965C14.6904 1.16675 15.334 1.81034 15.334 2.60425V10.7292C15.334 11.5232 14.6904 12.1667 13.8965 12.1667H12.3394C12.0633 12.1667 11.8394 11.9429 11.8394 11.6667C11.8394 11.3906 12.0633 11.1667 12.3394 11.1667H13.8965C14.1381 11.1667 14.334 10.9709 14.334 10.7292V2.60425C14.334 2.36262 14.1381 2.16675 13.8965 2.16675H5.77148Z" fill="#0B99FF"/>
<path d="M11.2285 4.33325H3.10352C2.58575 4.33325 2.16602 4.75299 2.16602 5.27075V13.3958C2.16602 13.9135 2.58575 14.3333 3.10352 14.3333H11.2285C11.7463 14.3333 12.166 13.9135 12.166 13.3958V5.27075C12.166 4.75299 11.7463 4.33325 11.2285 4.33325Z" fill="#0B99FF"/>
<path fill-rule="evenodd" clip-rule="evenodd" d="M1.66602 5.27075C1.66602 4.47684 2.30961 3.83325 3.10352 3.83325H11.2285C12.0224 3.83325 12.666 4.47684 12.666 5.27075V13.3958C12.666 14.1897 12.0224 14.8333 11.2285 14.8333H3.10352C2.30961 14.8333 1.66602 14.1897 1.66602 13.3958V5.27075ZM3.10352 4.83325C2.86189 4.83325 2.66602 5.02913 2.66602 5.27075V13.3958C2.66602 13.6374 2.86189 13.8333 3.10352 13.8333H11.2285C11.4701 13.8333 11.666 13.6374 11.666 13.3958V5.27075C11.666 5.02913 11.4701 4.83325 11.2285 4.83325H3.10352Z" fill="#0B99FF"/>
</svg>
