<svg width="24" height="24" viewBox="0 0 24 24" fill="none" xmlns="http://www.w3.org/2000/svg">
<path d="M8 1.75C8.13386 1.75 8.25 1.86614 8.25 2V5C8.25 5.13386 8.13386 5.25 8 5.25C7.86614 5.25 7.75 5.13386 7.75 5V2C7.75 1.86614 7.86614 1.75 8 1.75Z" stroke="#031427"/>
<path d="M16 1.75C16.1339 1.75 16.25 1.86614 16.25 2V5C16.25 5.13386 16.1339 5.25 16 5.25C15.8661 5.25 15.75 5.13386 15.75 5V2C15.75 1.86614 15.8661 1.75 16 1.75Z" stroke="#031427"/>
<path d="M18.2002 14.75C20.104 14.7501 21.6504 16.2964 21.6504 18.2002C21.6503 20.1039 20.1039 21.6503 18.2002 21.6504C16.2964 21.6504 14.7501 20.104 14.75 18.2002C14.75 16.2963 16.2963 14.75 18.2002 14.75ZM18.2002 15.25C16.574 15.25 15.25 16.5741 15.25 18.2002C15.2501 19.8263 16.5741 21.1504 18.2002 21.1504C19.8262 21.1503 21.1503 19.8262 21.1504 18.2002C21.1504 16.5741 19.8263 15.2501 18.2002 15.25Z" stroke="#031427"/>
<path d="M20.8237 20.8238C20.9067 20.7408 21.0421 20.7302 21.1382 20.7925L21.1763 20.8238L22.1763 21.8238C22.2709 21.9185 22.271 22.0816 22.1763 22.1763C22.125 22.2276 22.0641 22.2496 21.9995 22.2496C21.9513 22.2495 21.9053 22.2373 21.8638 22.2095L21.8237 22.1763L20.8237 21.1763C20.729 21.0816 20.729 20.9185 20.8237 20.8238Z" stroke="#031427"/>
<path d="M8.09375 13.7941L8.09277 13.7921L8.08594 13.7823L8.05469 13.7218L8.04297 13.6886L8.02734 13.6564L8.01367 13.6183C8.00348 13.5463 8.00002 13.5166 8 13.5001C8 13.3784 8.05331 13.2417 8.14844 13.1388C8.18401 13.1045 8.23207 13.073 8.2998 13.047L8.32324 13.0372C8.48521 12.9653 8.71023 13.0041 8.84961 13.1378C8.94561 13.2409 9 13.3778 9 13.5001C8.99998 13.5166 8.99652 13.5463 8.98633 13.6183L8.97266 13.6564L8.95703 13.6886L8.94531 13.7218C8.94164 13.7328 8.93356 13.7493 8.91895 13.7726V13.7736L8.91797 13.7745V13.7755H8.91699V13.7765H8.91602V13.7775H8.91504V13.7784L8.91309 13.7804V13.7814H8.91211V13.7823H8.91113V13.7833L8.91016 13.7843V13.7853H8.90918V13.7863H8.9082V13.7872H8.90723V13.7882L8.90625 13.7892V13.7902H8.90527V13.7911H8.9043V13.7921H8.90332V13.7931L8.90137 13.795V13.796H8.90039V13.797H8.89941V13.798L8.89844 13.799V13.7999H8.89746V13.8009H8.89648V13.8019H8.89551V13.8029L8.89453 13.8038V13.8048H8.89355V13.8058H8.89258V13.8068H8.8916V13.8077L8.88965 13.8097V13.8107H8.88867V13.8116H8.8877V13.8126L8.88672 13.8136V13.8146H8.88574V13.8156H8.88477V13.8165H8.88379V13.8175L8.88281 13.8185V13.8195H8.88184V13.8204H8.88086V13.8214H8.87988V13.8224L8.87793 13.8243V13.8253H8.87695V13.8263H8.87598V13.8273L8.875 13.8282V13.8292H8.87402V13.8302H8.87305V13.8312H8.87207V13.8322L8.87109 13.8331V13.8341H8.87012V13.8351H8.86914V13.8361H8.86816V13.837L8.86621 13.839V13.84H8.86523V13.8409H8.86426V13.8419L8.86328 13.8429V13.8439H8.8623V13.8448H8.86133V13.8458H8.86035V13.8468L8.85938 13.8478V13.8488H8.8584V13.8497H8.85742V13.8507H8.85645V13.8517L8.85449 13.8536V13.8546H8.85352V13.8556H8.85254V13.8566L8.85156 13.8575V13.8585H8.85059C8.74884 13.9484 8.61804 14.0001 8.5 14.0001C8.47306 14.0001 8.44346 13.9971 8.41211 13.9904L8.3125 13.9581L8.2998 13.9532L8.20801 13.9083C8.18621 13.8944 8.16852 13.8786 8.15234 13.8634C8.14699 13.8571 8.1422 13.8511 8.1377 13.8458C8.12376 13.8297 8.11651 13.8223 8.10742 13.8116C8.09954 13.8024 8.0957 13.7966 8.09375 13.7941Z" stroke="#031427"/>
<path d="M11.6533 13.1346C11.8264 12.9738 12.1656 12.9689 12.3525 13.1414C12.4465 13.244 12.4999 13.3789 12.5 13.4998C12.5 13.5162 12.4965 13.546 12.4863 13.618L12.4727 13.6561L12.457 13.6883L12.4453 13.7215C12.4417 13.7323 12.434 13.7487 12.4199 13.7713V13.7723L12.4189 13.7733V13.7742H12.418V13.7752H12.417V13.7762H12.416V13.7772L12.415 13.7781V13.7791H12.4141V13.7801H12.4131V13.7811L12.4111 13.783V13.784H12.4102V13.785H12.4092V13.7859H12.4082V13.7869L12.4072 13.7879V13.7889H12.4062V13.7899H12.4053V13.7908H12.4043V13.7918L12.4033 13.7928V13.7938H12.4023V13.7947H12.4014V13.7957L12.3994 13.7977V13.7986H12.3984V13.7996H12.3975V13.8006H12.3965V13.8016L12.3955 13.8026V13.8035H12.3945V13.8045H12.3936V13.8055H12.3926V13.8065L12.3916 13.8074V13.8084H12.3906V13.8094H12.3896V13.8104L12.3877 13.8123V13.8133H12.3867V13.8143H12.3857V13.8152H12.3848V13.8162L12.3838 13.8172V13.8182H12.3828V13.8192H12.3818V13.8201H12.3809V13.8211L12.3799 13.8221V13.8231H12.3789V13.824H12.3779V13.825L12.376 13.827V13.8279H12.375V13.8289H12.374V13.8299H12.373V13.8309L12.3721 13.8318V13.8328H12.3711V13.8338H12.3701V13.8348H12.3691V13.8358L12.3682 13.8367V13.8377H12.3672V13.8387H12.3662V13.8397L12.3643 13.8416V13.8426H12.3633V13.8436H12.3623V13.8445H12.3613V13.8455L12.3604 13.8465V13.8475H12.3594V13.8484H12.3584V13.8494H12.3574V13.8504L12.3564 13.8514V13.8524H12.3555V13.8533H12.3545V13.8543L12.3525 13.8563V13.8572H12.3516V13.8582H12.3506V13.8592H12.3496V13.8602C12.248 13.9493 12.1175 13.9998 12 13.9998C11.8807 13.9998 11.7477 13.948 11.6455 13.8563C11.5511 13.7525 11.5 13.6272 11.5 13.4998C11.5 13.4729 11.503 13.4433 11.5098 13.4119L11.542 13.3123C11.568 13.2499 11.6042 13.1911 11.6533 13.1346Z" stroke="#031427"/>
<path d="M8.5 18C8.24 18 7.97999 17.89 7.78999 17.71C7.60999 17.52 7.5 17.26 7.5 17C7.5 16.87 7.53 16.74 7.58 16.62C7.63 16.49 7.69999 16.38 7.78999 16.29C8.15999 15.92 8.84001 15.92 9.21001 16.29C9.39001 16.48 9.5 16.74 9.5 17C9.5 17.26 9.39001 17.52 9.21001 17.71C9.02001 17.89 8.76 18 8.5 18Z" fill="#031427"/>
<path d="M3.5 8.83997H20.5C20.6339 8.83997 20.75 8.95611 20.75 9.08997C20.75 9.22382 20.6339 9.33997 20.5 9.33997H3.5C3.36614 9.33997 3.25 9.22382 3.25 9.08997C3.25 8.95611 3.36614 8.83997 3.5 8.83997Z" fill="#292D32" stroke="#031427"/>
<path d="M8 3.25H16C17.7301 3.25 19.0268 3.74555 19.8906 4.60938C20.7544 5.4732 21.25 6.76991 21.25 8.5V13C21.25 13.1339 21.1339 13.25 21 13.25C20.8661 13.25 20.75 13.1339 20.75 13V8.5C20.75 6.99651 20.3844 5.78283 19.5508 4.94922C18.7172 4.11561 17.5035 3.75 16 3.75H8C6.49651 3.75 5.28283 4.11561 4.44922 4.94922C3.61561 5.78283 3.25 6.99651 3.25 8.5V17C3.25 18.5035 3.61561 19.7172 4.44922 20.5508C5.28283 21.3844 6.49651 21.75 8 21.75H13.3701C13.5039 21.7501 13.6201 21.8662 13.6201 22C13.6201 22.1338 13.5039 22.2499 13.3701 22.25H8C6.26991 22.25 4.9732 21.7544 4.10938 20.8906C3.24555 20.0268 2.75 18.7301 2.75 17V8.5C2.75 6.76991 3.24555 5.4732 4.10938 4.60938C4.9732 3.74555 6.26991 3.25 8 3.25Z" fill="#292D32" stroke="#031427"/>
</svg>
