<svg width="20" height="21" viewBox="0 0 20 21" fill="none" xmlns="http://www.w3.org/2000/svg">
<g clip-path="url(#clip0_6164_29794)">
<path d="M6.52622 18.7364L6.09422 18.1613C5.71466 17.6559 4.90866 17.6966 4.58803 18.2373C4.13806 18.9962 2.91663 18.6938 2.91663 17.8235V4.06974C2.91663 3.19945 4.13806 2.89703 4.58803 3.65591C4.90866 4.19664 5.71466 4.23735 6.09422 3.73198L6.52622 3.1568C7.07052 2.43211 8.20718 2.43211 8.75147 3.1568L8.8194 3.24725C9.39693 4.01618 10.603 4.01618 11.1805 3.24725L11.2484 3.1568C11.7927 2.43211 12.9294 2.43211 13.4737 3.1568L13.9057 3.73198C14.2853 4.23735 15.0913 4.19664 15.4119 3.65591C15.8619 2.89703 17.0833 3.19945 17.0833 4.06973V17.8235C17.0833 18.6938 15.8619 18.9962 15.4119 18.2373C15.0913 17.6966 14.2853 17.6559 13.9057 18.1613L13.4737 18.7364C12.9294 19.4611 11.7927 19.4611 11.2484 18.7364L11.1805 18.646C10.603 17.877 9.39693 17.877 8.8194 18.646L8.75147 18.7364C8.20718 19.4611 7.07052 19.4611 6.52622 18.7364Z" stroke="#031427" stroke-width="1.5" stroke-linejoin="round"/>
<path d="M12.5 8.44531L7.5 13.4453" stroke="#031427" stroke-width="1.5" stroke-linecap="round" stroke-linejoin="round"/>
<path d="M12.5 13.4453H12.4925M7.50747 8.44531H7.5" stroke="#031427" stroke-width="2" stroke-linecap="round" stroke-linejoin="round"/>
</g>
<defs>
<clipPath id="clip0_6164_29794">
<rect width="20" height="20" fill="white" transform="translate(0 0.945312)"/>
</clipPath>
</defs>
</svg>
