<svg width="16" height="17" viewBox="0 0 16 17" fill="none" xmlns="http://www.w3.org/2000/svg">
<mask id="path-1-inside-1_419_6842" fill="white">
<path d="M5.33331 4.7793C5.05998 4.7793 4.83331 4.55263 4.83331 4.2793V2.2793C4.83331 2.00596 5.05998 1.7793 5.33331 1.7793C5.60665 1.7793 5.83331 2.00596 5.83331 2.2793V4.2793C5.83331 4.55263 5.60665 4.7793 5.33331 4.7793Z"/>
</mask>
<path d="M5.33331 4.7793C5.05998 4.7793 4.83331 4.55263 4.83331 4.2793V2.2793C4.83331 2.00596 5.05998 1.7793 5.33331 1.7793C5.60665 1.7793 5.83331 2.00596 5.83331 2.2793V4.2793C5.83331 4.55263 5.60665 4.7793 5.33331 4.7793Z" fill="#292D32"/>
<path d="M5.33331 3.7793C5.61226 3.7793 5.83331 4.00035 5.83331 4.2793H3.83331C3.83331 5.10492 4.50769 5.7793 5.33331 5.7793V3.7793ZM5.83331 4.2793V2.2793H3.83331V4.2793H5.83331ZM5.83331 2.2793C5.83331 2.55825 5.61226 2.7793 5.33331 2.7793V0.779297C4.50769 0.779297 3.83331 1.45368 3.83331 2.2793H5.83331ZM5.33331 2.7793C5.05436 2.7793 4.83331 2.55825 4.83331 2.2793H6.83331C6.83331 1.45368 6.15893 0.779297 5.33331 0.779297V2.7793ZM4.83331 2.2793V4.2793H6.83331V2.2793H4.83331ZM4.83331 4.2793C4.83331 4.00035 5.05436 3.7793 5.33331 3.7793V5.7793C6.15893 5.7793 6.83331 5.10492 6.83331 4.2793H4.83331Z" fill="#082546" mask="url(#path-1-inside-1_419_6842)"/>
<mask id="path-3-inside-2_419_6842" fill="white">
<path d="M10.6667 4.7793C10.3934 4.7793 10.1667 4.55263 10.1667 4.2793V2.2793C10.1667 2.00596 10.3934 1.7793 10.6667 1.7793C10.94 1.7793 11.1667 2.00596 11.1667 2.2793V4.2793C11.1667 4.55263 10.94 4.7793 10.6667 4.7793Z"/>
</mask>
<path d="M10.6667 4.7793C10.3934 4.7793 10.1667 4.55263 10.1667 4.2793V2.2793C10.1667 2.00596 10.3934 1.7793 10.6667 1.7793C10.94 1.7793 11.1667 2.00596 11.1667 2.2793V4.2793C11.1667 4.55263 10.94 4.7793 10.6667 4.7793Z" fill="#292D32"/>
<path d="M10.6667 3.7793C10.9456 3.7793 11.1667 4.00035 11.1667 4.2793H9.16669C9.16669 5.10492 9.84107 5.7793 10.6667 5.7793V3.7793ZM11.1667 4.2793V2.2793H9.16669V4.2793H11.1667ZM11.1667 2.2793C11.1667 2.55825 10.9456 2.7793 10.6667 2.7793V0.779297C9.84107 0.779297 9.16669 1.45368 9.16669 2.2793H11.1667ZM10.6667 2.7793C10.3877 2.7793 10.1667 2.55825 10.1667 2.2793H12.1667C12.1667 1.45368 11.4923 0.779297 10.6667 0.779297V2.7793ZM10.1667 2.2793V4.2793H12.1667V2.2793H10.1667ZM10.1667 4.2793C10.1667 4.00035 10.3877 3.7793 10.6667 3.7793V5.7793C11.4923 5.7793 12.1667 5.10492 12.1667 4.2793H10.1667Z" fill="#082546" mask="url(#path-3-inside-2_419_6842)"/>
<path d="M13.6666 7.50586H2.33331C2.05998 7.50586 1.83331 7.27919 1.83331 7.00586C1.83331 6.73253 2.05998 6.50586 2.33331 6.50586H13.6666C13.94 6.50586 14.1666 6.73253 14.1666 7.00586C14.1666 7.27919 13.94 7.50586 13.6666 7.50586Z" fill="#292D32"/>
<path d="M10.6667 16.1126H5.33333C2.9 16.1126 1.5 14.7126 1.5 12.2793V6.61263C1.5 4.1793 2.9 2.7793 5.33333 2.7793H10.6667C13.1 2.7793 14.5 4.1793 14.5 6.61263V12.2793C14.5 14.7126 13.1 16.1126 10.6667 16.1126ZM5.33333 3.7793C3.42667 3.7793 2.5 4.70596 2.5 6.61263V12.2793C2.5 14.186 3.42667 15.1126 5.33333 15.1126H10.6667C12.5733 15.1126 13.5 14.186 13.5 12.2793V6.61263C13.5 4.70596 12.5733 3.7793 10.6667 3.7793H5.33333Z" fill="#292D32"/>
<path d="M5.66667 10.6126C5.58 10.6126 5.49333 10.5926 5.41333 10.5593C5.33333 10.526 5.26001 10.4793 5.19334 10.4193C5.13334 10.3526 5.08666 10.2793 5.05332 10.1993C5.01999 10.1193 5 10.0326 5 9.94597C5 9.77264 5.07334 9.59931 5.19334 9.47264C5.26001 9.41264 5.33333 9.36596 5.41333 9.33263C5.53333 9.2793 5.66667 9.26596 5.80001 9.29263C5.84001 9.2993 5.88 9.31263 5.92 9.33263C5.96 9.34596 6 9.36598 6.04 9.39265C6.07333 9.41931 6.10666 9.44598 6.13999 9.47264C6.16666 9.50598 6.19999 9.53931 6.21999 9.57264C6.24666 9.61264 6.26668 9.65263 6.28001 9.69263C6.30001 9.73263 6.31334 9.77263 6.32001 9.81263C6.32667 9.8593 6.33333 9.8993 6.33333 9.94597C6.33333 10.1193 6.25999 10.2926 6.13999 10.4193C6.01333 10.5393 5.84 10.6126 5.66667 10.6126Z" fill="#292D32"/>
<path d="M7.99998 10.6119C7.82665 10.6119 7.65332 10.5386 7.52665 10.4186C7.49999 10.3852 7.47332 10.3519 7.44666 10.3186C7.41999 10.2786 7.39997 10.2386 7.38664 10.1986C7.36664 10.1586 7.35331 10.1186 7.34664 10.0786C7.33997 10.0319 7.33331 9.99189 7.33331 9.94523C7.33331 9.85856 7.3533 9.77189 7.38664 9.69189C7.41997 9.61189 7.46665 9.53857 7.52665 9.4719C7.71332 9.28523 8.01332 9.22522 8.25332 9.33189C8.33998 9.36522 8.40664 9.4119 8.47331 9.4719C8.59331 9.59857 8.66665 9.77189 8.66665 9.94523C8.66665 9.99189 8.65999 10.0319 8.65332 10.0786C8.64665 10.1186 8.63332 10.1586 8.61332 10.1986C8.59999 10.2386 8.57997 10.2786 8.5533 10.3186C8.52664 10.3519 8.49997 10.3852 8.47331 10.4186C8.40664 10.4786 8.33998 10.5252 8.25332 10.5586C8.17332 10.5919 8.08665 10.6119 7.99998 10.6119Z" fill="#292D32"/>
<path d="M5.66667 12.9459C5.58 12.9459 5.49333 12.9259 5.41333 12.8926C5.33333 12.8592 5.26001 12.8125 5.19334 12.7525C5.13334 12.6859 5.08666 12.6192 5.05332 12.5325C5.01999 12.4525 5 12.3659 5 12.2792C5 12.1059 5.07334 11.9326 5.19334 11.8059C5.26001 11.7459 5.33333 11.6992 5.41333 11.6659C5.66 11.5592 5.95333 11.6192 6.13999 11.8059C6.16666 11.8392 6.19999 11.8725 6.21999 11.9059C6.24666 11.9459 6.26668 11.9859 6.28001 12.0259C6.30001 12.0659 6.31334 12.1059 6.32001 12.1525C6.32667 12.1925 6.33333 12.2392 6.33333 12.2792C6.33333 12.4525 6.25999 12.6259 6.13999 12.7525C6.01333 12.8725 5.84 12.9459 5.66667 12.9459Z" fill="#292D32"/>
</svg>
