<svg width="16" height="17" viewBox="0 0 16 17" fill="none" xmlns="http://www.w3.org/2000/svg">
<rect y="0.945312" width="16" height="16" rx="4" fill="#0B99FF"/>
<path d="M6.47059 12.9117C6.35477 12.9101 6.24373 12.8653 6.15925 12.7861L3.10044 9.72725C3.03075 9.64235 2.99515 9.53456 3.00053 9.42486C3.00592 9.31516 3.05192 9.21138 3.12959 9.13371C3.20725 9.05605 3.31103 9.01005 3.42073 9.00466C3.53044 8.99927 3.63822 9.03488 3.72312 9.10456L6.47059 11.8575L12.2769 6.04575C12.3618 5.97607 12.4696 5.94046 12.5793 5.94585C12.689 5.95123 12.7927 5.99723 12.8704 6.0749C12.9481 6.15256 12.9941 6.25634 12.9995 6.36605C13.0049 6.47575 12.9692 6.58353 12.8996 6.66844L6.78194 12.7861C6.69746 12.8653 6.58641 12.9101 6.47059 12.9117Z" fill="white"/>
</svg>
