<?xml version="1.0" encoding="utf-8"?><!-- Uploaded to: SVG Repo, www.svgrepo.com, Generator: SVG Repo Mixer Tools -->
<svg version="1.1" id="designs" xmlns="http://www.w3.org/2000/svg" xmlns:xlink="http://www.w3.org/1999/xlink" 
	 width="16px" height="16px" viewBox="0 0 32 32" xml:space="preserve">
<style type="text/css">
	.sketchy_een{fill:#111918;}
</style>
<path class="sketchy_een" d="M28.897,19.028c-0.048-0.321-0.144-0.656-0.293-1.022c-0.272-0.662-0.612-1.437-1.079-2.151
	c-0.21-0.316-0.437-0.648-0.714-0.933c-0.27-0.28-0.601-0.512-0.918-0.719c-0.235-0.156-0.491-0.284-0.744-0.411l-0.209-0.105
	c-0.364-0.189-0.778-0.337-1.337-0.472l-0.058-0.009l-0.021-0.055c-0.046-0.124-0.126-0.225-0.22-0.309
	c0.181-0.906,0.224-1.823,0.111-2.732c-0.059-0.416-0.141-0.91-0.305-1.41c-0.185-0.546-0.37-0.951-0.6-1.309
	c-0.264-0.407-0.568-0.797-0.929-1.194c-0.337-0.366-0.734-0.673-1.113-0.957c-0.332-0.246-0.71-0.429-1.132-0.626
	c-0.474-0.221-0.946-0.407-1.401-0.551c-0.564-0.174-1.177-0.263-1.821-0.263c-0.284,0-0.57,0.018-0.856,0.048
	c-0.834,0.087-1.736,0.275-2.839,0.589c-0.523,0.151-1.024,0.344-1.488,0.575c-0.44,0.218-0.886,0.578-1.325,1.071
	C9.284,6.443,9.016,6.868,8.745,7.3C8.479,7.717,8.209,8.172,8.026,8.677c-0.1,0.278-0.194,0.554-0.267,0.842
	c-0.096,0.388-0.133,0.825-0.115,1.376c0.016,0.436,0.038,0.871,0.066,1.305c-0.278,0.129-0.562,0.276-0.892,0.483
	c-0.236,0.147-0.457,0.333-0.712,0.549c-0.218,0.182-0.427,0.376-0.628,0.58c-0.619,0.627-1.036,1.371-1.363,2.016
	c-0.446,0.877-0.76,1.878-0.933,2.973c-0.081,0.515-0.136,1.033-0.174,1.553c-0.029,0.415,0.034,0.832,0.089,1.199
	c0.031,0.222,0.078,0.449,0.141,0.661c0.32,1.083,0.952,2.141,1.828,3.061c0.435,0.458,0.965,0.785,1.563,1.137
	c0.512,0.301,1.082,0.505,1.571,0.665c1.153,0.372,2.147,0.563,3.038,0.581l0.109,0.001c0.603,0,1.234-0.092,1.985-0.287
	c0.473-0.121,0.927-0.325,1.43-0.561c0.21-0.098,0.419-0.2,0.624-0.308c0.024-0.013,0.049-0.03,0.073-0.043
	c0.464,0.388,0.99,0.714,1.56,0.949c0.406,0.167,0.835,0.307,1.348,0.442c0.484,0.129,0.994,0.225,1.515,0.286
	c0.367,0.043,0.74,0.064,1.141,0.064l0.25-0.002c0.843-0.016,1.75-0.229,2.855-0.67c0.472-0.188,0.929-0.381,1.327-0.688
	c0.429-0.332,0.842-0.66,1.192-1.047c0.262-0.285,0.51-0.583,0.757-0.881l0.154-0.185c0.319-0.382,0.594-0.812,0.843-1.314
	c0.478-0.969,0.539-2.094,0.593-3.088C29.018,19.901,28.964,19.487,28.897,19.028z M17.719,20.182
	c-0.097,0.602-0.228,1.114-0.405,1.573c-0.194,0.401-0.444,0.8-0.813,1.299c-0.219,0.272-0.451,0.532-0.69,0.786
	c-0.105,0.112-0.227,0.203-0.341,0.304c-0.069-0.104-0.145-0.203-0.212-0.31c-0.188-0.299-0.334-0.623-0.469-0.933
	c-0.169-0.434-0.292-0.912-0.377-1.468c-0.029-0.339-0.042-0.67-0.033-1.009c0.008-0.299,0.04-0.597,0.082-0.977
	c0.016-0.1,0.043-0.227,0.063-0.339c0.218,0.022,0.445,0.037,0.69,0.037c0.275,0,0.552-0.013,0.83-0.032
	c0.261-0.019,0.456-0.092,0.611-0.23l0.094-0.025l0.033-0.003c0.342-0.032,0.671-0.089,0.996-0.159
	C17.803,19.21,17.771,19.711,17.719,20.182z M15.779,16.245c0.165-0.197,0.344-0.375,0.519-0.537l0.01,0.018
	c0.068,0.126,0.169,0.232,0.287,0.304c0.038,0.021,0.076,0.043,0.125,0.077c0.046,0.041,0.09,0.085,0.142,0.142
	c0.162,0.236,0.296,0.489,0.421,0.744c-0.182,0.039-0.361,0.086-0.548,0.115l-0.178,0.022c-0.117,0.033-0.223,0.088-0.316,0.161
	l-0.096,0.019l-0.161,0.008c-0.222,0.016-0.444,0.031-0.667,0.04l-0.152,0.003c-0.03,0-0.06-0.005-0.09-0.006
	C15.297,16.948,15.544,16.567,15.779,16.245z M14.015,16.308c0,0-0.209,0.346-0.282,0.476c-0.058,0.102-0.105,0.212-0.153,0.321
	c-0.259-0.077-0.515-0.159-0.771-0.259c-0.544-0.239-0.946-0.452-1.313-0.695c-0.302-0.247-0.564-0.495-0.802-0.759
	c-0.232-0.258-0.448-0.531-0.666-0.807c-0.127-0.178-0.224-0.366-0.316-0.568c-0.077-0.208-0.144-0.427-0.203-0.66
	c0.051-0.009,0.093-0.021,0.146-0.03c0.365-0.029,0.731-0.047,1.097-0.047c0.303,0,0.606,0.013,0.917,0.046
	c0.464,0.094,0.897,0.243,1.229,0.366c0.394,0.183,0.762,0.4,1.131,0.665c0.295,0.233,0.588,0.47,0.882,0.706
	C14.548,15.468,14.248,15.927,14.015,16.308z M18.903,16.455c-0.121-0.231-0.251-0.458-0.383-0.687
	c-0.072-0.128-0.158-0.247-0.248-0.364c-0.114-0.153-0.221-0.289-0.374-0.411c-0.101-0.08-0.193-0.143-0.286-0.2
	c0.174-0.094,0.347-0.185,0.524-0.266c0.287-0.109,0.591-0.192,0.957-0.26l0.529-0.09c0.364-0.042,0.723-0.069,1.088-0.069
	c0.118,0,0.235,0.003,0.354,0.009l0.103,0.006c-0.196,0.365-0.396,0.706-0.62,1.013c-0.289,0.333-0.563,0.61-0.843,0.85
	C19.453,16.167,19.181,16.311,18.903,16.455C18.903,16.455,18.903,16.455,18.903,16.455z M9.249,10.235
	c0.075-0.421,0.205-0.814,0.314-1.117c0.288-0.631,0.672-1.197,1.014-1.673c0.208-0.247,0.45-0.486,0.748-0.736
	c0.205-0.139,0.42-0.247,0.651-0.351c0.547-0.208,1.106-0.351,1.581-0.463c0.524-0.121,1.049-0.229,1.581-0.308
	c0.462-0.054,0.836-0.079,1.179-0.079c0.194,0,0.389,0.008,0.592,0.028c0.507,0.091,1.018,0.244,1.609,0.484
	c0.013,0.005,0.026,0.01,0.037,0.015c0.245,0.108,0.489,0.22,0.724,0.348c0.226,0.124,0.439,0.274,0.65,0.429
	c0.352,0.289,0.681,0.621,1.006,1.018c0.245,0.333,0.424,0.622,0.566,0.919c0.197,0.537,0.332,1.047,0.414,1.564
	c0.051,0.533,0.05,1.057-0.003,1.611c-0.042,0.236-0.096,0.467-0.153,0.698l-0.066-0.002c-0.252-0.007-0.505-0.015-0.757-0.015
	c-0.466,0-0.848,0.025-1.204,0.075c-0.567,0.083-1.04,0.163-1.509,0.28c-0.321,0.08-0.634,0.227-0.937,0.368l-0.168,0.079
	c-0.194,0.09-0.377,0.202-0.56,0.313l-0.12,0.073c-0.068,0.042-0.13,0.095-0.196,0.14c-0.349-0.273-0.698-0.546-1.052-0.814
	c-0.429-0.323-0.803-0.562-1.178-0.752c-0.492-0.247-0.99-0.438-1.482-0.565c-0.471-0.123-0.997-0.183-1.704-0.188
	c-0.57,0-1.076,0.038-1.544,0.114c-0.004-0.055-0.011-0.11-0.014-0.166L9.26,11.42C9.238,11.035,9.216,10.636,9.249,10.235z
	 M13.667,25.276l-0.002-0.003c-0.034,0.015-0.069,0.031-0.104,0.046c-0.237,0.095-0.477,0.188-0.725,0.255
	c-0.353,0.094-0.708,0.174-1.075,0.233c-0.165,0.015-0.328,0.022-0.492,0.022c-0.305,0-0.609-0.024-0.92-0.059
	c-0.819-0.144-1.612-0.355-2.365-0.633c-0.495-0.236-0.956-0.504-1.38-0.802c-0.317-0.27-0.589-0.592-0.819-0.88
	c-0.27-0.398-0.516-0.826-0.735-1.277c-0.135-0.368-0.237-0.766-0.329-1.298c-0.062-0.677,0.013-1.365,0.089-1.961
	c0.008-0.043,0.016-0.088,0.024-0.131l-0.006-0.004l0.012-0.091l0.011,0.001c0.047-0.255,0.099-0.509,0.168-0.76
	c0.095-0.344,0.209-0.676,0.338-1.015c0.29-0.647,0.573-1.15,0.895-1.592c0.361-0.43,0.77-0.786,1.092-1.054
	c0.211-0.148,0.407-0.271,0.599-0.382C8.02,14.217,8.11,14.522,8.224,14.8c0.101,0.243,0.229,0.528,0.415,0.795l0.308,0.424
	c0.254,0.344,0.564,0.743,0.94,1.104c0.34,0.33,0.68,0.59,1.038,0.794c0.417,0.237,0.871,0.426,1.362,0.63
	c0.246,0.104,0.515,0.192,0.797,0.273c-0.06,0.327-0.109,0.665-0.151,1.053c-0.047,0.449-0.089,0.928-0.055,1.405
	c0.05,0.692,0.17,1.315,0.354,1.85c0.23,0.66,0.562,1.296,0.963,1.888c-0.17,0.085-0.337,0.17-0.527,0.256L13.667,25.276z
	 M27.125,20.405c-0.028,0.356-0.063,0.712-0.103,1.074c-0.072,0.407-0.163,0.767-0.284,1.108c-0.18,0.368-0.366,0.684-0.57,0.968
	l-0.099,0.128c-0.204,0.262-0.407,0.523-0.622,0.778c-0.281,0.333-0.599,0.647-0.978,0.965c-0.364,0.261-0.762,0.483-1.252,0.704
	c-0.258,0.106-0.519,0.213-0.786,0.288c-0.292,0.083-0.585,0.147-0.887,0.197c-0.257,0.028-0.514,0.04-0.771,0.04
	c-0.282,0-0.566-0.016-0.853-0.044c-0.879-0.132-1.661-0.337-2.397-0.628c-0.285-0.138-0.545-0.301-0.802-0.48
	c0.143-0.132,0.275-0.26,0.389-0.386c0.678-0.758,1.431-1.678,1.879-2.763c0.238-0.581,0.389-1.246,0.488-2.157
	c0.061-0.557,0.107-1.154,0.035-1.748c-0.013-0.105-0.046-0.199-0.063-0.301c0.159-0.073,0.321-0.146,0.458-0.227
	c0.894-0.526,1.655-1.255,2.204-2.108c0.295-0.457,0.515-0.953,0.673-1.335c0.026-0.061,0.049-0.126,0.074-0.188
	c0.096,0.143,0.232,0.257,0.399,0.306c0.187,0.057,0.371,0.119,0.563,0.191c0.237,0.113,0.462,0.241,0.686,0.381l0.153,0.095
	c0.173,0.106,0.344,0.213,0.517,0.334c0.237,0.193,0.421,0.369,0.587,0.561c0.299,0.43,0.571,0.932,0.855,1.583
	c0.172,0.425,0.383,0.992,0.489,1.603C27.143,19.754,27.149,20.092,27.125,20.405z"/>
</svg>