<svg width="16" height="16" viewBox="0 0 16 16" fill="none" xmlns="http://www.w3.org/2000/svg">
<path d="M9.00004 6.16675H1.33337C1.06004 6.16675 0.833374 5.94008 0.833374 5.66675C0.833374 5.39341 1.06004 5.16675 1.33337 5.16675H9.00004C9.27337 5.16675 9.50004 5.39341 9.50004 5.66675C9.50004 5.94008 9.27337 6.16675 9.00004 6.16675Z" fill="#031427"/>
<path d="M5.33333 11.5H4C3.72667 11.5 3.5 11.2733 3.5 11C3.5 10.7267 3.72667 10.5 4 10.5H5.33333C5.60667 10.5 5.83333 10.7267 5.83333 11C5.83333 11.2733 5.60667 11.5 5.33333 11.5Z" fill="#031427"/>
<path d="M9.66667 11.5H7C6.72667 11.5 6.5 11.2733 6.5 11C6.5 10.7267 6.72667 10.5 7 10.5H9.66667C9.94 10.5 10.1667 10.7267 10.1667 11C10.1667 11.2733 9.94 11.5 9.66667 11.5Z" fill="#031427"/>
<path d="M11.7067 14.1666H4.29337C1.64004 14.1666 0.833374 13.3666 0.833374 10.7399V5.25992C0.833374 2.63325 1.64004 1.83325 4.29337 1.83325H9.00004C9.27337 1.83325 9.50004 2.05992 9.50004 2.33325C9.50004 2.60659 9.27337 2.83325 9.00004 2.83325H4.29337C2.20004 2.83325 1.83337 3.19325 1.83337 5.25992V10.7333C1.83337 12.7999 2.20004 13.1599 4.29337 13.1599H11.7C13.7934 13.1599 14.16 12.7999 14.16 10.7333V8.01325C14.16 7.73992 14.3867 7.51325 14.66 7.51325C14.9334 7.51325 15.16 7.73992 15.16 8.01325V10.7333C15.1667 13.3666 14.36 14.1666 11.7067 14.1666Z" fill="#031427"/>
<path d="M11.54 5.96007C11.4133 5.96007 11.2866 5.91341 11.1866 5.81341C10.9933 5.62008 10.9933 5.30008 11.1866 5.10674L13.78 2.51341C13.9733 2.32007 14.2933 2.32007 14.4866 2.51341C14.68 2.70674 14.68 3.02674 14.4866 3.22007L11.8933 5.81341C11.7933 5.91341 11.6666 5.96007 11.54 5.96007Z" fill="#031427"/>
<path d="M14.1267 5.96007C14 5.96007 13.8734 5.91341 13.7734 5.81341L11.18 3.22007C10.9867 3.02674 10.9867 2.70674 11.18 2.51341C11.3734 2.32007 11.6934 2.32007 11.8867 2.51341L14.48 5.10674C14.6734 5.30008 14.6734 5.62008 14.48 5.81341C14.3867 5.91341 14.26 5.96007 14.1267 5.96007Z" fill="#031427"/>
</svg>
