<svg width="24" height="25" viewBox="0 0 24 25" fill="none" xmlns="http://www.w3.org/2000/svg">
<path d="M15 23.1943H9C3.57 23.1943 1.25 20.8743 1.25 15.4443V9.44434C1.25 4.01434 3.57 1.69434 9 1.69434H15C20.43 1.69434 22.75 4.01434 22.75 9.44434V15.4443C22.75 20.8743 20.43 23.1943 15 23.1943ZM9 3.19434C4.39 3.19434 2.75 4.83434 2.75 9.44434V15.4443C2.75 20.0543 4.39 21.6943 9 21.6943H15C19.61 21.6943 21.25 20.0543 21.25 15.4443V9.44434C21.25 4.83434 19.61 3.19434 15 3.19434H9Z" fill="#082546"/>
<path d="M15.5 19.6943C13.98 19.6943 12.75 18.4643 12.75 16.9443V7.94434C12.75 6.42434 13.98 5.19434 15.5 5.19434C17.02 5.19434 18.25 6.42434 18.25 7.94434V16.9443C18.25 18.4643 17.02 19.6943 15.5 19.6943ZM15.5 6.69434C14.81 6.69434 14.25 7.25434 14.25 7.94434V16.9443C14.25 17.6343 14.81 18.1943 15.5 18.1943C16.19 18.1943 16.75 17.6343 16.75 16.9443V7.94434C16.75 7.25434 16.19 6.69434 15.5 6.69434Z" fill="#082546"/>
<path d="M8.5 19.6943C6.98 19.6943 5.75 18.4643 5.75 16.9443V13.4443C5.75 11.9243 6.98 10.6943 8.5 10.6943C10.02 10.6943 11.25 11.9243 11.25 13.4443V16.9443C11.25 18.4643 10.02 19.6943 8.5 19.6943ZM8.5 12.1943C7.81 12.1943 7.25 12.7543 7.25 13.4443V16.9443C7.25 17.6343 7.81 18.1943 8.5 18.1943C9.19 18.1943 9.75 17.6343 9.75 16.9443V13.4443C9.75 12.7543 9.19 12.1943 8.5 12.1943Z" fill="#082546"/>
</svg>
