<svg width="20" height="21" viewBox="0 0 20 21" fill="none" xmlns="http://www.w3.org/2000/svg">
<path d="M6.66667 5.23633C6.63652 5.23633 6.60524 5.22404 6.5796 5.1984C6.55396 5.17276 6.54167 5.14148 6.54167 5.11133V2.61133C6.54167 2.58118 6.55396 2.5499 6.5796 2.52426C6.60524 2.49861 6.63652 2.48633 6.66667 2.48633C6.69682 2.48633 6.7281 2.49861 6.75374 2.52426C6.77939 2.5499 6.79167 2.58118 6.79167 2.61133V5.11133C6.79167 5.14148 6.77939 5.17276 6.75374 5.1984C6.7281 5.22404 6.69682 5.23633 6.66667 5.23633Z" fill="#292D32" stroke="#082546"/>
<path d="M13.3333 5.23633C13.3032 5.23633 13.2719 5.22404 13.2463 5.1984C13.2206 5.17276 13.2083 5.14148 13.2083 5.11133V2.61133C13.2083 2.58118 13.2206 2.5499 13.2463 2.52426C13.2719 2.49861 13.3032 2.48633 13.3333 2.48633C13.3635 2.48633 13.3948 2.49861 13.4204 2.52426C13.446 2.5499 13.4583 2.58118 13.4583 2.61133V5.11133C13.4583 5.14148 13.446 5.17276 13.4204 5.1984C13.3948 5.22404 13.3635 5.23633 13.3333 5.23633Z" fill="#292D32" stroke="#082546"/>
<path d="M7.35579 12.3888C7.35571 12.389 7.35557 12.3891 7.35538 12.3894L7.35579 12.3888ZM7.35579 12.3888L7.35593 12.3887C7.35593 12.3887 7.3559 12.3887 7.35585 12.3888C7.35583 12.3888 7.35582 12.3888 7.35579 12.3888ZM6.95897 12.4991L6.95905 12.4989L6.94616 12.4939C6.91462 12.4818 6.88571 12.4654 6.84237 12.4282C6.7807 12.3574 6.75 12.2748 6.75 12.1939C6.75 12.1615 6.75785 12.1184 6.77821 12.0696C6.79458 12.0303 6.81691 11.9925 6.84709 11.9557C6.88783 11.9213 6.91578 11.9056 6.94616 11.8939L6.94622 11.8941L6.95897 11.8888C7.07667 11.8398 7.23103 11.8698 7.31693 11.9514C7.38178 12.0226 7.41667 12.1156 7.41667 12.1939C7.41667 12.1938 7.41667 12.1938 7.41666 12.194C7.41662 12.195 7.41636 12.2023 7.41452 12.2189C7.41269 12.2354 7.4102 12.2536 7.40671 12.2781C7.40615 12.2797 7.40498 12.2826 7.40278 12.287L7.38689 12.3188L7.37566 12.3525C7.37485 12.3549 7.37104 12.3652 7.35898 12.3833L7.35277 12.3926L7.34717 12.3993L7.32256 12.4278C7.31981 12.431 7.31679 12.4345 7.31357 12.4383C7.24422 12.4962 7.15723 12.5273 7.08333 12.5273C7.05082 12.5273 7.00779 12.5194 6.95897 12.4991Z" fill="#292D32" stroke="#082546"/>
<path d="M9.87564 12.4999L9.87572 12.4997L9.86283 12.4947C9.83129 12.4826 9.80238 12.4661 9.75905 12.429C9.69737 12.3581 9.66667 12.2756 9.66667 12.1947C9.66667 12.1622 9.67452 12.1192 9.69488 12.0704C9.71126 12.031 9.73358 11.9933 9.76376 11.9564C9.8045 11.9221 9.83245 11.9064 9.86283 11.8947L9.87474 11.8901L9.88641 11.8849C9.98914 11.8393 10.1409 11.8636 10.2335 11.9521C10.2984 12.0233 10.3333 12.1163 10.3333 12.1947C10.3333 12.1946 10.3333 12.1946 10.3333 12.1948C10.3333 12.1958 10.333 12.2031 10.3312 12.2197C10.3294 12.2362 10.3269 12.2543 10.3234 12.2788C10.3228 12.2804 10.3217 12.2834 10.3195 12.2878L10.3036 12.3196L10.2923 12.3533C10.2915 12.3557 10.2877 12.3659 10.2756 12.384L10.2694 12.3933L10.2638 12.4L10.2392 12.4286C10.2365 12.4317 10.2335 12.4352 10.2302 12.439C10.1609 12.497 10.0739 12.5281 10 12.5281C9.96749 12.5281 9.92447 12.5202 9.87564 12.4999Z" fill="#292D32" stroke="#082546"/>
<path d="M12.7923 12.4999L12.7924 12.4997L12.7795 12.4947C12.7508 12.4837 12.7242 12.469 12.687 12.4385L12.6326 12.3705C12.627 12.3608 12.6249 12.355 12.6243 12.3533L12.6131 12.3196L12.5972 12.2878C12.595 12.2834 12.5938 12.2804 12.5933 12.2788C12.5898 12.2543 12.5873 12.2362 12.5855 12.2197C12.5836 12.2031 12.5834 12.1958 12.5833 12.1948C12.5833 12.1946 12.5833 12.1946 12.5833 12.1947C12.5833 12.1193 12.6157 12.0302 12.676 11.9602C12.7192 11.9232 12.748 11.9068 12.7795 11.8947L12.789 11.891L12.7984 11.887C12.9129 11.8375 13.0586 11.8644 13.1501 11.9521C13.2151 12.0232 13.25 12.1163 13.25 12.1947C13.25 12.1946 13.25 12.1946 13.25 12.1948C13.25 12.1958 13.2497 12.2031 13.2478 12.2197C13.246 12.2362 13.2435 12.2543 13.24 12.2788C13.2395 12.2804 13.2383 12.2834 13.2361 12.2878L13.2202 12.3196L13.209 12.3533C13.2082 12.3557 13.2044 12.3659 13.1923 12.384L13.1861 12.3933L13.1805 12.4L13.1559 12.4286C13.1531 12.4317 13.1501 12.4352 13.1469 12.439C13.0775 12.497 12.9906 12.5281 12.9167 12.5281C12.8841 12.5281 12.8411 12.5202 12.7923 12.4999Z" fill="#292D32" stroke="#082546"/>
<path d="M6.77821 14.9866L6.77838 14.9867L6.78334 14.9738C6.80228 14.9246 6.82418 14.8939 6.84522 14.8729C6.89127 14.8268 6.97542 14.7881 7.08333 14.7881C7.18792 14.7881 7.27019 14.8245 7.31708 14.8687C7.38184 14.9398 7.41667 15.0327 7.41667 15.111C7.41667 15.1876 7.38329 15.2783 7.32114 15.3488C7.25063 15.411 7.15995 15.4443 7.08333 15.4443C7.05082 15.4443 7.00779 15.4365 6.95897 15.4161C6.91859 15.3993 6.87981 15.3762 6.84194 15.3447C6.78209 15.2748 6.75 15.1861 6.75 15.111C6.75 15.0785 6.75785 15.0355 6.77821 14.9866Z" fill="#292D32" stroke="#082546"/>
<path d="M10 15.9443C9.78334 15.9443 9.56667 15.8527 9.40834 15.7027C9.25834 15.5443 9.16667 15.3277 9.16667 15.111C9.16667 15.0027 9.19167 14.8943 9.23334 14.7943C9.27501 14.686 9.33334 14.5943 9.40834 14.5193C9.71667 14.211 10.2833 14.211 10.5917 14.5193C10.6667 14.5943 10.725 14.686 10.7667 14.7943C10.8083 14.8943 10.8333 15.0027 10.8333 15.111C10.8333 15.3277 10.7417 15.5443 10.5917 15.7027C10.4333 15.8527 10.2167 15.9443 10 15.9443Z" fill="#292D32"/>
<path d="M12.6168 15.2485L12.6167 15.2486C12.6343 15.2945 12.6545 15.3242 12.6743 15.3451C12.7454 15.4099 12.8384 15.4448 12.9167 15.4448C12.9933 15.4448 13.084 15.4114 13.1545 15.3492C13.2166 15.2787 13.25 15.188 13.25 15.1114C13.25 15.0375 13.2189 14.9505 13.161 14.8812C13.1572 14.878 13.1537 14.875 13.1505 14.8722L13.122 14.8476L13.1153 14.842L13.106 14.8358C13.0878 14.8237 13.0775 14.8199 13.0752 14.8191L13.0415 14.8078L13.0097 14.792L12.6168 15.2485ZM12.6168 15.2485L12.6115 15.2358C12.5912 15.1869 12.5833 15.1439 12.5833 15.1114C12.5833 15.0789 12.5912 15.0359 12.6115 14.9871L12.6117 14.9871L12.6167 14.9742C12.6356 14.925 12.6575 14.8944 12.6785 14.8733C12.7552 14.7966 12.8754 14.7629 12.9681 14.7832L12.9861 14.7871L13.0043 14.7897C13.0047 14.7898 13.005 14.7898 13.0053 14.7899L12.6168 15.2485Z" fill="#292D32" stroke="#082546"/>
<path d="M17.0833 8.64453H2.91667C2.88652 8.64453 2.85524 8.63225 2.8296 8.6066C2.80396 8.58096 2.79167 8.54968 2.79167 8.51953C2.79167 8.48938 2.80396 8.4581 2.8296 8.43246C2.85524 8.40682 2.88652 8.39453 2.91667 8.39453H17.0833C17.1135 8.39453 17.1448 8.40682 17.1704 8.43246C17.1961 8.4581 17.2083 8.48938 17.2083 8.51953C17.2083 8.54968 17.1961 8.58096 17.1704 8.6066C17.1448 8.63225 17.1135 8.64453 17.0833 8.64453Z" fill="#292D32" stroke="#082546"/>
<path d="M13.3333 19.403H6.66667C5.24074 19.403 4.18404 18.9945 3.48376 18.2942C2.78348 17.594 2.375 16.5373 2.375 15.1113V8.028C2.375 6.60207 2.78348 5.54537 3.48376 4.84509C4.18404 4.14481 5.24074 3.73633 6.66667 3.73633H13.3333C14.7593 3.73633 15.816 4.14481 16.5162 4.84509C17.2165 5.54537 17.625 6.60207 17.625 8.028V15.1113C17.625 16.5373 17.2165 17.594 16.5162 18.2942C15.816 18.9945 14.7593 19.403 13.3333 19.403ZM6.66667 3.98633C5.40151 3.98633 4.36464 4.29375 3.64853 5.00986C2.93242 5.72597 2.625 6.76284 2.625 8.028V15.1113C2.625 16.3765 2.93242 17.4134 3.64853 18.1295C4.36464 18.8456 5.40151 19.153 6.66667 19.153H13.3333C14.5985 19.153 15.6354 18.8456 16.3515 18.1295C17.0676 17.4134 17.375 16.3765 17.375 15.1113V8.028C17.375 6.76284 17.0676 5.72597 16.3515 5.00986C15.6354 4.29375 14.5985 3.98633 13.3333 3.98633H6.66667Z" fill="#292D32" stroke="#082546"/>
</svg>
