<svg width="16" height="17" viewBox="0 0 16 17" fill="none" xmlns="http://www.w3.org/2000/svg">
<path d="M14.5067 11.5593L10.24 3.8793C9.66667 2.84596 8.87333 2.2793 8 2.2793C7.12667 2.2793 6.33333 2.84596 5.76 3.8793L1.49333 11.5593C0.953334 12.5393 0.893334 13.4793 1.32667 14.2193C1.76 14.9593 2.61333 15.366 3.73333 15.366H12.2667C13.3867 15.366 14.24 14.9593 14.6733 14.2193C15.1067 13.4793 15.0467 12.5326 14.5067 11.5593ZM7.5 6.94596C7.5 6.67263 7.72667 6.44596 8 6.44596C8.27333 6.44596 8.5 6.67263 8.5 6.94596V10.2793C8.5 10.5526 8.27333 10.7793 8 10.7793C7.72667 10.7793 7.5 10.5526 7.5 10.2793V6.94596ZM8.47333 12.7526C8.44 12.7793 8.40667 12.806 8.37333 12.8326C8.33333 12.8593 8.29333 12.8793 8.25333 12.8926C8.21333 12.9126 8.17333 12.926 8.12667 12.9326C8.08667 12.9393 8.04 12.946 8 12.946C7.96 12.946 7.91333 12.9393 7.86667 12.9326C7.82667 12.926 7.78667 12.9126 7.74667 12.8926C7.70667 12.8793 7.66667 12.8593 7.62667 12.8326C7.59333 12.806 7.56 12.7793 7.52667 12.7526C7.40667 12.626 7.33333 12.4526 7.33333 12.2793C7.33333 12.106 7.40667 11.9326 7.52667 11.806C7.56 11.7793 7.59333 11.7526 7.62667 11.726C7.66667 11.6993 7.70667 11.6793 7.74667 11.666C7.78667 11.646 7.82667 11.6326 7.86667 11.626C7.95333 11.606 8.04667 11.606 8.12667 11.626C8.17333 11.6326 8.21333 11.646 8.25333 11.666C8.29333 11.6793 8.33333 11.6993 8.37333 11.726C8.40667 11.7526 8.44 11.7793 8.47333 11.806C8.59333 11.9326 8.66667 12.106 8.66667 12.2793C8.66667 12.4526 8.59333 12.626 8.47333 12.7526Z" fill="#F41E21"/>
</svg>
