<svg width="20" height="20" viewBox="0 0 20 20" fill="none" xmlns="http://www.w3.org/2000/svg">
<path d="M12.9167 10.957H11.1084C9.62502 10.957 8.41669 9.75703 8.41669 8.26536V6.45703C8.41669 6.11536 8.14169 5.83203 7.79169 5.83203H5.15002C3.22502 5.83203 1.66669 7.08203 1.66669 9.31536V14.8487C1.66669 17.082 3.22502 18.332 5.15002 18.332H10.0584C11.9834 18.332 13.5417 17.082 13.5417 14.8487V11.582C13.5417 11.232 13.2584 10.957 12.9167 10.957Z" fill="#082546"/>
<path d="M14.85 1.66602H13.2083H12.3H9.94167C8.05834 1.66602 6.53334 2.86602 6.46667 5.00768C6.51667 5.00768 6.55834 4.99935 6.60834 4.99935H8.96667H9.87501H11.5167C13.4417 4.99935 15 6.24935 15 8.48268V10.1243V12.3827V14.0243C15 14.0743 14.9917 14.116 14.9917 14.1577C16.85 14.0993 18.3333 12.866 18.3333 10.691V9.04935V6.79102V5.14935C18.3333 2.91602 16.775 1.66602 14.85 1.66602Z" fill="#082546"/>
<path d="M9.98332 5.9591C9.72499 5.70077 9.28333 5.87577 9.28333 6.2341V8.41744C9.28333 9.3341 10.0583 10.0841 11.0083 10.0841C11.6 10.0924 12.425 10.0924 13.1333 10.0924C13.4917 10.0924 13.675 9.67577 13.425 9.42577C12.5167 8.51744 10.9 6.89244 9.98332 5.9591Z" fill="#082546"/>
</svg>
