<svg width="24" height="24" viewBox="0 0 24 24" fill="none" xmlns="http://www.w3.org/2000/svg">
<path d="M12.75 15.9203H13.4C14.05 15.9203 14.59 15.3403 14.59 14.6403C14.59 13.7703 14.28 13.6003 13.77 13.4203L12.76 13.0703V15.9203H12.75Z" fill="#0B99FF"/>
<path d="M11.9699 1.90041C6.44994 1.92041 1.97994 6.41041 1.99994 11.9304C2.01994 17.4504 6.50994 21.9204 12.0299 21.9004C17.5499 21.8804 22.0199 17.3904 21.9999 11.8704C21.9799 6.35041 17.4899 1.89041 11.9699 1.90041ZM14.2599 12.0004C15.0399 12.2704 16.0899 12.8504 16.0899 14.6404C16.0899 16.1804 14.8799 17.4204 13.3999 17.4204H12.7499V18.0004C12.7499 18.4104 12.4099 18.7504 11.9999 18.7504C11.5899 18.7504 11.2499 18.4104 11.2499 18.0004V17.4204H10.8899C9.24995 17.4204 7.91994 16.0404 7.91994 14.3404C7.91994 13.9304 8.25994 13.5904 8.66994 13.5904C9.07994 13.5904 9.41994 13.9304 9.41994 14.3404C9.41994 15.2104 10.0799 15.9204 10.8899 15.9204H11.2499V12.5404L9.73994 12.0004C8.95994 11.7304 7.90994 11.1504 7.90994 9.36041C7.90994 7.82041 9.11995 6.58041 10.5999 6.58041H11.2499V6.00041C11.2499 5.59041 11.5899 5.25041 11.9999 5.25041C12.4099 5.25041 12.7499 5.59041 12.7499 6.00041V6.58041H13.1099C14.7499 6.58041 16.0799 7.96041 16.0799 9.66041C16.0799 10.0704 15.7399 10.4104 15.3299 10.4104C14.9199 10.4104 14.5799 10.0704 14.5799 9.66041C14.5799 8.79041 13.9199 8.08041 13.1099 8.08041H12.7499V11.4604L14.2599 12.0004Z" fill="#0B99FF"/>
<path d="M9.42004 9.37008C9.42004 10.2401 9.73004 10.4101 10.24 10.5901L11.25 10.9401V8.08008H10.6C9.95004 8.08008 9.42004 8.66008 9.42004 9.37008Z" fill="#0B99FF"/>
</svg>
