<svg width="18" height="18" viewBox="0 0 18 18" fill="none" xmlns="http://www.w3.org/2000/svg">
<path d="M9 1.5V6.75L10.5 5.25" stroke="#0B99FF" stroke-width="1.5" stroke-linecap="round" stroke-linejoin="round"/>
<path d="M9 6.75L7.5 5.25" stroke="#0B99FF" stroke-width="1.5" stroke-linecap="round" stroke-linejoin="round"/>
<path d="M1.48499 9.75H4.79249C5.07749 9.75 5.33249 9.9075 5.45999 10.1625L6.33749 11.9175C6.59249 12.4275 7.10999 12.75 7.67999 12.75H10.3275C10.8975 12.75 11.415 12.4275 11.67 11.9175L12.5475 10.1625C12.675 9.9075 12.9375 9.75 13.215 9.75H16.485" stroke="#0B99FF" stroke-width="1.5" stroke-linecap="round" stroke-linejoin="round"/>
<path d="M2.01749 14.2502C2.73749 15.8252 4.23749 16.5002 6.74999 16.5002H11.25C15 16.5002 16.5 15.0002 16.5 11.2502V8.25016C16.5 5.04766 15.405 3.48766 12.75 3.09766" stroke="#0B99FF" stroke-width="1.5" stroke-linecap="round" stroke-linejoin="round"/>
<path d="M5.25 3.09766C2.595 3.48766 1.5 5.04766 1.5 8.25016V11.2502" stroke="#0B99FF" stroke-width="1.5" stroke-linecap="round" stroke-linejoin="round"/>
</svg>
