<svg width="20" height="20" viewBox="0 0 20 20" fill="none" xmlns="http://www.w3.org/2000/svg">
<path d="M7.22498 11.9417C7.22498 13.0167 8.04998 13.8834 9.07498 13.8834H11.1666C12.0583 13.8834 12.7833 13.125 12.7833 12.1917C12.7833 11.175 12.3416 10.8167 11.6833 10.5834L8.32498 9.4167C7.66664 9.18337 7.22498 8.82503 7.22498 7.80837C7.22498 6.87503 7.94998 6.1167 8.84164 6.1167H10.9333C11.9583 6.1167 12.7833 6.98337 12.7833 8.05837" stroke="#FF7678" stroke-width="1.5" stroke-linecap="round" stroke-linejoin="round"/>
<path d="M10 5V15" stroke="#FF7678" stroke-width="1.5" stroke-linecap="round" stroke-linejoin="round"/>
<path d="M3.33329 4.99984C2.29163 6.3915 1.66663 8.12484 1.66663 9.99984C1.66663 14.5998 5.39996 18.3332 9.99996 18.3332C14.6 18.3332 18.3333 14.5998 18.3333 9.99984C18.3333 5.39984 14.6 1.6665 9.99996 1.6665C8.80829 1.6665 7.66663 1.9165 6.64163 2.37484" stroke="#FF7678" stroke-width="1.5" stroke-linecap="round" stroke-linejoin="round"/>
</svg>
