<svg width="20" height="20" viewBox="0 0 20 20" fill="none" xmlns="http://www.w3.org/2000/svg">
<path d="M7.22498 11.9417C7.22498 13.0167 8.04998 13.8834 9.07498 13.8834H11.1666C12.0583 13.8834 12.7833 13.125 12.7833 12.1917C12.7833 11.175 12.3416 10.8167 11.6833 10.5834L8.32498 9.4167C7.66664 9.18337 7.22498 8.82503 7.22498 7.80837C7.22498 6.87503 7.94998 6.1167 8.84164 6.1167H10.9333C11.9583 6.1167 12.7833 6.98337 12.7833 8.05837" stroke="#FFA473" stroke-width="1.5" stroke-linecap="round" stroke-linejoin="round"/>
<path d="M10 5V15" stroke="#FFA473" stroke-width="1.5" stroke-linecap="round" stroke-linejoin="round"/>
<path d="M1.66663 7.49984C1.66663 3.33317 3.33329 1.6665 7.49996 1.6665H12.5C16.6666 1.6665 18.3333 3.33317 18.3333 7.49984V12.4998C18.3333 16.6665 16.6666 18.3332 12.5 18.3332H7.49996C3.33329 18.3332 1.66663 16.6665 1.66663 12.4998V10.8582" stroke="#FFA473" stroke-width="1.5" stroke-linecap="round" stroke-linejoin="round"/>
</svg>
