<svg width="16" height="16" viewBox="0 0 16 16" fill="none" xmlns="http://www.w3.org/2000/svg">
<path opacity="0.2" d="M10.5 4.5V13.5L6.5 11.5V2.5L10.5 4.5Z" fill="#0B99FF"/>
<path d="M14.8075 3.10557C14.7476 3.0589 14.6779 3.02649 14.6036 3.01079C14.5293 2.99508 14.4524 2.99651 14.3787 3.01495L10.5581 3.96995L6.72375 2.05245C6.61692 1.99916 6.49454 1.98586 6.37875 2.01495L2.37875 3.01495C2.27058 3.04199 2.17455 3.1044 2.10593 3.19228C2.0373 3.28016 2.00002 3.38845 2 3.49995V12.4999C2.00001 12.5759 2.01734 12.6509 2.05066 12.7192C2.08398 12.7875 2.13243 12.8472 2.19232 12.894C2.2522 12.9407 2.32196 12.9732 2.39628 12.989C2.4706 13.0048 2.54754 13.0034 2.62125 12.9849L6.44187 12.0299L10.2762 13.9474C10.3459 13.9818 10.4224 13.9997 10.5 13.9999C10.5409 13.9999 10.5816 13.9949 10.6213 13.9849L14.6213 12.9849C14.7294 12.9579 14.8254 12.8955 14.8941 12.8076C14.9627 12.7197 15 12.6114 15 12.4999V3.49995C15 3.4239 14.9827 3.34885 14.9493 3.28051C14.916 3.21217 14.8675 3.15234 14.8075 3.10557ZM7 3.3087L10 4.8087V12.6912L7 11.1912V3.3087ZM3 3.89057L6 3.14057V11.1093L3 11.8593V3.89057ZM14 12.1093L11 12.8593V4.89057L14 4.14057V12.1093Z" fill="#0B99FF"/>
</svg>
