<svg width="20" height="16" viewBox="0 0 20 16" fill="none" xmlns="http://www.w3.org/2000/svg">
<g clip-path="url(#clip0_622_24364)">
<rect y="0.945312" width="20" height="15" rx="4" fill="white"/>
<path fill-rule="evenodd" clip-rule="evenodd" d="M0 0.945312V15.9453H20V0.945312H0Z" fill="#2E42A5"/>
<mask id="mask0_622_24364" style="mask-type:luminance" maskUnits="userSpaceOnUse" x="0" y="0" width="20" height="16">
<path fill-rule="evenodd" clip-rule="evenodd" d="M0 0.945312V15.9453H20V0.945312H0Z" fill="white"/>
</mask>
<g mask="url(#mask0_622_24364)">
<path d="M-2.22696 14.8731L2.17409 16.7344L20.0999 2.96836L22.4213 0.202436L17.715 -0.419661L10.4035 5.51251L4.51853 9.5094L-2.22696 14.8731Z" fill="white"/>
<path d="M-1.62445 16.1777L0.617684 17.2578L21.5877 -0.0540257H18.4395L-1.62445 16.1777Z" fill="#F50100"/>
<path d="M22.227 14.8731L17.8259 16.7344L-0.0998669 2.96836L-2.42132 0.202436L2.28497 -0.419661L9.59647 5.51251L15.4815 9.5094L22.227 14.8731Z" fill="white"/>
<path d="M22.0768 15.8105L19.8347 16.8906L10.9054 9.47853L8.25807 8.65039L-2.6447 0.213394H0.503521L11.4002 8.45013L14.2946 9.44316L22.0768 15.8105Z" fill="#F50100"/>
<mask id="path-8-inside-1_622_24364" fill="white">
<path fill-rule="evenodd" clip-rule="evenodd" d="M12.3611 -0.304688H7.63889V5.94531H-1.23279V10.9453H7.63889V17.1953H12.3611V10.9453H21.2672V5.94531H12.3611V-0.304688Z"/>
</mask>
<path fill-rule="evenodd" clip-rule="evenodd" d="M12.3611 -0.304688H7.63889V5.94531H-1.23279V10.9453H7.63889V17.1953H12.3611V10.9453H21.2672V5.94531H12.3611V-0.304688Z" fill="#F50100"/>
<path d="M7.63889 -0.304688V-1.55469H6.38889V-0.304688H7.63889ZM12.3611 -0.304688H13.6111V-1.55469H12.3611V-0.304688ZM7.63889 5.94531V7.19531H8.88889V5.94531H7.63889ZM-1.23279 5.94531V4.69531H-2.48279V5.94531H-1.23279ZM-1.23279 10.9453H-2.48279V12.1953H-1.23279V10.9453ZM7.63889 10.9453H8.88889V9.69531H7.63889V10.9453ZM7.63889 17.1953H6.38889V18.4453H7.63889V17.1953ZM12.3611 17.1953V18.4453H13.6111V17.1953H12.3611ZM12.3611 10.9453V9.69531H11.1111V10.9453H12.3611ZM21.2672 10.9453V12.1953H22.5172V10.9453H21.2672ZM21.2672 5.94531H22.5172V4.69531H21.2672V5.94531ZM12.3611 5.94531H11.1111V7.19531H12.3611V5.94531ZM7.63889 0.945312H12.3611V-1.55469H7.63889V0.945312ZM8.88889 5.94531V-0.304688H6.38889V5.94531H8.88889ZM-1.23279 7.19531H7.63889V4.69531H-1.23279V7.19531ZM0.0172081 10.9453V5.94531H-2.48279V10.9453H0.0172081ZM7.63889 9.69531H-1.23279V12.1953H7.63889V9.69531ZM8.88889 17.1953V10.9453H6.38889V17.1953H8.88889ZM12.3611 15.9453H7.63889V18.4453H12.3611V15.9453ZM11.1111 10.9453V17.1953H13.6111V10.9453H11.1111ZM21.2672 9.69531H12.3611V12.1953H21.2672V9.69531ZM20.0172 5.94531V10.9453H22.5172V5.94531H20.0172ZM12.3611 7.19531H21.2672V4.69531H12.3611V7.19531ZM11.1111 -0.304688V5.94531H13.6111V-0.304688H11.1111Z" fill="white" mask="url(#path-8-inside-1_622_24364)"/>
</g>
</g>
<defs>
<clipPath id="clip0_622_24364">
<rect y="0.945312" width="20" height="15" rx="4" fill="white"/>
</clipPath>
</defs>
</svg>
