<svg width="24" height="25" viewBox="0 0 24 25" fill="none" xmlns="http://www.w3.org/2000/svg">
<path d="M13.41 21.737L12 22.647C10.69 23.457 8.87 22.547 8.87 20.927V15.577C8.87 14.867 8.47 13.957 8.06 13.457L4.21997 9.41702C3.70997 8.90702 3.31 8.00703 3.31 7.39703V5.07703C3.31 3.86703 4.22002 2.95703 5.33002 2.95703H18.67C19.78 2.95703 20.69 3.86702 20.69 4.97702V7.19702C20.69 8.00702 20.18 9.01703 19.68 9.51703" stroke="#082546" stroke-width="1.5" stroke-miterlimit="10" stroke-linecap="round" stroke-linejoin="round"/>
<path d="M17.08 12.8347L13.54 16.3747C13.4 16.5147 13.27 16.7747 13.24 16.9647L13.05 18.3147C12.98 18.8047 13.32 19.1447 13.81 19.0747L15.1599 18.8847C15.3499 18.8547 15.62 18.7247 15.75 18.5847L19.29 15.0447C19.9 14.4347 20.19 13.7247 19.29 12.8247C18.4 11.9347 17.69 12.2247 17.08 12.8347Z" stroke="#082546" stroke-width="1.5" stroke-miterlimit="10" stroke-linecap="round" stroke-linejoin="round"/>
<path d="M16.58 13.3359C16.88 14.4159 17.72 15.2559 18.8 15.5559" stroke="#082546" stroke-width="1.5" stroke-miterlimit="10" stroke-linecap="round" stroke-linejoin="round"/>
</svg>
