<svg width="16" height="16" viewBox="0 0 16 16" fill="none" xmlns="http://www.w3.org/2000/svg">
<path d="M14.4183 10.8821L14.8751 10.6788C14.787 10.4809 14.5815 10.3622 14.366 10.3849L14.4183 10.8821ZM9.77035 15.0672L9.28128 14.9632C9.23624 15.1751 9.33276 15.3919 9.52035 15.5002L9.77035 15.0672ZM1.2816 4.66264L0.833981 4.43985H0.833981L1.2816 4.66264ZM1.15302 11.0654L0.696782 11.27H0.696782L1.15302 11.0654ZM14.6665 11.4396L15.1107 11.6692L14.6665 11.4396ZM6.58124 3.46311L9.70847 5.73517L10.2963 4.92615L7.16903 2.65409L6.58124 3.46311ZM9.52683 5.17615L8.33234 8.85242L9.2834 9.16144L10.4779 5.48517L9.52683 5.17615ZM8.80787 8.50693H4.94241V9.50693H8.80787V8.50693ZM5.41794 8.85242L4.22344 5.17615L3.27239 5.48517L4.46688 9.16144L5.41794 8.85242ZM4.04181 5.73517L7.16903 3.46311L6.58124 2.65409L3.45402 4.92615L4.04181 5.73517ZM14.366 10.3849L10.5218 10.7889L10.6263 11.7834L14.4706 11.3794L14.366 10.3849ZM10.085 11.1822L9.28128 14.9632L10.2594 15.1711L11.0631 11.3901L10.085 11.1822ZM7.37514 3.0586V0.592478H6.37514V3.0586H7.37514ZM10.1331 5.81326L12.7599 5.10171L12.4984 4.1365L9.87163 4.84805L10.1331 5.81326ZM8.41264 9.31319L10.1788 11.5924L10.9693 10.9799L9.2031 8.70067L8.41264 9.31319ZM4.54068 8.70924L2.85174 10.9885L3.65519 11.5839L5.34413 9.30461L4.54068 8.70924ZM12.855 2.63556L12.1623 4.43992L13.0959 4.79829L13.7885 2.99393L12.855 2.63556ZM12.3882 5.05722L15.0053 6.49654L15.4872 5.62031L12.8701 4.18099L12.3882 5.05722ZM8 1C11.2386 1 13.9647 3.19979 14.7632 6.18752L15.7293 5.92932C14.8168 2.51513 11.7028 0 8 0V1ZM14.7632 6.18752C14.9176 6.76507 15 7.37252 15 8H16C16 7.28457 15.906 6.59033 15.7293 5.92932L14.7632 6.18752ZM3.87863 4.84805L1.41232 4.18003L1.15088 5.14525L3.6172 5.81327L3.87863 4.84805ZM1 8C1 6.88006 1.26264 5.8229 1.72923 4.88542L0.833981 4.43985C0.300042 5.51264 0 6.722 0 8H1ZM1.72923 4.88542C2.87598 2.58135 5.25378 1 8 1V0C4.85989 0 2.14327 1.80923 0.833981 4.43985L1.72923 4.88542ZM1.10075 11.5627L3.2012 11.7834L3.30573 10.7889L1.20528 10.5681L1.10075 11.5627ZM1.60925 10.8608C1.21791 9.98807 1 9.02015 1 8H0C0 9.16392 0.248872 10.271 0.696782 11.27L1.60925 10.8608ZM8 15C6.58239 15 5.2646 14.5791 4.16292 13.8557L3.614 14.6915C4.87373 15.5188 6.38143 16 8 16V15ZM4.16292 13.8557C3.05035 13.125 2.15858 12.0859 1.60925 10.8608L0.696782 11.27C1.32484 12.6707 2.34351 13.8572 3.614 14.6915L4.16292 13.8557ZM2.76439 11.3901L3.39939 14.3776L4.37753 14.1696L3.74254 11.1822L2.76439 11.3901ZM15.1233 11.2362L14.8751 10.6788L13.9615 11.0855L14.2097 11.643L15.1233 11.2362ZM15 8C15 9.15804 14.7192 10.249 14.2224 11.21L15.1107 11.6692C15.6792 10.5697 16 9.32157 16 8H15ZM14.2224 11.21C13.3412 12.9143 11.7804 14.2101 9.90035 14.7391L10.1712 15.7017C12.322 15.0965 14.1043 13.6158 15.1107 11.6692L14.2224 11.21ZM9.90035 14.7391C9.29664 14.909 8.65936 15 8 15V16C8.75182 16 9.48021 15.8962 10.1712 15.7017L9.90035 14.7391ZM9.52035 15.5002L9.78578 15.6534L10.2858 14.7874L10.0203 14.6342L9.52035 15.5002Z" fill="#031427"/>
</svg>
