<svg width="14" height="15" viewBox="0 0 14 15" fill="none" xmlns="http://www.w3.org/2000/svg">
<path d="M13.9856 7.37252C13.9856 6.90736 13.9406 6.4272 13.8656 5.97705H7.36841V8.63294H11.0897C10.9396 9.48823 10.4444 10.2385 9.7092 10.7186L11.9299 12.4442C13.2354 11.2288 13.9856 9.45822 13.9856 7.37252Z" fill="#4280EF"/>
<path d="M7.36948 14.0948C9.23011 14.0948 10.7906 13.4796 11.931 12.4293L9.71027 10.7187C9.09506 11.1388 8.29979 11.3789 7.36948 11.3789C5.56887 11.3789 4.05336 10.1635 3.49817 8.54297L1.21741 10.2986C2.3878 12.6243 4.7586 14.0948 7.36948 14.0948Z" fill="#34A353"/>
<path d="M3.49762 8.5277C3.21252 7.67241 3.21252 6.74209 3.49762 5.88681L1.21685 4.11621C0.241519 6.06687 0.241519 8.36264 1.21685 10.2983L3.49762 8.5277Z" fill="#F6B704"/>
<path d="M7.36948 3.05101C8.34481 3.036 9.30513 3.41113 10.0104 4.08635L11.976 2.10569C10.7306 0.935293 9.08006 0.305081 7.36948 0.320086C4.7586 0.320086 2.3878 1.79058 1.21741 4.11636L3.49817 5.88696C4.05336 4.25141 5.56887 3.05101 7.36948 3.05101Z" fill="#E54335"/>
</svg>
