<?xml version="1.0" encoding="utf-8"?>

<!DOCTYPE svg PUBLIC "-//W3C//DTD SVG 1.1//EN" "http://www.w3.org/Graphics/SVG/1.1/DTD/svg11.dtd">
<!-- Uploaded to: SVG Repo, www.svgrepo.com, Generator: SVG Repo Mixer Tools -->
<svg height="16px" width="16px" version="1.1" id="_x32_" xmlns="http://www.w3.org/2000/svg" xmlns:xlink="http://www.w3.org/1999/xlink" 
	 viewBox="0 0 512 512"  xml:space="preserve">
<style type="text/css">
	.st0{fill:#000000;}
</style>
<g>
	<polygon class="st0" points="457.377,13.36 383.671,219.531 430.686,240.793 512,13.36 	"/>
	<path class="st0" d="M363.87,245.173c0,0-5.908,23.05-57.236,13.7c-44.586-8.124-118.086-15.022-177.331-7.296
		C39.32,263.312,0,287.122,0,324.935c0,35.192,40.118,168.668,191.614,173.705v-13.412l-9.025-19.121h-5.51
		c-3.552,0-6.433-2.88-6.433-6.433v-7.806c0-3.552,2.881-6.433,6.433-6.433h59.106c3.552,0,6.432,2.88,6.432,6.433v7.806
		c0,3.552-2.88,6.433-6.432,6.433h-5.51l-9.017,19.106v12.939c116.246-7.747,159.724-79.614,180.418-160.61l28.552-79.866
		l-61.314-27.717L363.87,245.173z M245.173,435.48h-77.074c-20.14-12.784-33.544-35.228-33.544-60.848
		c0-39.807,32.274-72.082,72.081-72.082c39.808,0,72.082,32.274,72.082,72.082C278.718,400.251,265.313,422.696,245.173,435.48z"/>
</g>
</svg>