<svg width="24" height="25" viewBox="0 0 24 25" fill="none" xmlns="http://www.w3.org/2000/svg">
<path d="M9 10.9453C10.1046 10.9453 11 10.0499 11 8.94531C11 7.84074 10.1046 6.94531 9 6.94531C7.89543 6.94531 7 7.84074 7 8.94531C7 10.0499 7.89543 10.9453 9 10.9453Z" stroke="#0B99FF" stroke-width="1.5" stroke-linecap="round" stroke-linejoin="round"/>
<path d="M13 2.94531H9C4 2.94531 2 4.94531 2 9.94531V15.9453C2 20.9453 4 22.9453 9 22.9453H15C20 22.9453 22 20.9453 22 15.9453V10.9453" stroke="#0B99FF" stroke-width="1.5" stroke-linecap="round" stroke-linejoin="round"/>
<path d="M18 8.94531V2.94531L20 4.94531" stroke="#0B99FF" stroke-width="1.5" stroke-linecap="round" stroke-linejoin="round"/>
<path d="M18 2.94531L16 4.94531" stroke="#0B99FF" stroke-width="1.5" stroke-linecap="round" stroke-linejoin="round"/>
<path d="M2.67 19.8959L7.6 16.5859C8.39 16.0559 9.53 16.1159 10.24 16.7259L10.57 17.0159C11.35 17.6859 12.61 17.6859 13.39 17.0159L17.55 13.4459C18.33 12.7759 19.59 12.7759 20.37 13.4459L22 14.8459" stroke="#0B99FF" stroke-width="1.5" stroke-linecap="round" stroke-linejoin="round"/>
</svg>
