<svg width="16" height="16" viewBox="0 0 16 16" fill="none" xmlns="http://www.w3.org/2000/svg">
<path fill-rule="evenodd" clip-rule="evenodd" d="M6 1.33399C6.37839 1.33354 6.75252 1.41382 7.09741 1.56948C7.4423 1.72515 7.75002 1.9526 8 2.23665C8.24998 1.9526 8.5577 1.72515 8.90259 1.56948C9.24748 1.41382 9.62161 1.33354 10 1.33399H10.3333C10.5985 1.33399 10.8529 1.43934 11.0404 1.62688C11.228 1.81442 11.3333 2.06877 11.3333 2.33399V2.66732C11.3333 3.15332 11.2033 3.60865 10.9767 4.00065H12.6667C13.0203 4.00065 13.3594 4.14113 13.6095 4.39118C13.8595 4.64123 14 4.98036 14 5.33399V7.33399C14 7.56803 13.9384 7.79795 13.8214 8.00063C13.7043 8.20332 13.536 8.37163 13.3333 8.48865V12.0007C13.3333 12.5311 13.1226 13.0398 12.7475 13.4149C12.3725 13.7899 11.8638 14.0007 11.3333 14.0007H4.66667C4.13623 14.0007 3.62753 13.7899 3.25245 13.4149C2.87738 13.0398 2.66667 12.5311 2.66667 12.0007V8.48865C2.46398 8.37163 2.29567 8.20332 2.17864 8.00063C2.06162 7.79795 2.00001 7.56803 2 7.33399V5.33399C2 4.98036 2.14048 4.64123 2.39052 4.39118C2.64057 4.14113 2.97971 4.00065 3.33333 4.00065H5.02333C4.78897 3.59543 4.66592 3.13544 4.66667 2.66732V2.33399C4.66667 2.06877 4.77202 1.81442 4.95956 1.62688C5.1471 1.43934 5.40145 1.33399 5.66667 1.33399H6ZM12 8.66732H8.66667V12.6673H11.3333L11.4113 12.6627C11.5601 12.6451 11.6987 12.5779 11.8047 12.472C11.9106 12.366 11.9778 12.2275 11.9953 12.0787L12 12.0007V8.66732ZM7.33333 8.66732H4V12.0007C4.00002 12.1639 4.05997 12.3215 4.16848 12.4436C4.27698 12.5656 4.4265 12.6435 4.58867 12.6627L4.66667 12.6673H7.33333V8.66732ZM12.6667 5.33399H8.66667V7.33399H12.6667V5.33399ZM7.33333 5.33399H3.33333V7.33399H7.33333V5.33399ZM6 2.66732C6 3.02094 6.14048 3.36008 6.39052 3.61013C6.64057 3.86018 6.97971 4.00065 7.33333 4.00065C7.33333 3.64703 7.19286 3.30789 6.94281 3.05784C6.69276 2.8078 6.35362 2.66732 6 2.66732ZM10 2.66732C9.64638 2.66732 9.30724 2.8078 9.05719 3.05784C8.80714 3.30789 8.66667 3.64703 8.66667 4.00065C9.02029 4.00065 9.35943 3.86018 9.60948 3.61013C9.85952 3.36008 10 3.02094 10 2.66732Z" fill="#0B99FF"/>
</svg>
