<svg width="38" height="39" viewBox="0 0 38 39" fill="none" xmlns="http://www.w3.org/2000/svg">
<path d="M23.75 36.5749H14.25C5.65246 36.5749 1.97913 32.9015 1.97913 24.304V14.804C1.97913 6.20654 5.65246 2.5332 14.25 2.5332H23.75C32.3475 2.5332 36.0208 6.20654 36.0208 14.804V24.304C36.0208 32.9015 32.3475 36.5749 23.75 36.5749ZM14.25 4.9082C6.95079 4.9082 4.35413 7.50487 4.35413 14.804V24.304C4.35413 31.6032 6.95079 34.1999 14.25 34.1999H23.75C31.0491 34.1999 33.6458 31.6032 33.6458 24.304V14.804C33.6458 7.50487 31.0491 4.9082 23.75 4.9082H14.25Z" fill="#CFCFCF"/>
<path d="M14.25 17.5755C11.8434 17.5755 9.89587 15.628 9.89587 13.2214C9.89587 10.8147 11.8434 8.86719 14.25 8.86719C16.6567 8.86719 18.6042 10.8147 18.6042 13.2214C18.6042 15.628 16.6567 17.5755 14.25 17.5755ZM14.25 11.2422C13.1575 11.2422 12.2709 12.1289 12.2709 13.2214C12.2709 14.3139 13.1575 15.2005 14.25 15.2005C15.3425 15.2005 16.2292 14.3139 16.2292 13.2214C16.2292 12.1289 15.3425 11.2422 14.25 11.2422Z" fill="#CFCFCF"/>
<path d="M4.22755 31.7464C3.84755 31.7464 3.46755 31.5564 3.24588 31.2239C2.88171 30.6856 3.02421 29.9414 3.57838 29.5772L11.3842 24.3364C13.0942 23.1806 15.4534 23.3231 17.005 24.6372L17.5275 25.0964C18.3192 25.7772 19.665 25.7772 20.4409 25.0964L27.0275 19.4439C28.7059 18.0031 31.35 18.0031 33.0442 19.4439L35.625 21.6606C36.1159 22.0881 36.1792 22.8322 35.7517 23.3389C35.3242 23.8297 34.58 23.8931 34.0734 23.4656L31.4925 21.2489C30.7009 20.5681 29.355 20.5681 28.5634 21.2489L21.9767 26.9014C20.2984 28.3422 17.6542 28.3422 15.96 26.9014L15.4375 26.4422C14.7092 25.8247 13.5059 25.7614 12.6984 26.3156L4.89255 31.5564C4.68671 31.6831 4.44921 31.7464 4.22755 31.7464Z" fill="#CFCFCF"/>
</svg>
