<svg width="16" height="16" viewBox="0 0 24 25" fill="none" xmlns="http://www.w3.org/2000/svg">
<path d="M12 17.2743C9.61001 17.2743 7.67001 15.3343 7.67001 12.9443C7.67001 10.5543 9.61001 8.61426 12 8.61426C14.39 8.61426 16.33 10.5543 16.33 12.9443C16.33 15.3343 14.39 17.2743 12 17.2743ZM12 10.1143C10.44 10.1143 9.17001 11.3843 9.17001 12.9443C9.17001 14.5043 10.44 15.7743 12 15.7743C13.56 15.7743 14.83 14.5043 14.83 12.9443C14.83 11.3843 13.56 10.1143 12 10.1143Z" fill="#082546"/>
<path d="M12 21.9643C8.23999 21.9643 4.68999 19.7643 2.24999 15.9443C1.18999 14.2943 1.18999 11.6043 2.24999 9.94432C4.69999 6.12432 8.24999 3.92432 12 3.92432C15.75 3.92432 19.3 6.12432 21.74 9.94432C22.8 11.5943 22.8 14.2843 21.74 15.9443C19.3 19.7643 15.75 21.9643 12 21.9643ZM12 5.42432C8.76999 5.42432 5.67999 7.36432 3.51999 10.7543C2.76999 11.9243 2.76999 13.9643 3.51999 15.1343C5.67999 18.5243 8.76999 20.4643 12 20.4643C15.23 20.4643 18.32 18.5243 20.48 15.1343C21.23 13.9643 21.23 11.9243 20.48 10.7543C18.32 7.36432 15.23 5.42432 12 5.42432Z" fill="#082546"/>
</svg>
