<svg width="20" height="21" viewBox="0 0 20 21" fill="none" xmlns="http://www.w3.org/2000/svg">
<g clip-path="url(#clip0_6166_29859)">
<path d="M13.5903 4.5999C13.0978 4.5999 12.8515 4.5999 12.6272 4.51666C12.596 4.50509 12.5653 4.49237 12.5351 4.47851C12.3176 4.37874 12.1435 4.2046 11.7952 3.85634C10.9936 3.05475 10.5928 2.65396 10.0997 2.61701C10.0334 2.61204 9.96679 2.61204 9.90048 2.61701C9.40733 2.65396 9.00654 3.05475 8.20496 3.85634C7.85669 4.2046 7.68256 4.37874 7.46506 4.47851C7.43485 4.49237 7.40413 4.50509 7.37297 4.51666C7.14862 4.5999 6.90236 4.5999 6.40984 4.5999H6.31899C5.0624 4.5999 4.43411 4.5999 4.04374 4.99027C3.65337 5.38064 3.65337 6.00893 3.65337 7.26552V7.35637C3.65337 7.84889 3.65337 8.09516 3.57012 8.31951C3.55856 8.35067 3.54584 8.38138 3.53198 8.41159C3.4322 8.62909 3.25807 8.80322 2.9098 9.15149C2.10822 9.95307 1.70743 10.3539 1.67047 10.847C1.66551 10.9133 1.66551 10.9799 1.67047 11.0462C1.70743 11.5394 2.10822 11.9402 2.9098 12.7417C3.25807 13.09 3.4322 13.2641 3.53198 13.4816C3.54584 13.5118 3.55856 13.5426 3.57012 13.5737C3.65337 13.7981 3.65337 14.0443 3.65337 14.5369V14.6277C3.65337 15.8843 3.65337 16.5126 4.04374 16.903C4.43411 17.2933 5.0624 17.2933 6.31899 17.2933H6.40984C6.90236 17.2933 7.14862 17.2933 7.37297 17.3766C7.40413 17.3881 7.43485 17.4009 7.46506 17.4147C7.68256 17.5145 7.85669 17.6886 8.20496 18.0369C9.00654 18.8385 9.40733 19.2393 9.90048 19.2762C9.96679 19.2812 10.0334 19.2812 10.0997 19.2762C10.5928 19.2393 10.9936 18.8385 11.7952 18.0369C12.1435 17.6886 12.3176 17.5145 12.5351 17.4147C12.5653 17.4009 12.596 17.3881 12.6272 17.3766C12.8515 17.2933 13.0978 17.2933 13.5903 17.2933H13.6812C14.9378 17.2933 15.5661 17.2933 15.9564 16.903C16.3468 16.5126 16.3468 15.8843 16.3468 14.6277V14.5369C16.3468 14.0443 16.3468 13.7981 16.43 13.5737C16.4416 13.5426 16.4543 13.5118 16.4682 13.4816C16.568 13.2641 16.7421 13.09 17.0904 12.7417C17.8919 11.9402 18.2927 11.5394 18.3297 11.0462C18.3347 10.9799 18.3347 10.9133 18.3297 10.847C18.2927 10.3539 17.8919 9.95307 17.0904 9.15149C16.7421 8.80323 16.568 8.62909 16.4682 8.41159C16.4543 8.38138 16.4416 8.35066 16.43 8.31951C16.3468 8.09516 16.3468 7.84889 16.3468 7.35637V7.26552C16.3468 6.00893 16.3468 5.38064 15.9564 4.99027C15.5661 4.5999 14.9378 4.5999 13.6812 4.5999H13.5903Z" stroke="#031427" stroke-width="1.5"/>
<path d="M10.2017 14.2799V10.9466C10.2017 10.5538 10.2017 10.3574 10.0797 10.2353C9.95766 10.1133 9.76125 10.1133 9.36841 10.1133" stroke="#031427" stroke-width="1.5" stroke-linecap="round" stroke-linejoin="round"/>
<path d="M9.99325 7.61328H10.0007" stroke="#031427" stroke-width="2" stroke-linecap="round" stroke-linejoin="round"/>
</g>
<defs>
<clipPath id="clip0_6166_29859">
<rect width="20" height="20" fill="white" transform="translate(0 0.945312)"/>
</clipPath>
</defs>
</svg>
