<svg width="16" height="17" viewBox="0 0 16 17" fill="none" xmlns="http://www.w3.org/2000/svg">
<path d="M8.00004 16.1107C4.04671 16.1107 0.833374 12.8973 0.833374 8.94401C0.833374 4.99068 4.04671 1.77734 8.00004 1.77734C11.9534 1.77734 15.1667 4.99068 15.1667 8.94401C15.1667 12.8973 11.9534 16.1107 8.00004 16.1107ZM8.00004 2.77734C4.60004 2.77734 1.83337 5.54401 1.83337 8.94401C1.83337 12.344 4.60004 15.1107 8.00004 15.1107C11.4 15.1107 14.1667 12.344 14.1667 8.94401C14.1667 5.54401 11.4 2.77734 8.00004 2.77734Z" fill="#082546"/>
<path d="M8 10.1107C7.72667 10.1107 7.5 9.88401 7.5 9.61068V6.27734C7.5 6.00401 7.72667 5.77734 8 5.77734C8.27333 5.77734 8.5 6.00401 8.5 6.27734V9.61068C8.5 9.88401 8.27333 10.1107 8 10.1107Z" fill="#082546"/>
<path d="M8.00004 12.2773C7.91337 12.2773 7.82671 12.2573 7.74671 12.2239C7.66671 12.1906 7.59337 12.1439 7.52671 12.0839C7.46671 12.0173 7.42004 11.9506 7.38671 11.8639C7.35337 11.7839 7.33337 11.6973 7.33337 11.6106C7.33337 11.5239 7.35337 11.4373 7.38671 11.3573C7.42004 11.2773 7.46671 11.2039 7.52671 11.1373C7.59337 11.0773 7.66671 11.0306 7.74671 10.9973C7.90671 10.9306 8.09337 10.9306 8.25337 10.9973C8.33337 11.0306 8.40671 11.0773 8.47337 11.1373C8.53337 11.2039 8.58004 11.2773 8.61337 11.3573C8.64671 11.4373 8.66671 11.5239 8.66671 11.6106C8.66671 11.6973 8.64671 11.7839 8.61337 11.8639C8.58004 11.9506 8.53337 12.0173 8.47337 12.0839C8.40671 12.1439 8.33337 12.1906 8.25337 12.2239C8.17337 12.2573 8.08671 12.2773 8.00004 12.2773Z" fill="#082546"/>
</svg>
