<svg width="22" height="18" viewBox="0 0 22 18" fill="none" xmlns="http://www.w3.org/2000/svg">
<path d="M21.4996 5.27134C21.4619 6.57695 20.9251 7.81843 19.9996 8.74009L16.7417 11.9998C16.2673 12.4769 15.7029 12.8551 15.0812 13.1126C14.4596 13.37 13.793 13.5016 13.1202 13.4998H13.1155C12.4312 13.4993 11.7539 13.3617 11.1236 13.095C10.4933 12.8284 9.9229 12.4381 9.446 11.9473C8.96909 11.4565 8.59538 10.8751 8.34695 10.2375C8.09852 9.59983 7.98039 8.91885 7.99956 8.23477C8.00515 8.03586 8.08954 7.84732 8.23414 7.71062C8.37875 7.57393 8.57174 7.50027 8.77065 7.50587C8.96957 7.51146 9.15811 7.59585 9.2948 7.74045C9.4315 7.88506 9.50515 8.07805 9.49956 8.27696C9.4859 8.76064 9.56934 9.24216 9.74493 9.69304C9.92052 10.1439 10.1847 10.555 10.5219 10.9021C10.8591 11.2492 11.2624 11.5251 11.708 11.7136C12.1537 11.9022 12.6326 11.9995 13.1164 11.9998C13.5921 12.001 14.0633 11.9079 14.5027 11.7259C14.9422 11.5439 15.3412 11.2766 15.6767 10.9395L18.9346 7.68165C19.6067 7.00103 19.9823 6.08213 19.9793 5.12556C19.9763 4.169 19.595 3.25246 18.9186 2.57606C18.2422 1.89967 17.3257 1.51834 16.3691 1.51535C15.4125 1.51236 14.4936 1.88794 13.813 2.56009L12.7817 3.59134C12.6399 3.72605 12.4511 3.80005 12.2556 3.79754C12.06 3.79504 11.8731 3.71624 11.7348 3.57793C11.5965 3.43963 11.5177 3.25278 11.5152 3.05721C11.5127 2.86163 11.5867 2.67282 11.7214 2.53103L12.7527 1.49978C13.2285 1.02383 13.7933 0.646288 14.4151 0.388701C15.0368 0.131115 15.7032 -0.00146484 16.3761 -0.00146484C17.0491 -0.00146484 17.7155 0.131115 18.3372 0.388701C18.9589 0.646288 19.5238 1.02383 19.9996 1.49978C20.4924 1.9938 20.8795 2.58293 21.1374 3.23133C21.3952 3.87972 21.5185 4.5738 21.4996 5.27134ZM9.21831 14.4054L8.18706 15.4366C7.85071 15.7752 7.4504 16.0436 7.00942 16.2261C6.56843 16.4086 6.09557 16.5016 5.61831 16.4998C4.90234 16.4992 4.20261 16.2864 3.60752 15.8883C3.01244 15.4902 2.54871 14.9247 2.27492 14.2631C2.00113 13.6016 1.92957 12.8737 2.06928 12.1715C2.20899 11.4693 2.55371 10.8243 3.05987 10.3179L6.31206 7.06009C6.8243 6.54515 7.47954 6.19613 8.19268 6.05836C8.90582 5.92059 9.64391 6.00043 10.3111 6.28752C10.9783 6.57461 11.5437 7.05568 11.934 7.66825C12.3242 8.28082 12.5213 8.99659 12.4996 9.72259C12.4968 9.82109 12.5135 9.91916 12.5487 10.0112C12.5839 10.1033 12.6368 10.1875 12.7046 10.259C12.7723 10.3306 12.8535 10.3881 12.9434 10.4283C13.0334 10.4685 13.1304 10.4905 13.2289 10.4932H13.2496C13.4449 10.4933 13.6327 10.4171 13.7727 10.2809C13.9128 10.1447 13.9942 9.95915 13.9996 9.76384C14.0174 9.06755 13.8937 8.37489 13.6359 7.72786C13.378 7.08083 12.9914 6.49292 12.4996 5.99977C11.5388 5.03942 10.236 4.49994 8.87753 4.49994C7.51909 4.49994 6.21626 5.03942 5.2555 5.99977L1.99956 9.25759C1.28352 9.97333 0.79573 10.8853 0.597818 11.8782C0.399907 12.871 0.500762 13.9003 0.887637 14.8359C1.27451 15.7715 1.93005 16.5714 2.77139 17.1345C3.61274 17.6977 4.60214 17.9988 5.61456 17.9998C6.28756 18.0017 6.95427 17.8701 7.57607 17.6127C8.19788 17.3552 8.76244 16.9769 9.23706 16.4998L10.2683 15.4685C10.3897 15.3256 10.4531 15.1423 10.446 14.9549C10.439 14.7675 10.362 14.5895 10.2302 14.4561C10.0984 14.3227 9.9214 14.2435 9.7341 14.2341C9.54679 14.2247 9.36277 14.2858 9.21831 14.4054Z" fill="#0B99FF"/>
</svg>
