<svg width="20" height="20" viewBox="0 0 20 20" fill="none" xmlns="http://www.w3.org/2000/svg">
<path fill-rule="evenodd" clip-rule="evenodd" d="M10 1.66797C11.9891 1.66797 13.8968 2.45814 15.3033 3.86467C16.7098 5.27119 17.5 7.17885 17.5 9.16797C17.5 11.7296 16.1033 13.8263 14.6317 15.3305C13.8963 16.0737 13.094 16.7477 12.235 17.3438L11.88 17.5855L11.7133 17.6963L11.3992 17.8963L11.1192 18.0671L10.7725 18.2688C10.5371 18.4028 10.2709 18.4732 10 18.4732C9.72913 18.4732 9.46291 18.4028 9.2275 18.2688L8.88083 18.0671L8.4475 17.8005L8.2875 17.6963L7.94583 17.4688C7.01915 16.8416 6.15589 16.1254 5.36833 15.3305C3.89667 13.8255 2.5 11.7296 2.5 9.16797C2.5 7.17885 3.29018 5.27119 4.6967 3.86467C6.10322 2.45814 8.01088 1.66797 10 1.66797ZM10 3.33464C8.4529 3.33464 6.96917 3.94922 5.87521 5.04318C4.78125 6.13714 4.16667 7.62087 4.16667 9.16797C4.16667 11.103 5.22667 12.8013 6.55917 14.1646C7.13218 14.7445 7.75145 15.2769 8.41083 15.7563L8.7925 16.028C8.91583 16.1138 9.03417 16.1938 9.14833 16.268L9.47333 16.4763L9.75917 16.6505L10 16.7913L10.3792 16.5671L10.685 16.3755C10.8475 16.2721 11.0225 16.1563 11.2075 16.028L11.5892 15.7563C12.2485 15.2769 12.8678 14.7445 13.4408 14.1646C14.7733 12.8021 15.8333 11.103 15.8333 9.16797C15.8333 7.62087 15.2188 6.13714 14.1248 5.04318C13.0308 3.94922 11.5471 3.33464 10 3.33464ZM10 5.83464C10.8841 5.83464 11.7319 6.18582 12.357 6.81095C12.9821 7.43607 13.3333 8.28391 13.3333 9.16797C13.3333 10.052 12.9821 10.8999 12.357 11.525C11.7319 12.1501 10.8841 12.5013 10 12.5013C9.11594 12.5013 8.2681 12.1501 7.64298 11.525C7.01786 10.8999 6.66667 10.052 6.66667 9.16797C6.66667 8.28391 7.01786 7.43607 7.64298 6.81095C8.2681 6.18582 9.11594 5.83464 10 5.83464ZM10 7.5013C9.55797 7.5013 9.13405 7.6769 8.82149 7.98946C8.50893 8.30202 8.33333 8.72594 8.33333 9.16797C8.33333 9.61 8.50893 10.0339 8.82149 10.3465C9.13405 10.659 9.55797 10.8346 10 10.8346C10.442 10.8346 10.866 10.659 11.1785 10.3465C11.4911 10.0339 11.6667 9.61 11.6667 9.16797C11.6667 8.72594 11.4911 8.30202 11.1785 7.98946C10.866 7.6769 10.442 7.5013 10 7.5013Z" fill="#F8F8F9"/>
</svg>
