<svg width="24" height="24" viewBox="0 0 24 24" fill="none" xmlns="http://www.w3.org/2000/svg">
<path d="M8.39001 18.4907V8.33071C8.39001 7.93071 8.51001 7.54071 8.73001 7.21071L11.46 3.15071C11.89 2.50071 12.96 2.04071 13.87 2.38071C14.85 2.71071 15.5 3.81071 15.29 4.79071L14.77 8.06071C14.73 8.36071 14.81 8.63071 14.98 8.84071C15.15 9.03071 15.4 9.15071 15.67 9.15071H19.78C20.57 9.15071 21.25 9.47071 21.65 10.0307C22.03 10.5707 22.1 11.2707 21.85 11.9807L19.39 19.4707C19.08 20.7107 17.73 21.7207 16.39 21.7207H12.49C11.82 21.7207 10.88 21.4907 10.45 21.0607L9.17001 20.0707C8.68001 19.7007 8.39001 19.1107 8.39001 18.4907Z" fill="#0B99FF"/>
<path d="M5.21 6.38086H4.18C2.63 6.38086 2 6.98086 2 8.46086V18.5209C2 20.0009 2.63 20.6009 4.18 20.6009H5.21C6.76 20.6009 7.39 20.0009 7.39 18.5209V8.46086C7.39 6.98086 6.76 6.38086 5.21 6.38086Z" fill="#0B99FF"/>
</svg>
