<svg width="24" height="24" viewBox="0 0 24 24" fill="none" xmlns="http://www.w3.org/2000/svg">
<path d="M16.8 2H14.2C11 2 9 4 9 7.2V11.25H15.25C15.66 11.25 16 11.59 16 12C16 12.41 15.66 12.75 15.25 12.75H9V16.8C9 20 11 22 14.2 22H16.79C19.99 22 21.99 20 21.99 16.8V7.2C22 4 20 2 16.8 2Z" fill="#0B99FF"/>
<path d="M4.56 11.2498L6.63 9.17984C6.78 9.02984 6.85 8.83984 6.85 8.64984C6.85 8.45984 6.78 8.25984 6.63 8.11984C6.34 7.82984 5.86 7.82984 5.57 8.11984L2.22 11.4698C1.93 11.7598 1.93 12.2398 2.22 12.5298L5.57 15.8798C5.86 16.1698 6.34 16.1698 6.63 15.8798C6.92 15.5898 6.92 15.1098 6.63 14.8198L4.56 12.7498H9V11.2498H4.56Z" fill="#0B99FF"/>
</svg>
