<svg width="24" height="24" viewBox="0 0 24 24" fill="none" xmlns="http://www.w3.org/2000/svg">
<path d="M12 3C16.4183 3 20 6.50102 20 10.8198C20 14.1238 17.625 17.7246 12.9355 21.6614C12.3975 22.1132 11.6025 22.1132 11.0623 21.6596L10.7523 21.397C6.27046 17.5639 4 14.0502 4 10.8198C4 6.50102 7.58172 3 12 3ZM12 4.20304C8.26146 4.20304 5.23077 7.16544 5.23077 10.8198C5.23077 13.6285 7.32176 16.8645 11.5607 20.4898L11.8663 20.7488C11.9432 20.8133 12.0568 20.8133 12.1336 20.7488C16.5776 17.0181 18.7692 13.6953 18.7692 10.8198C18.7692 7.16544 15.7385 4.20304 12 4.20304Z" fill="white"/>
<path d="M10.9783 7.99726L9.13027 9.43924C8.8217 9.67957 8.57141 10.1911 8.57141 10.5791V13.1231C8.57141 13.9197 9.21941 14.572 10.0148 14.572H13.9851C14.7806 14.572 15.4286 13.9197 15.4286 13.1266V10.6272C15.4286 10.2117 15.1508 9.67957 14.8114 9.44267L12.6926 7.95606C12.2126 7.6196 11.4411 7.63677 10.9783 7.99726Z" stroke="white" stroke-width="1.5" stroke-linecap="round" stroke-linejoin="round"/>
<path d="M12 12.8571V12" stroke="white" stroke-width="1.5" stroke-linecap="round" stroke-linejoin="round"/>
</svg>
