<svg width="24" height="25" viewBox="0 0 24 25" fill="none" xmlns="http://www.w3.org/2000/svg">
<path d="M2 11.4443V9.44434C2 5.94434 4 4.44434 7 4.44434H17C20 4.44434 22 5.94434 22 9.44434V15.4443C22 18.9443 20 20.4443 17 20.4443H12" stroke="#292D32" stroke-width="1.5" stroke-miterlimit="10" stroke-linecap="round" stroke-linejoin="round"/>
<path d="M12 14.9443C13.3807 14.9443 14.5 13.825 14.5 12.4443C14.5 11.0636 13.3807 9.94434 12 9.94434C10.6193 9.94434 9.5 11.0636 9.5 12.4443C9.5 13.825 10.6193 14.9443 12 14.9443Z" stroke="#292D32" stroke-width="1.5" stroke-miterlimit="10" stroke-linecap="round" stroke-linejoin="round"/>
<path d="M18.5 9.94434V14.9443" stroke="#292D32" stroke-width="1.5" stroke-miterlimit="10" stroke-linecap="round" stroke-linejoin="round"/>
<path d="M2 15.9443H7.34003C7.98003 15.9443 8.5 16.4643 8.5 17.1043V18.3843" stroke="#292D32" stroke-width="1.5" stroke-miterlimit="10" stroke-linecap="round" stroke-linejoin="round"/>
<path d="M3.21997 14.7244L2 15.9443L3.21997 17.1643" stroke="#292D32" stroke-width="1.5" stroke-miterlimit="10" stroke-linecap="round" stroke-linejoin="round"/>
<path d="M8.5 21.2244H3.15997C2.51997 21.2244 2 20.7044 2 20.0644V18.7844" stroke="#292D32" stroke-width="1.5" stroke-miterlimit="10" stroke-linecap="round" stroke-linejoin="round"/>
<path d="M7.28125 22.4446L8.50122 21.2247L7.28125 20.0046" stroke="#292D32" stroke-width="1.5" stroke-miterlimit="10" stroke-linecap="round" stroke-linejoin="round"/>
</svg>
