<svg width="24" height="25" viewBox="0 0 24 25" fill="none" xmlns="http://www.w3.org/2000/svg">
<path d="M9.91635 14.4026C9.91635 15.2109 10.5414 15.8609 11.308 15.8609H12.8747C13.5413 15.8609 14.083 15.2943 14.083 14.586C14.083 13.8276 13.7497 13.5526 13.258 13.3776L10.7497 12.5026C10.258 12.3276 9.92469 12.061 9.92469 11.2943C9.92469 10.5943 10.4663 10.0193 11.133 10.0193H12.6997C13.4663 10.0193 14.0914 10.6693 14.0914 11.4776" stroke="#082546" stroke-width="1.5" stroke-linecap="round" stroke-linejoin="round"/>
<path d="M11.9997 9.19434V16.6943" stroke="#082546" stroke-width="1.5" stroke-linecap="round" stroke-linejoin="round"/>
<path d="M20.3333 12.9444C20.3333 17.5444 16.6 21.2778 12 21.2778C7.39999 21.2778 3.66666 17.5444 3.66666 12.9444C3.66666 8.34442 7.39999 4.61108 12 4.61108" stroke="#082546" stroke-width="1.5" stroke-linecap="round" stroke-linejoin="round"/>
<path d="M20.3333 7.94442V4.61108H17" stroke="#082546" stroke-width="1.5" stroke-linecap="round" stroke-linejoin="round"/>
<path d="M16.1667 8.77775L20.3333 4.61108" stroke="#082546" stroke-width="1.5" stroke-linecap="round" stroke-linejoin="round"/>
</svg>
