<svg width="18" height="19" viewBox="0 0 18 19" fill="none" xmlns="http://www.w3.org/2000/svg">
<mask id="path-1-inside-1_448_14238" fill="white">
<path d="M3.75 12.0068C2.61 12.0068 1.6875 11.0843 1.6875 9.94434C1.6875 8.80434 2.61 7.88184 3.75 7.88184C4.89 7.88184 5.8125 8.80434 5.8125 9.94434C5.8125 11.0843 4.89 12.0068 3.75 12.0068ZM3.75 9.00684C3.2325 9.00684 2.8125 9.42684 2.8125 9.94434C2.8125 10.4618 3.2325 10.8818 3.75 10.8818C4.2675 10.8818 4.6875 10.4618 4.6875 9.94434C4.6875 9.42684 4.2675 9.00684 3.75 9.00684Z"/>
</mask>
<path d="M3.75 12.0068C2.61 12.0068 1.6875 11.0843 1.6875 9.94434C1.6875 8.80434 2.61 7.88184 3.75 7.88184C4.89 7.88184 5.8125 8.80434 5.8125 9.94434C5.8125 11.0843 4.89 12.0068 3.75 12.0068ZM3.75 9.00684C3.2325 9.00684 2.8125 9.42684 2.8125 9.94434C2.8125 10.4618 3.2325 10.8818 3.75 10.8818C4.2675 10.8818 4.6875 10.4618 4.6875 9.94434C4.6875 9.42684 4.2675 9.00684 3.75 9.00684Z" fill="#082546"/>
<path d="M3.75 10.5068C3.43843 10.5068 3.1875 10.2559 3.1875 9.94434H0.1875C0.1875 11.9128 1.78157 13.5068 3.75 13.5068V10.5068ZM3.1875 9.94434C3.1875 9.63276 3.43843 9.38184 3.75 9.38184V6.38184C1.78157 6.38184 0.1875 7.97591 0.1875 9.94434H3.1875ZM3.75 9.38184C4.06157 9.38184 4.3125 9.63276 4.3125 9.94434H7.3125C7.3125 7.97591 5.71843 6.38184 3.75 6.38184V9.38184ZM4.3125 9.94434C4.3125 10.2559 4.06157 10.5068 3.75 10.5068V13.5068C5.71843 13.5068 7.3125 11.9128 7.3125 9.94434H4.3125ZM3.75 7.50684C2.40407 7.50684 1.3125 8.59841 1.3125 9.94434H4.3125C4.3125 10.2553 4.06093 10.5068 3.75 10.5068V7.50684ZM1.3125 9.94434C1.3125 11.2903 2.40407 12.3818 3.75 12.3818V9.38184C4.06093 9.38184 4.3125 9.63341 4.3125 9.94434H1.3125ZM3.75 12.3818C5.09593 12.3818 6.1875 11.2903 6.1875 9.94434H3.1875C3.1875 9.63341 3.43907 9.38184 3.75 9.38184V12.3818ZM6.1875 9.94434C6.1875 8.59841 5.09593 7.50684 3.75 7.50684V10.5068C3.43907 10.5068 3.1875 10.2553 3.1875 9.94434H6.1875Z" fill="#082546" mask="url(#path-1-inside-1_448_14238)"/>
<path d="M14.25 12.0068C13.11 12.0068 12.1875 11.0843 12.1875 9.94434C12.1875 8.80434 13.11 7.88184 14.25 7.88184C15.39 7.88184 16.3125 8.80434 16.3125 9.94434C16.3125 11.0843 15.39 12.0068 14.25 12.0068ZM14.25 9.00684C13.7325 9.00684 13.3125 9.42684 13.3125 9.94434C13.3125 10.4618 13.7325 10.8818 14.25 10.8818C14.7675 10.8818 15.1875 10.4618 15.1875 9.94434C15.1875 9.42684 14.7675 9.00684 14.25 9.00684Z" fill="#082546"/>
<path d="M9 12.0068C7.86 12.0068 6.9375 11.0843 6.9375 9.94434C6.9375 8.80434 7.86 7.88184 9 7.88184C10.14 7.88184 11.0625 8.80434 11.0625 9.94434C11.0625 11.0843 10.14 12.0068 9 12.0068ZM9 9.00684C8.4825 9.00684 8.0625 9.42684 8.0625 9.94434C8.0625 10.4618 8.4825 10.8818 9 10.8818C9.5175 10.8818 9.9375 10.4618 9.9375 9.94434C9.9375 9.42684 9.5175 9.00684 9 9.00684Z" fill="#082546"/>
</svg>
