<svg width="24" height="25" viewBox="0 0 24 25" fill="none" xmlns="http://www.w3.org/2000/svg">
<path d="M12 11.0199C11.59 11.0199 11.25 10.6799 11.25 10.2699V6.93994C11.25 6.52994 11.59 6.18994 12 6.18994C12.41 6.18994 12.75 6.52994 12.75 6.93994V10.2699C12.75 10.6899 12.41 11.0199 12 11.0199Z" fill="#5E758A"/>
<path d="M12.02 20.85C9.43999 20.85 6.86999 20.44 4.41999 19.62C3.50999 19.32 2.81999 18.67 2.51999 17.85C2.21999 17.03 2.31999 16.09 2.80999 15.27L4.07999 13.15C4.35999 12.68 4.60999 11.8 4.60999 11.25V9.14999C4.60999 5.05999 7.92999 1.73999 12.02 1.73999C16.11 1.73999 19.43 5.05999 19.43 9.14999V11.25C19.43 11.79 19.68 12.68 19.96 13.15L21.23 15.27C21.7 16.05 21.78 16.98 21.47 17.83C21.16 18.68 20.48 19.33 19.62 19.62C17.17 20.45 14.6 20.85 12.02 20.85ZM12.02 3.24999C8.75999 3.24999 6.10999 5.89999 6.10999 9.15999V11.26C6.10999 12.07 5.78999 13.24 5.36999 13.93L4.09999 16.06C3.83999 16.49 3.77999 16.95 3.92999 17.35C4.07999 17.75 4.41999 18.05 4.89999 18.21C9.49999 19.74 14.56 19.74 19.16 18.21C19.59 18.07 19.92 17.75 20.07 17.33C20.23 16.91 20.18 16.45 19.95 16.06L18.68 13.94C18.26 13.25 17.94 12.08 17.94 11.27V9.16999C17.93 5.89999 15.28 3.24999 12.02 3.24999Z" fill="#5E758A"/>
<path d="M12 23.4001C10.93 23.4001 9.87998 22.9601 9.11998 22.2001C8.35998 21.4401 7.91998 20.3901 7.91998 19.3201H9.41998C9.41998 20.0001 9.69998 20.6601 10.18 21.1401C10.66 21.6201 11.32 21.9001 12 21.9001C13.42 21.9001 14.58 20.7401 14.58 19.3201H16.08C16.08 21.5701 14.25 23.4001 12 23.4001Z" fill="#5E758A"/>
</svg>
