<svg width="24" height="24" viewBox="0 0 24 24" fill="none" xmlns="http://www.w3.org/2000/svg">
<path d="M16 4.25C16 5.49 14.99 6.5 13.75 6.5H10.25C9.63 6.5 9.07 6.25 8.66 5.84C8.25 5.43 8 4.87 8 4.25C8 3.01 9.01 2 10.25 2H13.75C14.37 2 14.93 2.25 15.34 2.66C15.75 3.07 16 3.63 16 4.25Z" fill="#0B99FF"/>
<path d="M18.83 5.0307C18.6 4.8407 18.34 4.6907 18.06 4.5807C17.77 4.4707 17.48 4.7007 17.42 5.0007C17.08 6.7107 15.57 8.0007 13.75 8.0007H10.25C9.25 8.0007 8.31 7.6107 7.6 6.9007C7.08 6.3807 6.72 5.7207 6.58 5.0107C6.52 4.7107 6.22 4.4707 5.93 4.5907C4.77 5.0607 4 6.1207 4 8.2507V18.0007C4 21.0007 5.79 22.0007 8 22.0007H16C18.21 22.0007 20 21.0007 20 18.0007V8.2507C20 6.6207 19.55 5.6207 18.83 5.0307ZM8 12.2507H12C12.41 12.2507 12.75 12.5907 12.75 13.0007C12.75 13.4107 12.41 13.7507 12 13.7507H8C7.59 13.7507 7.25 13.4107 7.25 13.0007C7.25 12.5907 7.59 12.2507 8 12.2507ZM16 17.7507H8C7.59 17.7507 7.25 17.4107 7.25 17.0007C7.25 16.5907 7.59 16.2507 8 16.2507H16C16.41 16.2507 16.75 16.5907 16.75 17.0007C16.75 17.4107 16.41 17.7507 16 17.7507Z" fill="#0B99FF"/>
</svg>
