<svg width="25" height="24" viewBox="0 0 25 24" fill="none" xmlns="http://www.w3.org/2000/svg">
<path d="M8.5 5.25C8.36614 5.25 8.25 5.13386 8.25 5V2C8.25 1.86614 8.36614 1.75 8.5 1.75C8.63386 1.75 8.75 1.86614 8.75 2V5C8.75 5.13386 8.63386 5.25 8.5 5.25Z" stroke="#0B99FF"/>
<path d="M16.5 5.25C16.3661 5.25 16.25 5.13386 16.25 5V2C16.25 1.86614 16.3661 1.75 16.5 1.75C16.6339 1.75 16.75 1.86614 16.75 2V5C16.75 5.13386 16.6339 5.25 16.5 5.25Z" stroke="#0B99FF"/>
<path d="M16.5 22.25H8.5C6.76991 22.25 5.47362 21.754 4.6098 20.8902C3.74598 20.0264 3.25 18.7301 3.25 17V8.5C3.25 6.76991 3.74598 5.47362 4.6098 4.6098C5.47362 3.74598 6.76991 3.25 8.5 3.25H16.5C18.2301 3.25 19.5264 3.74598 20.3902 4.6098C21.254 5.47362 21.75 6.76991 21.75 8.5V17C21.75 18.7301 21.254 20.0264 20.3902 20.8902C19.5264 21.754 18.2301 22.25 16.5 22.25ZM8.5 3.75C6.99651 3.75 5.78256 4.11533 4.94895 4.94895C4.11533 5.78256 3.75 6.99651 3.75 8.5V17C3.75 18.5035 4.11533 19.7174 4.94895 20.5511C5.78256 21.3847 6.99651 21.75 8.5 21.75H16.5C18.0035 21.75 19.2174 21.3847 20.0511 20.5511C20.8847 19.7174 21.25 18.5035 21.25 17V8.5C21.25 6.99651 20.8847 5.78256 20.0511 4.94895C19.2174 4.11533 18.0035 3.75 16.5 3.75H8.5Z" stroke="#0B99FF"/>
<path d="M16.5 11.25H8.5C8.36614 11.25 8.25 11.1339 8.25 11C8.25 10.8661 8.36614 10.75 8.5 10.75H16.5C16.6339 10.75 16.75 10.8661 16.75 11C16.75 11.1339 16.6339 11.25 16.5 11.25Z" stroke="#0B99FF"/>
<path d="M12.5 16.25H8.5C8.36614 16.25 8.25 16.1339 8.25 16C8.25 15.8661 8.36614 15.75 8.5 15.75H12.5C12.6339 15.75 12.75 15.8661 12.75 16C12.75 16.1339 12.6339 16.25 12.5 16.25Z" fill="#082546" stroke="#0B99FF"/>
</svg>
