<svg width="20" height="21" viewBox="0 0 20 21" fill="none" xmlns="http://www.w3.org/2000/svg">
<path d="M15.8333 7.73633C14.3845 7.73633 13.2083 6.56019 13.2083 5.11133C13.2083 3.66247 14.3845 2.48633 15.8333 2.48633C17.2822 2.48633 18.4583 3.66247 18.4583 5.11133C18.4583 6.56019 17.2822 7.73633 15.8333 7.73633ZM15.8333 2.73633C14.5239 2.73633 13.4583 3.80185 13.4583 5.11133C13.4583 6.4208 14.5239 7.48633 15.8333 7.48633C17.1428 7.48633 18.2083 6.4208 18.2083 5.11133C18.2083 3.80185 17.1428 2.73633 15.8333 2.73633Z" fill="#292D32" stroke="#082546"/>
<path d="M9.99999 11.9023H5.83333C5.80318 11.9023 5.7719 11.8901 5.74626 11.8644C5.72061 11.8388 5.70833 11.8075 5.70833 11.7773C5.70833 11.7472 5.72061 11.7159 5.74626 11.6903C5.7719 11.6646 5.80318 11.6523 5.83333 11.6523H9.99999C10.0301 11.6523 10.0614 11.6646 10.0871 11.6903C10.1127 11.7159 10.125 11.7472 10.125 11.7773C10.125 11.8075 10.1127 11.8388 10.0871 11.8644C10.0614 11.8901 10.0301 11.9023 9.99999 11.9023Z" fill="#292D32" stroke="#082546"/>
<path d="M13.3333 15.2363H5.83333C5.80318 15.2363 5.7719 15.224 5.74626 15.1984C5.72061 15.1728 5.70833 15.1415 5.70833 15.1113C5.70833 15.0812 5.72061 15.0499 5.74626 15.0243C5.7719 14.9986 5.80318 14.9863 5.83333 14.9863H13.3333C13.3635 14.9863 13.3948 14.9986 13.4204 15.0243C13.446 15.0499 13.4583 15.0812 13.4583 15.1113C13.4583 15.1415 13.446 15.1728 13.4204 15.1984C13.3948 15.224 13.3635 15.2363 13.3333 15.2363Z" fill="#292D32" stroke="#082546"/>
<path d="M12.5 19.403H7.50001C5.2949 19.403 3.84035 18.93 2.92752 18.0172C2.01469 17.1043 1.54167 15.6498 1.54167 13.4447V8.44466C1.54167 6.23956 2.01469 4.785 2.92752 3.87217C3.84035 2.95934 5.2949 2.48633 7.50001 2.48633H11.6667C11.6968 2.48633 11.7281 2.49861 11.7537 2.52426C11.7794 2.5499 11.7917 2.58118 11.7917 2.61133C11.7917 2.64148 11.7794 2.67276 11.7537 2.6984C11.7281 2.72404 11.6968 2.73633 11.6667 2.73633H7.50001C5.5439 2.73633 4.06891 3.07907 3.10166 4.04632C2.13441 5.01357 1.79167 6.48855 1.79167 8.44466V13.4447C1.79167 15.4008 2.13441 16.8758 3.10166 17.843C4.06891 18.8103 5.5439 19.153 7.50001 19.153H12.5C14.4561 19.153 15.9311 18.8103 16.8984 17.843C17.8656 16.8758 18.2083 15.4008 18.2083 13.4447V9.278C18.2083 9.24785 18.2206 9.21657 18.2463 9.19092C18.2719 9.16528 18.3032 9.153 18.3333 9.153C18.3635 9.153 18.3948 9.16528 18.4204 9.19092C18.4461 9.21657 18.4583 9.24785 18.4583 9.278V13.4447C18.4583 15.6498 17.9853 17.1043 17.0725 18.0172C16.1597 18.93 14.7051 19.403 12.5 19.403Z" fill="#292D32" stroke="#082546"/>
</svg>
