<svg width="24" height="25" viewBox="0 0 24 25" fill="none" xmlns="http://www.w3.org/2000/svg">
<path d="M8.39999 9.44424C8.39999 9.11287 8.66862 8.84424 8.99999 8.84424H15C15.3314 8.84424 15.6 9.11287 15.6 9.44424C15.6 9.77561 15.3314 10.0442 15 10.0442H8.99999C8.66862 10.0442 8.39999 9.77561 8.39999 9.44424ZM8.99999 12.4442C8.66862 12.4442 8.39999 12.7129 8.39999 13.0442C8.39999 13.3756 8.66862 13.6442 8.99999 13.6442H15C15.3314 13.6442 15.6 13.3756 15.6 13.0442C15.6 12.7129 15.3314 12.4442 15 12.4442H8.99999ZM8.39999 16.6442C8.39999 16.3129 8.66862 16.0442 8.99999 16.0442H11.4C11.7314 16.0442 12 16.3129 12 16.6442C12 16.9756 11.7314 17.2442 11.4 17.2442H8.99999C8.66862 17.2442 8.39999 16.9756 8.39999 16.6442ZM7.19999 3.44424C7.19999 3.11287 7.46862 2.84424 7.79999 2.84424C8.13136 2.84424 8.39999 3.11287 8.39999 3.44424V4.04424H11.4V3.44424C11.4 3.11287 11.6686 2.84424 12 2.84424C12.3314 2.84424 12.6 3.11287 12.6 3.44424V4.04424H15.6V3.44424C15.6 3.11287 15.8686 2.84424 16.2 2.84424C16.5314 2.84424 16.8 3.11287 16.8 3.44424V4.04424H17.4C18.3941 4.04424 19.2 4.85013 19.2 5.84424V11.5222C18.8086 11.6899 18.4419 11.9335 18.1224 12.253L18 12.3754V5.84424C18 5.51287 17.7314 5.24424 17.4 5.24424H6.59999C6.26862 5.24424 5.99999 5.51287 5.99999 5.84424V20.2442C5.99999 20.5756 6.26862 20.8442 6.59999 20.8442H11.0646L10.8686 21.6281C10.8335 21.7683 10.8122 21.9074 10.8034 22.0442H6.59999C5.60588 22.0442 4.79999 21.2384 4.79999 20.2442V5.84424C4.79999 4.85013 5.60588 4.04424 6.59999 4.04424H7.19999V3.44424ZM18.971 13.1016L13.1757 18.8969C12.8378 19.2348 12.5981 19.6581 12.4822 20.1217L12.0328 21.9192C11.8374 22.7009 12.5455 23.4089 13.3272 23.2135L15.1246 22.7641C15.5882 22.6482 16.0116 22.4085 16.3495 22.0706L22.1448 16.2753C23.0212 15.3989 23.0212 13.978 22.1448 13.1016C21.2684 12.2251 19.8474 12.2251 18.971 13.1016Z" fill="#082546"/>
</svg>
