<svg width="40" height="40" viewBox="0 0 40 40" fill="none" xmlns="http://www.w3.org/2000/svg">
<path d="M36.6667 19.9987C36.6667 10.8154 29.1833 3.33203 20 3.33203C10.8167 3.33203 3.33334 10.8154 3.33334 19.9987C3.33334 24.832 5.41668 29.182 8.71668 32.232C8.71668 32.2487 8.71668 32.2487 8.70001 32.2654C8.86668 32.432 9.06668 32.5654 9.23334 32.7154C9.33334 32.7987 9.41668 32.882 9.51668 32.9487C9.81668 33.1987 10.15 33.432 10.4667 33.6654C10.5833 33.7487 10.6833 33.8154 10.8 33.8987C11.1167 34.1154 11.45 34.3154 11.8 34.4987C11.9167 34.5654 12.05 34.6487 12.1667 34.7154C12.5 34.8987 12.85 35.0654 13.2167 35.2154C13.35 35.282 13.4833 35.3487 13.6167 35.3987C13.9833 35.5487 14.35 35.682 14.7167 35.7987C14.85 35.8487 14.9833 35.8987 15.1167 35.932C15.5167 36.0487 15.9167 36.1487 16.3167 36.2487C16.4333 36.282 16.55 36.3154 16.6833 36.332C17.15 36.432 17.6167 36.4987 18.1 36.5487C18.1667 36.5487 18.2333 36.5654 18.3 36.582C18.8667 36.632 19.4333 36.6654 20 36.6654C20.5667 36.6654 21.1333 36.632 21.6833 36.582C21.75 36.582 21.8167 36.5654 21.8833 36.5487C22.3667 36.4987 22.8333 36.432 23.3 36.332C23.4167 36.3154 23.5333 36.2654 23.6667 36.2487C24.0667 36.1487 24.4833 36.0654 24.8667 35.932C25 35.882 25.1333 35.832 25.2667 35.7987C25.6333 35.6654 26.0167 35.5487 26.3667 35.3987C26.5 35.3487 26.6333 35.282 26.7667 35.2154C27.1167 35.0654 27.4667 34.8987 27.8167 34.7154C27.95 34.6487 28.0667 34.5654 28.1833 34.4987C28.5167 34.2987 28.85 34.1154 29.1833 33.8987C29.3 33.832 29.4 33.7487 29.5167 33.6654C29.85 33.432 30.1667 33.1987 30.4667 32.9487C30.5667 32.8654 30.65 32.782 30.75 32.7154C30.9333 32.5654 31.1167 32.4154 31.2833 32.2654C31.2833 32.2487 31.2833 32.2487 31.2667 32.232C34.5833 29.182 36.6667 24.832 36.6667 19.9987ZM28.2333 28.282C23.7167 25.2487 16.3167 25.2487 11.7667 28.282C11.0333 28.7654 10.4333 29.332 9.93334 29.9487C7.40001 27.382 5.83334 23.8654 5.83334 19.9987C5.83334 12.182 12.1833 5.83203 20 5.83203C27.8167 5.83203 34.1667 12.182 34.1667 19.9987C34.1667 23.8654 32.6 27.382 30.0667 29.9487C29.5833 29.332 28.9667 28.7654 28.2333 28.282Z" fill="#5E758A"/>
<path d="M20 11.5508C16.55 11.5508 13.75 14.3508 13.75 17.8008C13.75 21.1841 16.4 23.9341 19.9167 24.0341C19.9667 24.0341 20.0333 24.0341 20.0667 24.0341C20.1 24.0341 20.15 24.0341 20.1833 24.0341C20.2 24.0341 20.2167 24.0341 20.2167 24.0341C23.5833 23.9174 26.2333 21.1841 26.25 17.8008C26.25 14.3508 23.45 11.5508 20 11.5508Z" fill="#5E758A"/>
</svg>
