<svg width="20" height="20" viewBox="0 0 20 20" fill="none" xmlns="http://www.w3.org/2000/svg">
<path fill-rule="evenodd" clip-rule="evenodd" d="M6.81016 13.1909C10.0143 16.3951 12.9835 16.7459 13.8552 16.7784C14.9085 16.8167 15.9835 15.9567 16.4485 15.0759C15.7068 14.2059 14.741 13.5309 13.6835 12.7992C13.0593 13.4226 12.2902 14.5809 11.266 14.1659C10.6835 13.9317 9.24516 13.2692 7.9885 12.0117C6.731 10.7551 6.06933 9.31672 5.8335 8.73506C5.4185 7.70922 6.58016 6.93839 7.20433 6.31422C6.47266 5.23922 5.80933 4.24839 4.941 3.54422C4.04766 4.01089 3.18266 5.07756 3.22183 6.14506C3.25433 7.01672 3.60516 9.98589 6.81016 13.1909ZM13.7935 18.4442C12.5935 18.4001 9.19266 17.9301 5.631 14.3692C2.07016 10.8076 1.601 7.40756 1.556 6.20672C1.48933 4.37672 2.891 2.59922 4.51016 1.90506C4.70514 1.82086 4.91866 1.78881 5.12977 1.81204C5.34088 1.83527 5.54232 1.91298 5.71433 2.03756C7.05433 3.01506 7.9785 4.49589 8.77266 5.65589C8.93787 5.8971 9.01355 6.18848 8.98662 6.47959C8.95968 6.77071 8.83182 7.04325 8.62516 7.25006L7.49516 8.38089C7.75766 8.96006 8.29183 9.95839 9.16683 10.8334C10.0418 11.7084 11.0402 12.2426 11.6202 12.5051L12.7493 11.3751C12.9569 11.168 13.2306 11.0403 13.5227 11.0142C13.8148 10.9882 14.1067 11.0655 14.3477 11.2326C15.531 12.0526 16.921 12.9634 17.9343 14.2609C18.069 14.4341 18.1547 14.6404 18.1824 14.8581C18.2101 15.0758 18.1788 15.2969 18.0918 15.4984C17.3943 17.1259 15.6293 18.5117 13.7935 18.4442Z" fill="#0B99FF"/>
</svg>
