<svg width="24" height="25" viewBox="0 0 24 25" fill="none" xmlns="http://www.w3.org/2000/svg">
<path d="M7.25 7.94531H16.75V5.94531C16.75 3.94531 16 2.94531 13.75 2.94531H10.25C8 2.94531 7.25 3.94531 7.25 5.94531V7.94531Z" stroke="#0B99FF" stroke-width="1.5" stroke-miterlimit="10" stroke-linecap="round" stroke-linejoin="round"/>
<path d="M16 15.9453V19.9453C16 21.9453 15 22.9453 13 22.9453H11C9 22.9453 8 21.9453 8 19.9453V15.9453H16Z" stroke="#0B99FF" stroke-width="1.5" stroke-miterlimit="10" stroke-linecap="round" stroke-linejoin="round"/>
<path d="M21 10.9453V15.9453C21 17.9453 20 18.9453 18 18.9453H16V15.9453H8V18.9453H6C4 18.9453 3 17.9453 3 15.9453V10.9453C3 8.94531 4 7.94531 6 7.94531H18C20 7.94531 21 8.94531 21 10.9453Z" stroke="#0B99FF" stroke-width="1.5" stroke-miterlimit="10" stroke-linecap="round" stroke-linejoin="round"/>
<path d="M17 15.9453H15.79H7" stroke="#0B99FF" stroke-width="1.5" stroke-miterlimit="10" stroke-linecap="round" stroke-linejoin="round"/>
<path d="M7 11.9453H10" stroke="#0B99FF" stroke-width="1.5" stroke-miterlimit="10" stroke-linecap="round" stroke-linejoin="round"/>
</svg>
