<svg width="18" height="18" viewBox="0 0 18 18" fill="none" xmlns="http://www.w3.org/2000/svg">
<rect x="4.4624" y="12.2834" width="2" height="4.25" rx="0.5" transform="rotate(45 4.4624 12.2834)" stroke="#031427"/>
<path d="M4.82599 7.61132L4.62491 9.64287C4.5659 10.2391 4.77731 10.8304 5.20097 11.2541L6.90603 12.9591C7.3297 13.3828 7.92099 13.5942 8.51723 13.5352L10.5488 13.3341C11.0089 13.2886 11.4391 13.085 11.766 12.7581L15.2459 9.27817C16.0269 8.49713 16.0269 7.2308 15.2459 6.44975L11.7104 2.91421C10.9293 2.13317 9.66298 2.13316 8.88193 2.91421L5.40205 6.39409C5.0751 6.72105 4.87153 7.15119 4.82599 7.61132Z" stroke="#031427"/>
</svg>
