<svg width="12" height="13" viewBox="0 0 12 13" fill="none" xmlns="http://www.w3.org/2000/svg">
<g clip-path="url(#clip0_471_18677)">
<path d="M7.52503 3C8.0134 3.09528 8.46222 3.33413 8.81406 3.68597C9.1659 4.03781 9.40474 4.48663 9.50003 4.975M7.52503 1C8.53967 1.11272 9.48582 1.56709 10.2081 2.2885C10.9305 3.00992 11.386 3.9555 11.5 4.97M11 8.96V10.46C11.0006 10.5993 10.9721 10.7371 10.9163 10.8647C10.8605 10.9923 10.7787 11.1068 10.6761 11.2009C10.5735 11.2951 10.4523 11.3667 10.3204 11.4114C10.1885 11.456 10.0487 11.4725 9.91003 11.46C8.37144 11.2928 6.89353 10.7671 5.59503 9.925C4.38694 9.15733 3.3627 8.13309 2.59503 6.925C1.75002 5.6206 1.22415 4.1355 1.06003 2.59C1.04753 2.45173 1.06397 2.31238 1.10828 2.18081C1.15259 2.04924 1.22381 1.92834 1.31741 1.82581C1.41101 1.72328 1.52493 1.64135 1.65192 1.58526C1.77892 1.52917 1.9162 1.50013 2.05503 1.5H3.55503C3.79768 1.49761 4.03292 1.58354 4.21691 1.74177C4.40089 1.89999 4.52107 2.11972 4.55503 2.36C4.61834 2.84003 4.73575 3.31136 4.90503 3.765C4.9723 3.94396 4.98686 4.13846 4.94698 4.32544C4.9071 4.51242 4.81446 4.68406 4.68003 4.82L4.04503 5.455C4.75681 6.70677 5.79325 7.74322 7.04503 8.455L7.68003 7.82C7.81597 7.68557 7.9876 7.59292 8.17459 7.55305C8.36157 7.51317 8.55607 7.52773 8.73503 7.595C9.18866 7.76428 9.65999 7.88169 10.14 7.945C10.3829 7.97926 10.6047 8.1016 10.7633 8.28875C10.9219 8.47589 11.0061 8.71479 11 8.96Z" stroke="#111825" stroke-linecap="round" stroke-linejoin="round"/>
</g>
<defs>
<clipPath id="clip0_471_18677">
<rect width="12" height="12" fill="white" transform="translate(0 0.5)"/>
</clipPath>
</defs>
</svg>
