<svg width="20" height="20" viewBox="0 0 20 20" fill="none" xmlns="http://www.w3.org/2000/svg">
<path d="M4.3071 14.8274L4.30539 14.8258C4.04454 14.58 3.89716 14.1879 3.94931 13.7234C3.94933 13.7233 3.94934 13.7232 3.94936 13.7231L4.22673 11.2942C4.22674 11.2941 4.22674 11.2941 4.22675 11.294C4.22675 11.294 4.22676 11.2939 4.22676 11.2939C4.24546 11.1313 4.3086 10.9175 4.40847 10.7025C4.50873 10.4866 4.62967 10.3046 4.74008 10.1916L4.74013 10.1917L4.74594 10.1855L10.9034 3.66804L10.9035 3.66803C11.618 2.91164 12.2865 2.58757 12.9054 2.5701C13.5242 2.55262 14.2102 2.8385 14.9666 3.55313C15.723 4.26769 16.0471 4.93622 16.0646 5.55503C16.082 6.17389 15.7962 6.85985 15.0815 7.61631L8.92404 14.1338L8.92403 14.1338L8.92196 14.136C8.68174 14.3934 8.19654 14.6543 7.8491 14.7113L7.8491 14.7112L7.84581 14.7118L5.45741 15.1198C5.39548 15.1237 5.35073 15.1277 5.31307 15.131C5.25582 15.1361 5.21494 15.1397 5.15499 15.1397C4.80998 15.1397 4.5108 15.0212 4.3071 14.8274ZM10.994 3.73886L10.9938 3.73901L4.83792 10.2623C4.83762 10.2627 4.83733 10.263 4.83703 10.2633C4.70778 10.3993 4.60025 10.5884 4.52565 10.7482C4.44997 10.9104 4.37686 11.1099 4.35218 11.2889L4.35204 11.2888L4.35072 11.3004L4.07362 13.727C4.07355 13.7276 4.07347 13.7283 4.0734 13.7289C4.0311 14.0814 4.10845 14.4607 4.39168 14.7282C4.67741 14.998 5.05743 15.0452 5.39489 14.994L5.39491 14.9941L5.40417 14.9925L7.81917 14.58L7.81994 14.5799C8.0051 14.548 8.20411 14.4619 8.36092 14.3775C8.51802 14.293 8.69752 14.1754 8.82456 14.042L8.82594 14.0405L14.9834 7.52305L14.9844 7.52201C15.4644 7.0111 15.8898 6.4238 15.9319 5.72671C15.9756 5.00283 15.602 4.32129 14.8745 3.63731C14.2297 3.01729 13.5947 2.68217 12.9475 2.68217C12.15 2.68217 11.5208 3.18104 10.994 3.73886Z" stroke="#0B99FF"/>
<path d="M14.0236 8.59273L14.024 8.59277C14.0382 8.59415 14.0517 8.60077 14.0628 8.61448C14.0723 8.62609 14.0773 8.63944 14.0777 8.65324C14.0741 8.66707 14.0659 8.68115 14.0524 8.69304C14.0362 8.70737 14.0189 8.71263 14.0051 8.71263H14.005H14.0049H14.0048H14.0047H14.0046H14.0046H14.0045H14.0044H14.0043H14.0042H14.0041H14.004H14.0039H14.0038H14.0037H14.0037H14.0036H14.0035H14.0034H14.0033H14.0032H14.0031H14.003H14.0029H14.0028H14.0027H14.0026H14.0026H14.0025H14.0024H14.0023H14.0022H14.0021H14.002H14.0019H14.0018H14.0017H14.0016H14.0015H14.0014H14.0013H14.0012H14.0012H14.0011H14.001H14.0009H14.0008H14.0007H14.0006H14.0005H14.0004H14.0003H14.0002H14.0001H14H13.9999H13.9998H13.9997H13.9996H13.9995H13.9994H13.9993H13.9992H13.9991H13.999H13.9989H13.9988H13.9987H13.9986H13.9985H13.9985H13.9984H13.9983H13.9982H13.9981H13.998H13.9979H13.9978H13.9977H13.9976H13.9975H13.9974H13.9973H13.9972H13.9971H13.997H13.9969H13.9968H13.9967H13.9966H13.9965H13.9964H13.9963H13.9962H13.9961H13.996H13.9959H13.9958H13.9956H13.9955H13.9954H13.9953H13.9952H13.9951H13.995H13.9949H13.9948H13.9947H13.9946H13.9945H13.9944H13.9943H13.9942H13.9941H13.994H13.9939H13.9938H13.9937H13.9936H13.9935H13.9934H13.9933H13.9932H13.9931H13.993H13.9929H13.9928H13.9927H13.9926H13.9925H13.9923H13.9922H13.9921H13.992H13.9919H13.9918H13.9917H13.9916H13.9915H13.9914H13.9913H13.9912H13.9911H13.991H13.9909H13.9908H13.9907H13.9906H13.9905H13.9903H13.9902H13.9901H13.99H13.9899H13.9898H13.9897H13.9896H13.9895H13.9894H13.9893H13.9892H13.9891H13.989H13.9889H13.9887H13.9886H13.9885H13.9884H13.9883H13.9882H13.9881H13.988H13.9879H13.9878H13.9877H13.9876H13.9875H13.9873H13.9872H13.9871H13.987H13.9869H13.9868H13.9867H13.9866H13.9865H13.9864H13.9863H13.9862H13.9861H13.9859H13.9858H13.9857H13.9856H13.9855H13.9854H13.9853H13.9852H13.9851H13.985H13.9849H13.9847H13.9846H13.9845H13.9844H13.9843H13.9842H13.9841H13.984H13.9839H13.9838H13.9837H13.9835H13.9834H13.9833H13.9832H13.9831H13.983H13.9829H13.9828H13.9827H13.9826H13.9825H13.9823H13.9822H13.9821H13.982H13.9819H13.9818H13.9817H13.9816H13.9815H13.9814H13.9812H13.9811H13.981H13.9809H13.9808H13.9807H13.9806H13.9805H13.9804H13.9803H13.9802H13.98H13.9799H13.9798H13.9797H13.9796H13.9795H13.9794H13.9793H13.9792H13.9791H13.9789H13.9788H13.9787H13.9786H13.9785H13.9784H13.9783H13.9782H13.9781H13.978C11.8764 8.49299 10.1896 6.89378 9.86466 4.80415C9.86048 4.77175 9.8807 4.73658 9.92051 4.72679C9.95281 4.72484 9.98657 4.74664 9.99439 4.78751C10.3164 6.82401 11.9674 8.39047 14.0236 8.59273Z" stroke="#0B99FF"/>
<path d="M16.75 17.5625H3.25C3.23694 17.5625 3.22128 17.5573 3.20699 17.543C3.1927 17.5287 3.1875 17.5131 3.1875 17.5C3.1875 17.4869 3.1927 17.4713 3.20699 17.457C3.22128 17.4427 3.23694 17.4375 3.25 17.4375H16.75C16.7631 17.4375 16.7787 17.4427 16.793 17.457C16.8073 17.4713 16.8125 17.4869 16.8125 17.5C16.8125 17.5131 16.8073 17.5287 16.793 17.543C16.7787 17.5573 16.7631 17.5625 16.75 17.5625Z" stroke="#0B99FF"/>
</svg>
