<svg width="20" height="20" viewBox="0 0 20 20" fill="none" xmlns="http://www.w3.org/2000/svg">
<path d="M16.6667 5.8665V14.1332C16.6667 15.3998 16.55 16.2998 16.25 16.9415C16.25 16.9498 16.2417 16.9665 16.2333 16.9748C16.05 17.2082 15.8083 17.3248 15.525 17.3248C15.0833 17.3248 14.55 17.0332 13.975 16.4165C13.2917 15.6832 12.2416 15.7415 11.6416 16.5415L10.8 17.6582C10.4667 18.1082 10.025 18.3332 9.58333 18.3332C9.14167 18.3332 8.69998 18.1082 8.36665 17.6582L7.51668 16.5332C6.92502 15.7415 5.88333 15.6832 5.19999 16.4082L5.19165 16.4165C4.24998 17.4248 3.41668 17.5748 2.93335 16.9748C2.92502 16.9665 2.91667 16.9498 2.91667 16.9415C2.61667 16.2998 2.5 15.3998 2.5 14.1332V5.8665C2.5 4.59984 2.61667 3.69984 2.91667 3.05817C2.91667 3.04984 2.91668 3.0415 2.93335 3.03317C3.40835 2.42484 4.24998 2.57484 5.19165 3.58317L5.19999 3.59151C5.88333 4.31651 6.92502 4.25817 7.51668 3.4665L8.36665 2.34151C8.69998 1.89151 9.14167 1.6665 9.58333 1.6665C10.025 1.6665 10.4667 1.89151 10.8 2.34151L11.6416 3.45817C12.2416 4.25817 13.2917 4.3165 13.975 3.58317C14.55 2.9665 15.0833 2.67484 15.525 2.67484C15.8083 2.67484 16.05 2.79984 16.2333 3.03317C16.25 3.0415 16.25 3.04984 16.25 3.05817C16.55 3.69984 16.6667 4.59984 16.6667 5.8665Z" stroke="#082546" stroke-width="1.5" stroke-linecap="round" stroke-linejoin="round"/>
<path d="M6.66666 8.5415H13.3333" stroke="#082546" stroke-width="1.5" stroke-linecap="round" stroke-linejoin="round"/>
<path d="M6.66666 11.4585H11.6667" stroke="#082546" stroke-width="1.5" stroke-linecap="round" stroke-linejoin="round"/>
</svg>
