<svg width="18" height="19" viewBox="0 0 18 19" fill="none" xmlns="http://www.w3.org/2000/svg">
<rect y="0.945312" width="18" height="18" rx="9" fill="#0B99FF"/>
<path d="M7.68751 13.3006C7.57156 13.2991 7.46037 13.257 7.3758 13.1827L4.3133 10.3116C4.24353 10.2319 4.20788 10.1307 4.21327 10.0277C4.21867 9.92475 4.26472 9.82735 4.34248 9.75445C4.42024 9.68155 4.52414 9.63837 4.63398 9.63331C4.74381 9.62826 4.85173 9.66168 4.93673 9.72708L7.68751 12.3111L13.5008 6.85599C13.5858 6.79059 13.6937 6.75716 13.8035 6.76222C13.9134 6.76728 14.0173 6.81045 14.095 6.88335C14.1728 6.95625 14.2189 7.05366 14.2243 7.15663C14.2297 7.2596 14.194 7.36077 14.1242 7.44046L7.99923 13.1827C7.91465 13.257 7.80347 13.2991 7.68751 13.3006Z" fill="white"/>
</svg>
