<svg width="20" height="20" viewBox="0 0 20 20" fill="none" xmlns="http://www.w3.org/2000/svg">
<path d="M8.68672 17.7372L8.68674 17.7372L8.68369 17.7332L7.84203 16.6082L7.84167 16.6077C7.59205 16.2749 7.23201 16.0532 6.8166 16.0255C6.55929 16.0083 6.31845 16.0733 6.10767 16.1889L5.93806 16.0401L5.26837 16.7827L5.33942 16.8485C4.94638 17.1886 4.61904 17.3432 4.36967 17.4082C4.05164 17.4912 3.82118 17.4388 3.68419 17.3845L3.68123 17.3833C3.54443 17.3301 3.33396 17.2077 3.15215 16.9142C2.96745 16.616 2.79167 16.1075 2.79167 15.2493V5.86602C2.79167 4.02933 3.065 3.00166 3.6248 2.40951C4.17616 1.82629 5.12655 1.54102 6.85001 1.54102H13.1417C14.8651 1.54102 15.8155 1.82629 16.3669 2.40951C16.9267 3.00166 17.2 4.02933 17.2 5.86602V15.2493C17.2 16.1027 17.0245 16.6094 16.8395 16.9079C16.6584 17.2004 16.4475 17.327 16.3053 17.3854C16.1681 17.4393 15.9384 17.4907 15.622 17.4082C15.2996 17.3242 14.8469 17.0904 14.2905 16.4998C14.0023 16.1887 13.603 16.0058 13.1834 16.0338C12.7735 16.0611 12.4033 16.2782 12.15 16.616L12.1497 16.6165L11.308 17.7415L11.308 17.7415L11.3042 17.7466C10.9638 18.2139 10.483 18.4577 10 18.4577C9.5184 18.4577 9.03662 18.215 8.68672 17.7372ZM8.03258 16.4567L8.03257 16.4567L8.03441 16.4591L8.88408 17.5837C9.16268 17.9532 9.55834 18.1889 10.0042 18.1889C10.45 18.1889 10.8457 17.9532 11.1243 17.5837L11.1254 17.5822L11.967 16.4572L11.9674 16.4567C12.2765 16.0423 12.7266 15.7985 13.1933 15.7736C13.6594 15.7488 14.1272 15.9401 14.4841 16.3234L14.4854 16.3248C14.8287 16.6907 15.1365 16.9242 15.4072 17.0568C15.6573 17.1792 15.956 17.2525 16.2229 17.1487L16.2229 17.1488L16.234 17.1442C16.4065 17.0723 16.5254 16.942 16.6034 16.8284C16.6855 16.7088 16.7498 16.5678 16.7998 16.4166C16.8999 16.1137 16.9583 15.7206 16.9583 15.2493V5.86602C16.9583 5.10596 16.9258 4.46749 16.8236 3.94273C16.7208 3.41462 16.5402 2.96229 16.2149 2.61076C15.8862 2.25566 15.4565 2.05366 14.9519 1.93899C14.4553 1.82614 13.8553 1.79102 13.15 1.79102H6.85001C6.14469 1.79102 5.5447 1.82614 5.04806 1.93899C4.54347 2.05366 4.11381 2.25566 3.78514 2.61076C3.45978 2.96229 3.27923 3.41462 3.17641 3.94273C3.07424 4.46749 3.04167 5.10596 3.04167 5.86602V15.2493C3.04167 15.7241 3.09998 16.1194 3.20025 16.4229C3.25024 16.5742 3.31505 16.716 3.39859 16.8359C3.47732 16.9489 3.60009 17.0815 3.78004 17.1498C4.04623 17.252 4.34367 17.1787 4.59278 17.0568C4.86337 16.9243 5.17089 16.691 5.51398 16.3255C5.85914 15.9608 6.29676 15.7743 6.73334 15.7743H6.73353H6.73373H6.73393H6.73412H6.73432H6.73451H6.73471H6.73491H6.7351H6.7353H6.7355H6.7357H6.73589H6.73609H6.73629H6.73649H6.73669H6.73688H6.73708H6.73728H6.73748H6.73768H6.73788H6.73808H6.73828H6.73848H6.73868H6.73888H6.73908H6.73928H6.73948H6.73968H6.73988H6.74008H6.74029H6.74049H6.74069H6.74089H6.74109H6.7413H6.7415H6.7417H6.7419H6.74211H6.74231H6.74251H6.74272H6.74292H6.74312H6.74333H6.74353H6.74374H6.74394H6.74414H6.74435H6.74455H6.74476H6.74496H6.74517H6.74537H6.74558H6.74578H6.74599H6.7462H6.7464H6.74661H6.74682H6.74702H6.74723H6.74744H6.74764H6.74785H6.74806H6.74826H6.74847H6.74868H6.74889H6.74909H6.7493H6.74951H6.74972H6.74993H6.75014H6.75034H6.75055H6.75076H6.75097H6.75118H6.75139H6.7516H6.75181H6.75202H6.75223H6.75244H6.75265H6.75286H6.75307H6.75328H6.75349H6.7537H6.75391H6.75412H6.75433H6.75454H6.75475H6.75497H6.75518H6.75539H6.7556H6.75581H6.75602H6.75624H6.75645H6.75666H6.75687H6.75708H6.7573H6.75751H6.75772H6.75793H6.75815H6.75836H6.75857H6.75879H6.759H6.75921H6.75943H6.75964H6.75985H6.76007H6.76028H6.7605H6.76071H6.76092H6.76114H6.76135H6.76157H6.76178H6.762H6.76221H6.76243H6.76264H6.76286H6.76307H6.76329H6.7635H6.76372H6.76393H6.76415H6.76436H6.76458H6.76479H6.76501H6.76522H6.76544H6.76566H6.76587H6.76609H6.7663H6.76652H6.76674H6.76695H6.76717H6.76739H6.7676H6.76782H6.76804H6.76825H6.76847H6.76869H6.7689H6.76912H6.76934H6.76956H6.76977H6.76999H6.77021H6.77043H6.77064H6.77086H6.77108H6.7713H6.77151H6.77173H6.77195H6.77217H6.77239H6.7726H6.77282H6.77304H6.77326H6.77348H6.77369H6.77391H6.77413H6.77435H6.77457H6.77479H6.775H6.77522H6.77544H6.77566H6.77588H6.7761H6.77632H6.77653H6.77675H6.77697H6.77719H6.77741H6.77763H6.77785H6.77807H6.77829H6.77851H6.77872H6.77894H6.77916H6.77938H6.7796H6.77982H6.78004H6.78026H6.78048H6.7807H6.78092H6.78114H6.78136H6.78158H6.78179H6.78201H6.78223H6.78245H6.78267H6.78289H6.78311H6.78333H6.78355H6.78377H6.78399H6.78421H6.78443H6.78465H6.78487H6.78509H6.78531H6.78553H6.78575H6.78597H6.78619H6.78641H6.78663H6.78685H6.78707H6.78729H6.78751H6.78772H6.78794H6.78816H6.78838H6.7886H6.78882H6.78904H6.78926H6.78948H6.7897H6.78992H6.79014H6.79036H6.79058H6.7908H6.79102H6.79124H6.79146H6.79168H6.7919H6.79212H6.79234H6.79256H6.79278H6.793H6.79322H6.79344H6.79365H6.79387H6.79409H6.79431H6.79453H6.79475H6.79497H6.79519H6.79541H6.79563H6.79585H6.79607H6.79629H6.79651H6.79672H6.79694H6.79716H6.79738H6.7976H6.79782H6.79804H6.79826H6.79848H6.7987H6.79891H6.79913H6.79935H6.79957H6.79979H6.80001H6.80023H6.80044H6.80066H6.80088H6.8011H6.80132H6.80154H6.80175H6.80197H6.80219H6.80241H6.80263H6.80284H6.80306H6.80328H6.8035H6.80371H6.80393H6.80415H6.80437H6.80458H6.8048H6.80502H6.80524H6.80545H6.80567H6.80589H6.80611H6.80632H6.80654H6.80676H6.80697H6.80719H6.80741H6.80762H6.80784H6.80806H6.80827H6.80849H6.80871H6.80892H6.80914H6.80935H6.80957H6.80979H6.81H6.81022H6.81043H6.81065H6.81086H6.81108H6.81129H6.81151H6.81173H6.81194H6.81216H6.81237H6.81258H6.8128H6.81301H6.81323H6.81344H6.81366H6.81387H6.81409H6.8143H6.81451H6.81473H6.81494H6.81516H6.81537H6.81558H6.8158H6.81601H6.81622H6.81644H6.81665H6.81686H6.81708H6.81729H6.8175H6.81771H6.81793H6.81814H6.81835H6.81856H6.81878H6.81899H6.8192H6.81941H6.81962H6.81983H6.82004H6.82026H6.82047H6.82068H6.82089H6.8211H6.82131H6.82152H6.82173H6.82194H6.82215H6.82236H6.82257H6.82278H6.82299H6.8232H6.82341H6.82362H6.82383H6.82404H6.82425H6.82446H6.82467H6.82487H6.82508H6.82529H6.8255H6.82571H6.82592H6.82612H6.82633H6.82654H6.82675H6.82695H6.82716C7.28042 15.8028 7.72565 16.0452 8.03258 16.4567Z" stroke="#0B99FF"/>
<path d="M12.5 11.1667C12.3127 11.1667 12.1667 11.0188 12.1667 10.8333C12.1667 10.6511 12.3178 10.5 12.5 10.5C12.6822 10.5 12.8333 10.6511 12.8333 10.8333C12.8333 11.0188 12.6873 11.1667 12.5 11.1667Z" stroke="#0B99FF"/>
<path d="M7.50001 7.00065C7.31274 7.00065 7.16667 6.85278 7.16667 6.66732C7.16667 6.48513 7.31781 6.33398 7.50001 6.33398C7.6822 6.33398 7.83334 6.48513 7.83334 6.66732C7.83334 6.85278 7.68727 7.00065 7.50001 7.00065Z" stroke="#0B99FF"/>
<path d="M7.19167 12.1258C7.03334 12.1258 6.87501 12.0674 6.75001 11.9424C6.50834 11.7008 6.50834 11.3008 6.75001 11.0591L12.3583 5.45078C12.6 5.20911 13 5.20911 13.2417 5.45078C13.4833 5.69245 13.4833 6.09245 13.2417 6.33411L7.63334 11.9424C7.51667 12.0674 7.35834 12.1258 7.19167 12.1258Z" fill="#0B99FF"/>
</svg>
