<svg width="20" height="20" viewBox="0 0 20 20" fill="none" xmlns="http://www.w3.org/2000/svg">
<path d="M17.0833 5.8665C17.0833 2.50817 16.3 1.6665 13.15 1.6665H6.84996C3.69996 1.6665 2.91663 2.50817 2.91663 5.8665V15.2498C2.91663 17.4665 4.13329 17.9915 5.60829 16.4082L5.61663 16.3998C6.29996 15.6748 7.34163 15.7332 7.93329 16.5248L8.77496 17.6498C9.44996 18.5415 10.5416 18.5415 11.2166 17.6498L12.0583 16.5248C12.6583 15.7248 13.7 15.6665 14.3833 16.3998C15.8666 17.9832 17.075 17.4582 17.075 15.2415V9.1665" stroke="#0B99FF" stroke-width="1.5" stroke-linecap="round" stroke-linejoin="round"/>
<path d="M6.66663 5.8335H13.3333" stroke="#0B99FF" stroke-width="1.5" stroke-linecap="round" stroke-linejoin="round"/>
<path d="M7.5 9.1665H12.5" stroke="#0B99FF" stroke-width="1.5" stroke-linecap="round" stroke-linejoin="round"/>
</svg>
