<svg width="20" height="21" viewBox="0 0 20 21" fill="none" xmlns="http://www.w3.org/2000/svg">
<path d="M13.1583 16.2197C12.5333 16.253 11.9583 16.578 11.5583 17.103L13.1583 16.2197ZM13.1583 16.2197C13.775 16.1863 14.3917 16.4447 14.8417 16.928L13.1583 16.2197ZM8.68471 18.6882L8.68369 18.6868L7.84203 17.5618L7.84167 17.5613C7.59205 17.2285 7.23201 17.0068 6.8166 16.9791L6.8083 16.9785L6.8 16.9783C6.55603 16.9701 6.32225 17.0301 6.11308 17.142L5.94174 16.9887L5.26837 17.728L5.3405 17.7948C4.95 18.1341 4.62297 18.2885 4.37308 18.3535C4.05354 18.4366 3.82084 18.384 3.68419 18.3298L3.68123 18.3287C3.54443 18.2755 3.33396 18.153 3.15215 17.8595C2.96745 17.5613 2.79167 17.0528 2.79167 16.1947V6.81133C2.79167 4.97465 3.065 3.94697 3.6248 3.35482C4.17616 2.7716 5.12655 2.48633 6.85001 2.48633H13.15C14.8735 2.48633 15.8238 2.7716 16.3752 3.35482C16.935 3.94697 17.2083 4.97465 17.2083 6.81133V16.1947C17.2083 17.048 17.0328 17.5547 16.8479 17.8532C16.6667 18.1457 16.4558 18.2723 16.3137 18.3307C16.1764 18.3846 15.9467 18.4361 15.6303 18.3535C15.308 18.2695 14.8553 18.0357 14.2988 17.4451C14.0237 17.148 13.6412 16.9392 13.1851 16.9796C12.7779 17.0088 12.4103 17.2254 12.1583 17.5613L12.158 17.5618L11.3163 18.6868L11.3153 18.6882C10.9659 19.1586 10.4751 19.403 10 19.403C9.5249 19.403 9.03414 19.1586 8.68471 18.6882ZM11.9573 17.4044C12.2777 16.9848 12.7218 16.7437 13.185 16.719L13.1853 16.7189C13.6436 16.6942 14.1194 16.886 14.4757 17.2687L14.477 17.2701C14.8214 17.6371 15.1315 17.8703 15.4029 18.0025C15.6472 18.1215 15.9532 18.2017 16.2237 18.0903L16.2256 18.0895C16.3981 18.0177 16.5171 17.8873 16.5951 17.7737C16.6771 17.6541 16.7415 17.5131 16.7914 17.362C16.8915 17.059 16.95 16.6659 16.95 16.1947V6.81133C16.95 6.05127 16.9174 5.4128 16.8153 4.88804C16.7124 4.35993 16.5319 3.9076 16.2065 3.55607C15.8779 3.20097 15.4482 2.99897 14.9436 2.88431C14.447 2.77145 13.847 2.73633 13.1417 2.73633H6.85001C6.14469 2.73633 5.5447 2.77145 5.04806 2.88431C4.54347 2.99897 4.11381 3.20097 3.78514 3.55607C3.45978 3.9076 3.27923 4.35993 3.17641 4.88804C3.07424 5.4128 3.04167 6.05127 3.04167 6.81133V16.1947C3.04167 16.6694 3.09998 17.0648 3.20025 17.3682C3.25024 17.5195 3.31505 17.6613 3.39859 17.7812C3.47667 17.8933 3.59806 18.0246 3.77559 18.0934C4.04418 18.2002 4.34675 18.1204 4.58873 18.0025C4.85911 17.8708 5.16779 17.639 5.51047 17.2745C5.87788 16.9021 6.31044 16.7197 6.73334 16.7197H6.73353H6.73373H6.73393H6.73412H6.73432H6.73451H6.73471H6.73491H6.7351H6.7353H6.7355H6.7357H6.73589H6.73609H6.73629H6.73649H6.73669H6.73688H6.73708H6.73728H6.73748H6.73768H6.73788H6.73808H6.73828H6.73848H6.73868H6.73888H6.73908H6.73928H6.73948H6.73968H6.73988H6.74008H6.74029H6.74049H6.74069H6.74089H6.74109H6.7413H6.7415H6.7417H6.7419H6.74211H6.74231H6.74251H6.74272H6.74292H6.74312H6.74333H6.74353H6.74374H6.74394H6.74414H6.74435H6.74455H6.74476H6.74496H6.74517H6.74537H6.74558H6.74578H6.74599H6.7462H6.7464H6.74661H6.74682H6.74702H6.74723H6.74744H6.74764H6.74785H6.74806H6.74826H6.74847H6.74868H6.74889H6.74909H6.7493H6.74951H6.74972H6.74993H6.75014H6.75034H6.75055H6.75076H6.75097H6.75118H6.75139H6.7516H6.75181H6.75202H6.75223H6.75244H6.75265H6.75286H6.75307H6.75328H6.75349H6.7537H6.75391H6.75412H6.75433H6.75454H6.75475H6.75497H6.75518H6.75539H6.7556H6.75581H6.75602H6.75624H6.75645H6.75666H6.75687H6.75708H6.7573H6.75751H6.75772H6.75793H6.75815H6.75836H6.75857H6.75879H6.759H6.75921H6.75943H6.75964H6.75985H6.76007H6.76028H6.7605H6.76071H6.76092H6.76114H6.76135H6.76157H6.76178H6.762H6.76221H6.76243H6.76264H6.76286H6.76307H6.76329H6.7635H6.76372H6.76393H6.76415H6.76436H6.76458H6.76479H6.76501H6.76522H6.76544H6.76566H6.76587H6.76609H6.7663H6.76652H6.76674H6.76695H6.76717H6.76739H6.7676H6.76782H6.76804H6.76825H6.76847H6.76869H6.7689H6.76912H6.76934H6.76956H6.76977H6.76999H6.77021H6.77043H6.77064H6.77086H6.77108H6.7713H6.77151H6.77173H6.77195H6.77217H6.77239H6.7726H6.77282H6.77304H6.77326H6.77348H6.77369H6.77391H6.77413H6.77435H6.77457H6.77479H6.775H6.77522H6.77544H6.77566H6.77588H6.7761H6.77632H6.77653H6.77675H6.77697H6.77719H6.77741H6.77763H6.77785H6.77807H6.77829H6.77851H6.77872H6.77894H6.77916H6.77938H6.7796H6.77982H6.78004H6.78026H6.78048H6.7807H6.78092H6.78114H6.78136H6.78158H6.78179H6.78201H6.78223H6.78245H6.78267H6.78289H6.78311H6.78333H6.78355H6.78377H6.78399H6.78421H6.78443H6.78465H6.78487H6.78509H6.78531H6.78553H6.78575H6.78597H6.78619H6.78641H6.78663H6.78685H6.78707H6.78729H6.78751H6.78772H6.78794H6.78816H6.78838H6.7886H6.78882H6.78904H6.78926H6.78948H6.7897H6.78992H6.79014H6.79036H6.79058H6.7908H6.79102H6.79124H6.79146H6.79168H6.7919H6.79212H6.79234H6.79256H6.79278H6.793H6.79322H6.79344H6.79365H6.79387H6.79409H6.79431H6.79453H6.79475H6.79497H6.79519H6.79541H6.79563H6.79585H6.79607H6.79629H6.79651H6.79672H6.79694H6.79716H6.79738H6.7976H6.79782H6.79804H6.79826H6.79848H6.7987H6.79891H6.79913H6.79935H6.79957H6.79979H6.80001H6.80023H6.80044H6.80066H6.80088H6.8011H6.80132H6.80154H6.80175H6.80197H6.80219H6.80241H6.80263H6.80284H6.80306H6.80328H6.8035H6.80371H6.80393H6.80415H6.80437H6.80458H6.8048H6.80502H6.80524H6.80545H6.80567H6.80589H6.80611H6.80632H6.80654H6.80676H6.80697H6.80719H6.80741H6.80762H6.80784H6.80806H6.80827H6.80849H6.80871H6.80892H6.80914H6.80935H6.80957H6.80979H6.81H6.81022H6.81043H6.81065H6.81086H6.81108H6.81129H6.81151H6.81173H6.81194H6.81216H6.81237H6.81258H6.8128H6.81301H6.81323H6.81344H6.81366H6.81387H6.81409H6.8143H6.81451H6.81473H6.81494H6.81516H6.81537H6.81558H6.8158H6.81601H6.81622H6.81644H6.81665H6.81686H6.81708H6.81729H6.8175H6.81771H6.81793H6.81814H6.81835H6.81856H6.81878H6.81899H6.8192H6.81941H6.81962H6.81983H6.82004H6.82026H6.82047H6.82068H6.82089H6.8211H6.82131H6.82152H6.82173H6.82194H6.82215H6.82236H6.82257H6.82278H6.82299H6.8232H6.82341H6.82362H6.82383H6.82404H6.82425H6.82446H6.82467H6.82487H6.82508H6.82529H6.8255H6.82571H6.82592H6.82612H6.82633H6.82654H6.82675H6.82695H6.82716C7.28042 16.7481 7.72565 16.9906 8.03258 17.402L8.03298 17.4025L8.87465 18.5275L8.87574 18.529C9.15434 18.8985 9.55001 19.1342 9.99584 19.1342C10.4417 19.1342 10.8373 18.8985 11.1159 18.529L11.117 18.5275L11.9561 17.406C11.9565 17.4055 11.9569 17.4049 11.9573 17.4044Z" fill="#292D32" stroke="#082546"/>
<path d="M13.3333 6.90234H6.66667C6.63652 6.90234 6.60524 6.89006 6.5796 6.86442C6.55396 6.83877 6.54167 6.80749 6.54167 6.77734C6.54167 6.7472 6.55396 6.71592 6.5796 6.69027C6.60524 6.66463 6.63652 6.65234 6.66667 6.65234H13.3333C13.3635 6.65234 13.3948 6.66463 13.4204 6.69027C13.4461 6.71592 13.4583 6.7472 13.4583 6.77734C13.4583 6.80749 13.4461 6.83877 13.4204 6.86442C13.3948 6.89006 13.3635 6.90234 13.3333 6.90234Z" fill="#292D32" stroke="#082546"/>
<path d="M12.5 10.2363H7.5C7.46985 10.2363 7.43857 10.224 7.41293 10.1984C7.38728 10.1728 7.375 10.1415 7.375 10.1113C7.375 10.0812 7.38728 10.0499 7.41293 10.0243C7.43857 9.99861 7.46985 9.98633 7.5 9.98633H12.5C12.5301 9.98633 12.5614 9.99861 12.5871 10.0243C12.6127 10.0499 12.625 10.0812 12.625 10.1113C12.625 10.1415 12.6127 10.1728 12.5871 10.1984C12.5614 10.224 12.5301 10.2363 12.5 10.2363Z" fill="#292D32" stroke="#082546"/>
</svg>
