<svg width="16" height="17" viewBox="0 0 16 17" fill="none" xmlns="http://www.w3.org/2000/svg">
<path d="M1.84668 7.61068C1.56001 7.61068 1.33334 7.38401 1.33334 7.09734V5.55734C1.33334 3.75068 2.80668 2.27734 4.61334 2.27734H6.15334C6.44001 2.27734 6.66668 2.50401 6.66668 2.79068C6.66668 3.07734 6.44001 3.30401 6.15334 3.30401H4.61334C3.36668 3.30401 2.36001 4.31734 2.36001 5.55734V7.09734C2.36001 7.38401 2.12668 7.61068 1.84668 7.61068Z" fill="#082546"/>
<path d="M14.1533 7.61068C13.8733 7.61068 13.64 7.38401 13.64 7.09734V5.55734C13.64 4.31068 12.6267 3.30401 11.3867 3.30401H9.84668C9.56001 3.30401 9.33334 3.07068 9.33334 2.79068C9.33334 2.51068 9.56001 2.27734 9.84668 2.27734H11.3867C13.1933 2.27734 14.6667 3.75068 14.6667 5.55734V7.09734C14.6667 7.38401 14.44 7.61068 14.1533 7.61068Z" fill="#292D32"/>
<path d="M11.3867 15.6108H10.46C10.18 15.6108 9.94666 15.3841 9.94666 15.0975C9.94666 14.8175 10.1733 14.5841 10.46 14.5841H11.3867C12.6333 14.5841 13.64 13.5708 13.64 12.3308V11.4108C13.64 11.1308 13.8667 10.8975 14.1533 10.8975C14.4333 10.8975 14.6667 11.1241 14.6667 11.4108V12.3308C14.6667 14.1375 13.1933 15.6108 11.3867 15.6108Z" fill="#292D32"/>
<path d="M6.15334 15.6107H4.61334C2.80668 15.6107 1.33334 14.1373 1.33334 12.3307V10.7907C1.33334 10.504 1.56001 10.2773 1.84668 10.2773C2.13334 10.2773 2.36001 10.504 2.36001 10.7907V12.3307C2.36001 13.5773 3.37334 14.584 4.61334 14.584H6.15334C6.43334 14.584 6.66668 14.8107 6.66668 15.0973C6.66668 15.384 6.44001 15.6107 6.15334 15.6107Z" fill="#292D32"/>
<path d="M12.3067 8.43066H11.4H4.59999H3.69333C3.40666 8.43066 3.17999 8.664 3.17999 8.944C3.17999 9.224 3.40666 9.45733 3.69333 9.45733H4.59999H11.4H12.3067C12.5933 9.45733 12.82 9.224 12.82 8.944C12.82 8.664 12.5933 8.43066 12.3067 8.43066Z" fill="#292D32"/>
<path d="M4.60001 10.2377V10.4577C4.60001 11.5643 5.49334 12.4577 6.60001 12.4577H9.40001C10.5067 12.4577 11.4 11.5643 11.4 10.4577V10.2377C11.4 10.1577 11.34 10.0977 11.26 10.0977H4.74001C4.66001 10.0977 4.60001 10.1577 4.60001 10.2377Z" fill="#292D32"/>
<path d="M4.60001 7.65066V7.43066C4.60001 6.324 5.49334 5.43066 6.60001 5.43066H9.40001C10.5067 5.43066 11.4 6.324 11.4 7.43066V7.65066C11.4 7.73066 11.34 7.79066 11.26 7.79066H4.74001C4.66001 7.79066 4.60001 7.73066 4.60001 7.65066Z" fill="#292D32"/>
</svg>
