<svg width="24" height="24" viewBox="0 0 24 24" fill="none" xmlns="http://www.w3.org/2000/svg">
<path d="M11.9402 2.21001L9.5302 7.82001H7.1202C6.7202 7.82001 6.3302 7.85001 5.9502 7.93001L6.9502 5.53001L6.9902 5.44001L7.0502 5.28001C7.0802 5.21001 7.1002 5.15001 7.1302 5.10001C8.2902 2.41001 9.5902 1.57001 11.9402 2.21001Z" fill="#0B99FF"/>
<path d="M18.7301 8.09002L18.7101 8.08002C18.1101 7.91002 17.5001 7.82002 16.8801 7.82002H10.6201L12.8701 2.59002L12.9001 2.52002C13.0401 2.57002 13.1901 2.64002 13.3401 2.69002L15.5501 3.62002C16.7801 4.13002 17.6401 4.66002 18.1701 5.30002C18.2601 5.42002 18.3401 5.53002 18.4201 5.66002C18.5101 5.80002 18.5801 5.94002 18.6201 6.09002C18.6601 6.18002 18.6901 6.26002 18.7101 6.35002C18.8601 6.86002 18.8701 7.44002 18.7301 8.09002Z" fill="#0B99FF"/>
<path d="M18.2902 9.52001C17.8402 9.39001 17.3702 9.32001 16.8802 9.32001H7.12023C6.44023 9.32001 5.80023 9.45001 5.20023 9.71001C3.46023 10.46 2.24023 12.19 2.24023 14.2V16.15C2.24023 16.39 2.26023 16.62 2.29023 16.86C2.51023 20.04 4.21023 21.74 7.39023 21.95C7.62023 21.98 7.85023 22 8.10023 22H15.9002C19.6002 22 21.5502 20.24 21.7402 16.74C21.7502 16.55 21.7602 16.35 21.7602 16.15V14.2C21.7602 11.99 20.2902 10.13 18.2902 9.52001ZM14.5002 16.19H12.7502V18C12.7502 18.41 12.4102 18.75 12.0002 18.75C11.5902 18.75 11.2502 18.41 11.2502 18V16.19H9.50023C9.09023 16.19 8.75023 15.86 8.75023 15.44C8.75023 15.03 9.09023 14.69 9.50023 14.69H11.2502V13C11.2502 12.59 11.5902 12.25 12.0002 12.25C12.4102 12.25 12.7502 12.59 12.7502 13V14.69H14.5002C14.9102 14.69 15.2502 15.03 15.2502 15.44C15.2502 15.86 14.9102 16.19 14.5002 16.19Z" fill="#0B99FF"/>
</svg>
