<svg width="24" height="24" viewBox="0 0 24 24" fill="none" xmlns="http://www.w3.org/2000/svg">
<path d="M14.5 15.69H9.5C9.36614 15.69 9.25 15.5739 9.25 15.44C9.25 15.3061 9.36614 15.19 9.5 15.19H14.5C14.6339 15.19 14.75 15.3061 14.75 15.44C14.75 15.5739 14.6339 15.69 14.5 15.69Z" fill="#082546" stroke="#082546"/>
<path d="M12 18.25C11.8661 18.25 11.75 18.1339 11.75 18V13C11.75 12.8661 11.8661 12.75 12 12.75C12.1339 12.75 12.25 12.8661 12.25 13V18C12.25 18.1339 12.1339 18.25 12 18.25Z" fill="#082546" stroke="#082546"/>
<path d="M4.96976 9.61696L4.97135 9.61319L6.82939 5.17788C6.84518 5.14214 6.8603 5.10573 6.87058 5.08098C6.87418 5.07233 6.87718 5.0651 6.87942 5.05982C6.88622 5.04374 6.88964 5.0365 6.89064 5.0344L6.9058 5.00914L6.91885 4.97907C7.64058 3.31616 8.41615 2.39681 9.31932 1.99879C10.2171 1.60314 11.3711 1.66601 12.9913 2.28689L12.9912 2.28693L12.9973 2.28917C13.048 2.30785 13.0991 2.35219 13.1294 2.42403C13.1569 2.48946 13.1571 2.55901 13.13 2.6245L10.2024 9.41885C10.1608 9.51046 10.0684 9.57 9.97018 9.57H7.12018C6.4833 9.57 5.87705 9.69342 5.29536 9.93952L5.29533 9.93944L5.28711 9.94309C5.2652 9.95283 5.23492 9.96 5.20018 9.96C5.15204 9.96 5.08395 9.93923 5.01828 9.88079C4.95311 9.81091 4.93354 9.70147 4.96976 9.61696ZM7.36074 5.20274L7.35247 5.222L7.35208 5.22317C7.34859 5.23014 7.34163 5.24407 7.33471 5.25917C7.32905 5.27153 7.32181 5.28806 7.31442 5.30771L6.00939 8.4059L5.68613 9.17334L6.51545 9.09795C6.72117 9.07924 6.91605 9.07 7.12018 9.07H9.47018H9.79934L9.92946 8.76765L12.3395 3.16765L12.5574 2.66128L12.0322 2.49367C11.5235 2.33132 11.0517 2.25 10.6102 2.25C9.86035 2.25 9.23497 2.50304 8.69745 3.02694C8.18207 3.52925 7.76332 4.26509 7.36074 5.20274Z" fill="#082546" stroke="#082546"/>
<path d="M18.2902 10.27C18.2202 10.27 18.1402 10.26 18.0702 10.24C17.7002 10.13 17.2902 10.07 16.8702 10.07H9.97023C9.72023 10.07 9.48023 9.93999 9.34023 9.72999C9.21023 9.51999 9.18023 9.24999 9.28023 9.01999L12.1802 2.28999C12.3302 1.92999 12.7702 1.68999 13.1402 1.80999C13.2602 1.84999 13.3702 1.89999 13.4902 1.94999L15.8502 2.93999C17.2302 3.50999 18.1502 4.10999 18.7502 4.82999C18.8702 4.96999 18.9702 5.11999 19.0602 5.26999C19.1702 5.43999 19.2702 5.64999 19.3402 5.85999C19.3702 5.92999 19.4202 6.05999 19.4502 6.19999C19.7302 7.13999 19.5902 8.30999 18.9902 9.80999C18.8702 10.09 18.5902 10.27 18.2902 10.27ZM11.1102 8.56999H16.8802C17.2002 8.56999 17.5102 8.59999 17.8202 8.64999C18.1002 7.77999 18.1602 7.10999 18.0002 6.56999C17.9802 6.47999 17.9602 6.43999 17.9502 6.39999C17.8902 6.23999 17.8502 6.14999 17.8002 6.06999C17.7302 5.95999 17.6802 5.86999 17.6002 5.77999C17.1702 5.25999 16.4102 4.77999 15.2802 4.31999L13.3002 3.48999L11.1102 8.56999Z" fill="#082546"/>
<path d="M15.9 22.75H8.1C7.82 22.75 7.56 22.73 7.3 22.7C3.79 22.46 1.79 20.46 1.55 16.91C1.52 16.69 1.5 16.42 1.5 16.15V14.2C1.5 11.95 2.84 9.92001 4.91 9.02001C5.61 8.72001 6.36 8.57001 7.13 8.57001H16.89C17.46 8.57001 18.01 8.65001 18.52 8.81001C20.87 9.52001 22.52 11.74 22.52 14.2V16.15C22.52 16.37 22.51 16.58 22.5 16.78C22.28 20.69 20 22.75 15.9 22.75ZM7.12 10.07C6.55 10.07 6.01 10.18 5.49 10.4C3.97 11.06 2.99 12.55 2.99 14.2V16.15C2.99 16.36 3.01 16.57 3.03 16.77C3.22 19.62 4.62 21.02 7.43 21.21C7.68 21.24 7.88 21.26 8.09 21.26H15.89C19.19 21.26 20.81 19.81 20.97 16.71C20.98 16.53 20.99 16.35 20.99 16.15V14.2C20.99 12.39 19.78 10.77 18.06 10.24C17.69 10.13 17.28 10.07 16.86 10.07H7.12Z" fill="#082546"/>
<path d="M2.24023 14.95C1.83023 14.95 1.49023 14.61 1.49023 14.2V11.27C1.49023 8.11998 3.72023 5.39998 6.80023 4.79998C7.07023 4.74998 7.35023 4.84998 7.53023 5.05998C7.70023 5.26998 7.75023 5.56998 7.64023 5.81998L5.89023 9.99998C5.81023 10.18 5.67023 10.32 5.50023 10.4C3.98023 11.06 3.00023 12.55 3.00023 14.2C2.99023 14.61 2.66023 14.95 2.24023 14.95ZM5.60023 6.81998C4.32023 7.53998 3.39023 8.79998 3.10023 10.27C3.54023 9.81998 4.05023 9.43998 4.63023 9.15998L5.60023 6.81998Z" fill="#082546"/>
<path d="M21.7601 14.95C21.3501 14.95 21.0101 14.61 21.0101 14.2C21.0101 12.39 19.8001 10.77 18.0801 10.24C17.8801 10.18 17.7101 10.04 17.6201 9.85002C17.5301 9.66002 17.5201 9.44002 17.6001 9.25002C18.0701 8.08002 18.1901 7.23002 18.0001 6.57002C17.9801 6.48002 17.9601 6.44002 17.9501 6.40002C17.8201 6.11002 17.8901 5.77002 18.1201 5.55002C18.3501 5.33002 18.7001 5.28002 18.9801 5.43002C21.1601 6.57002 22.5101 8.81002 22.5101 11.27V14.2C22.5101 14.61 22.1701 14.95 21.7601 14.95ZM19.2501 9.09002C19.8801 9.38002 20.4401 9.79002 20.9101 10.28C20.7201 9.30002 20.2501 8.41002 19.5601 7.71002C19.5101 8.13002 19.4101 8.59002 19.2501 9.09002Z" fill="#082546"/>
</svg>
