<svg width="32" height="33" viewBox="0 0 32 33" fill="none" xmlns="http://www.w3.org/2000/svg">
<path d="M2.66663 13.9447C2.11996 13.9447 1.66663 13.4913 1.66663 12.9447V9.61133C1.66663 5.74466 4.81329 2.61133 8.66663 2.61133H12C12.5466 2.61133 13 3.06466 13 3.61133C13 4.15799 12.5466 4.61133 12 4.61133H8.66663C5.90663 4.61133 3.66663 6.85133 3.66663 9.61133V12.9447C3.66663 13.4913 3.21329 13.9447 2.66663 13.9447Z" fill="#082546"/>
<path d="M29.3333 13.9447C28.7867 13.9447 28.3333 13.4913 28.3333 12.9447V9.61133C28.3333 6.85133 26.0933 4.61133 23.3333 4.61133H20C19.4533 4.61133 19 4.15799 19 3.61133C19 3.06466 19.4533 2.61133 20 2.61133H23.3333C27.1867 2.61133 30.3333 5.74466 30.3333 9.61133V12.9447C30.3333 13.4913 29.88 13.9447 29.3333 13.9447Z" fill="#082546"/>
<path d="M23.3334 31.2773H21.3334C20.7867 31.2773 20.3334 30.824 20.3334 30.2773C20.3334 29.7307 20.7867 29.2773 21.3334 29.2773H23.3334C26.0934 29.2773 28.3334 27.0373 28.3334 24.2773V22.2773C28.3334 21.7307 28.7867 21.2773 29.3334 21.2773C29.88 21.2773 30.3334 21.7307 30.3334 22.2773V24.2773C30.3334 28.144 27.1867 31.2773 23.3334 31.2773Z" fill="#082546"/>
<path d="M12 31.2777H8.66663C4.81329 31.2777 1.66663 28.1443 1.66663 24.2777V20.9443C1.66663 20.3977 2.11996 19.9443 2.66663 19.9443C3.21329 19.9443 3.66663 20.3977 3.66663 20.9443V24.2777C3.66663 27.0377 5.90663 29.2777 8.66663 29.2777H12C12.5466 29.2777 13 29.731 13 30.2777C13 30.8243 12.5466 31.2777 12 31.2777Z" fill="#082546"/>
<path d="M18.6667 25.278H13.3334C10.1067 25.278 8.33337 23.5047 8.33337 20.278V13.6113C8.33337 10.3847 10.1067 8.61133 13.3334 8.61133H18.6667C21.8934 8.61133 23.6667 10.3847 23.6667 13.6113V20.278C23.6667 23.5047 21.8934 25.278 18.6667 25.278ZM13.3334 10.6113C11.2267 10.6113 10.3334 11.5047 10.3334 13.6113V20.278C10.3334 22.3847 11.2267 23.278 13.3334 23.278H18.6667C20.7734 23.278 21.6667 22.3847 21.6667 20.278V13.6113C21.6667 11.5047 20.7734 10.6113 18.6667 10.6113H13.3334Z" fill="#082546"/>
<path d="M25.3333 17.9443H6.66663C6.11996 17.9443 5.66663 17.491 5.66663 16.9443C5.66663 16.3977 6.11996 15.9443 6.66663 15.9443H25.3333C25.88 15.9443 26.3333 16.3977 26.3333 16.9443C26.3333 17.491 25.88 17.9443 25.3333 17.9443Z" fill="#082546"/>
</svg>
