<svg width="22" height="22" viewBox="0 0 22 22" fill="none" xmlns="http://www.w3.org/2000/svg">
<path d="M12.73 2.50989L14.49 6.02989C14.73 6.51989 15.37 6.98989 15.91 7.07989L19.1 7.60989C21.14 7.94989 21.62 9.42989 20.15 10.8899L17.67 13.3699C17.25 13.7899 17.02 14.5999 17.15 15.1799L17.86 18.2499C18.42 20.6799 17.13 21.6199 14.98 20.3499L11.99 18.5799C11.45 18.2599 10.56 18.2599 10.01 18.5799L7.02 20.3499C4.88 21.6199 3.58 20.6699 4.14 18.2499L4.85 15.1799C4.98 14.5999 4.75 13.7899 4.33 13.3699L1.85 10.8899C0.390001 9.42989 0.860001 7.94989 2.9 7.60989L6.09 7.07989C6.62 6.98989 7.26 6.51989 7.5 6.02989L9.26 2.50989C10.22 0.599893 11.78 0.599893 12.73 2.50989Z" stroke="#FFD232" stroke-width="1.5" stroke-linecap="round" stroke-linejoin="round"/>
</svg>
