<svg width="24" height="24" viewBox="0 0 24 24" fill="none" xmlns="http://www.w3.org/2000/svg">
<path d="M20.1 9.6589C18.29 9.6589 17.55 8.3789 18.45 6.8089C18.97 5.8989 18.66 4.7389 17.75 4.2189L16.02 3.2289C15.23 2.7589 14.21 3.0389 13.74 3.8289L13.63 4.0189C12.73 5.5889 11.25 5.5889 10.34 4.0189L10.23 3.8289C9.78 3.0389 8.76 2.7589 7.97 3.2289L6.24 4.2189C5.33 4.7389 5.02 5.9089 5.54 6.8189C6.45 8.3789 5.71 9.6589 3.9 9.6589C2.86 9.6589 2 10.5089 2 11.5589V13.3189C2 14.3589 2.85 15.2189 3.9 15.2189C5.71 15.2189 6.45 16.4989 5.54 18.0689C5.02 18.9789 5.33 20.1389 6.24 20.6589L7.97 21.6489C8.76 22.1189 9.78 21.8389 10.25 21.0489L10.36 20.8589C11.26 19.2889 12.74 19.2889 13.65 20.8589L13.76 21.0489C14.23 21.8389 15.25 22.1189 16.04 21.6489L17.77 20.6589C18.68 20.1389 18.99 18.9689 18.47 18.0689C17.56 16.4989 18.3 15.2189 20.11 15.2189C21.15 15.2189 22.01 14.3689 22.01 13.3189V11.5589C22 10.5189 21.15 9.6589 20.1 9.6589ZM12 15.6889C10.21 15.6889 8.75 14.2289 8.75 12.4389C8.75 10.6489 10.21 9.1889 12 9.1889C13.79 9.1889 15.25 10.6489 15.25 12.4389C15.25 14.2289 13.79 15.6889 12 15.6889Z" fill="#0B99FF"/>
</svg>
