<svg width="20" height="20" viewBox="0 0 20 20" fill="none" xmlns="http://www.w3.org/2000/svg">
<path d="M18.3333 8.95846V8.1918C18.3333 5.10846 17.5666 4.3418 14.4833 4.3418H9.16663V10.0001" stroke="#3FCB28" stroke-width="1.5" stroke-linecap="round" stroke-linejoin="round"/>
<path d="M9.09167 16.6666H14.4833C17.5667 16.6666 18.3333 15.8999 18.3333 12.8166C17.2667 12.8166 16.4083 11.9499 16.4083 10.8916" stroke="#3FCB28" stroke-width="1.5" stroke-linecap="round" stroke-linejoin="round"/>
<path d="M9.16663 14.1669V16.6669H6.8583C5.62497 16.6669 4.89997 15.8252 4.09997 13.8919L3.94997 13.5169C4.9583 13.1169 5.44997 11.9502 5.02497 10.9419C4.61663 9.93356 3.4583 9.45023 2.44163 9.86689L2.29997 9.50856C1.09997 6.57523 1.51663 5.55023 4.44997 4.34189L6.64997 3.44189L9.16663 9.54189V11.6669" stroke="#3FCB28" stroke-width="1.5" stroke-linecap="round" stroke-linejoin="round"/>
<path d="M6.80829 16.6665H6.66663" stroke="#3FCB28" stroke-width="1.5" stroke-linecap="round" stroke-linejoin="round"/>
</svg>
