<svg width="16" height="16" viewBox="0 0 16 16" fill="none" xmlns="http://www.w3.org/2000/svg">
<path d="M7.81157 0.502321C7.93458 0.981052 8 1.48289 8 2C8 5.31371 5.31371 8 2 8C1.48289 8 0.981052 7.93458 0.502321 7.81157M7.81157 0.502321C7.87419 0.500777 7.93701 0.5 8 0.5C12.1421 0.5 15.5 3.85786 15.5 8C15.5 12.1421 12.1421 15.5 8 15.5C3.85786 15.5 0.5 12.1421 0.5 8C0.5 7.93701 0.500777 7.87419 0.502321 7.81157M7.81157 0.502321C3.81913 0.600771 0.600771 3.81913 0.502321 7.81157M15.5 8.18903C15.0206 8.06563 14.5179 8 14 8C10.6863 8 8 10.6863 8 14C8 14.5179 8.06563 15.0206 8.18903 15.5" stroke="#031427" stroke-linecap="round" stroke-linejoin="round"/>
</svg>
