<svg width="18" height="19" viewBox="0 0 18 19" fill="none" xmlns="http://www.w3.org/2000/svg">
<mask id="path-1-inside-1_514_6672" fill="white">
<path d="M9 18.0068C4.5525 18.0068 0.9375 14.3918 0.9375 9.94434C0.9375 5.49684 4.5525 1.88184 9 1.88184C13.4475 1.88184 17.0625 5.49684 17.0625 9.94434C17.0625 14.3918 13.4475 18.0068 9 18.0068ZM9 3.00684C5.175 3.00684 2.0625 6.11934 2.0625 9.94434C2.0625 13.7693 5.175 16.8818 9 16.8818C12.825 16.8818 15.9375 13.7693 15.9375 9.94434C15.9375 6.11934 12.825 3.00684 9 3.00684Z"/>
</mask>
<path d="M9 18.0068C4.5525 18.0068 0.9375 14.3918 0.9375 9.94434C0.9375 5.49684 4.5525 1.88184 9 1.88184C13.4475 1.88184 17.0625 5.49684 17.0625 9.94434C17.0625 14.3918 13.4475 18.0068 9 18.0068ZM9 3.00684C5.175 3.00684 2.0625 6.11934 2.0625 9.94434C2.0625 13.7693 5.175 16.8818 9 16.8818C12.825 16.8818 15.9375 13.7693 15.9375 9.94434C15.9375 6.11934 12.825 3.00684 9 3.00684Z" fill="#292D32"/>
<path d="M9 16.5068C5.38093 16.5068 2.4375 13.5634 2.4375 9.94434H-0.5625C-0.5625 15.2203 3.72407 19.5068 9 19.5068V16.5068ZM2.4375 9.94434C2.4375 6.32526 5.38093 3.38184 9 3.38184V0.381836C3.72407 0.381836 -0.5625 4.66841 -0.5625 9.94434H2.4375ZM9 3.38184C12.6191 3.38184 15.5625 6.32526 15.5625 9.94434H18.5625C18.5625 4.66841 14.2759 0.381836 9 0.381836V3.38184ZM15.5625 9.94434C15.5625 13.5634 12.6191 16.5068 9 16.5068V19.5068C14.2759 19.5068 18.5625 15.2203 18.5625 9.94434H15.5625ZM9 1.50684C4.34657 1.50684 0.5625 5.29091 0.5625 9.94434H3.5625C3.5625 6.94776 6.00343 4.50684 9 4.50684V1.50684ZM0.5625 9.94434C0.5625 14.5978 4.34657 18.3818 9 18.3818V15.3818C6.00343 15.3818 3.5625 12.9409 3.5625 9.94434H0.5625ZM9 18.3818C13.6534 18.3818 17.4375 14.5978 17.4375 9.94434H14.4375C14.4375 12.9409 11.9966 15.3818 9 15.3818V18.3818ZM17.4375 9.94434C17.4375 5.29091 13.6534 1.50684 9 1.50684V4.50684C11.9966 4.50684 14.4375 6.94776 14.4375 9.94434H17.4375Z" fill="white" mask="url(#path-1-inside-1_514_6672)"/>
<mask id="path-3-inside-2_514_6672" fill="white">
<path d="M7.93499 12.6295C7.78499 12.6295 7.64249 12.5695 7.53749 12.4645L5.41499 10.342C5.19749 10.1245 5.19749 9.76453 5.41499 9.54703C5.63249 9.32953 5.99249 9.32953 6.20999 9.54703L7.93499 11.272L11.79 7.41703C12.0075 7.19953 12.3675 7.19953 12.585 7.41703C12.8025 7.63453 12.8025 7.99453 12.585 8.21203L8.33249 12.4645C8.22749 12.5695 8.08499 12.6295 7.93499 12.6295Z"/>
</mask>
<path d="M7.93499 12.6295C7.78499 12.6295 7.64249 12.5695 7.53749 12.4645L5.41499 10.342C5.19749 10.1245 5.19749 9.76453 5.41499 9.54703C5.63249 9.32953 5.99249 9.32953 6.20999 9.54703L7.93499 11.272L11.79 7.41703C12.0075 7.19953 12.3675 7.19953 12.585 7.41703C12.8025 7.63453 12.8025 7.99453 12.585 8.21203L8.33249 12.4645C8.22749 12.5695 8.08499 12.6295 7.93499 12.6295Z" fill="#292D32"/>
<path d="M7.53749 12.4645L8.59815 11.4039L7.53749 12.4645ZM5.41499 10.342L4.35433 11.4027H4.35433L5.41499 10.342ZM6.20999 9.54703L7.27065 8.48637L7.27065 8.48637L6.20999 9.54703ZM7.93499 11.272L6.87433 12.3327L7.93499 13.3934L8.99565 12.3327L7.93499 11.272ZM11.79 7.41703L12.8506 8.47769L11.79 7.41703ZM12.585 8.21203L13.6456 9.27269L12.585 8.21203ZM8.33249 12.4645L7.27183 11.4039L8.33249 12.4645ZM7.93499 11.1295C8.18733 11.1295 8.42505 11.2308 8.59815 11.4039L6.47683 13.5252C6.85992 13.9083 7.38264 14.1295 7.93499 14.1295V11.1295ZM8.59815 11.4039L6.47565 9.28137L4.35433 11.4027L6.47683 13.5252L8.59815 11.4039ZM6.47565 9.28137C6.84393 9.64966 6.84393 10.2394 6.47565 10.6077L4.35433 8.48637C3.55104 9.28966 3.55104 10.5994 4.35433 11.4027L6.47565 9.28137ZM6.47565 10.6077C6.10736 10.976 5.51761 10.976 5.14933 10.6077L7.27065 8.48637C6.46736 7.68308 5.15761 7.68308 4.35433 8.48637L6.47565 10.6077ZM5.14933 10.6077L6.87433 12.3327L8.99565 10.2114L7.27065 8.48637L5.14933 10.6077ZM8.99565 12.3327L12.8506 8.47769L10.7293 6.35637L6.87433 10.2114L8.99565 12.3327ZM12.8506 8.47769C12.4824 8.84598 11.8926 8.84598 11.5243 8.47769L13.6456 6.35637C12.8424 5.55308 11.5326 5.55308 10.7293 6.35637L12.8506 8.47769ZM11.5243 8.47769C11.156 8.1094 11.156 7.51966 11.5243 7.15137L13.6456 9.27269C14.4489 8.4694 14.4489 7.15966 13.6456 6.35637L11.5243 8.47769ZM11.5243 7.15137L7.27183 11.4039L9.39315 13.5252L13.6456 9.27269L11.5243 7.15137ZM7.27183 11.4039C7.44492 11.2308 7.68264 11.1295 7.93499 11.1295V14.1295C8.48733 14.1295 9.01005 13.9083 9.39315 13.5252L7.27183 11.4039Z" fill="white" mask="url(#path-3-inside-2_514_6672)"/>
</svg>
