<svg width="18" height="18" viewBox="0 0 18 18" fill="none" xmlns="http://www.w3.org/2000/svg">
<path d="M2.55163 7.72552L11.1253 12.6755M13.4998 10.2128C11.6435 13.4279 8.16685 14.2786 5.40471 12.6838C2.64258 11.0891 1.64092 7.65293 3.49717 4.43781C5.35342 1.22269 8.83008 0.372057 11.5922 1.96677C14.3543 3.56149 15.356 6.99769 13.4998 10.2128ZM4.71846 12.2225L6.06351 13.0126L4.41392 16.8749L2.27051 15.6374L4.71846 12.2225ZM15.7498 14.9999C15.7498 15.8284 15.0782 16.4999 14.2498 16.4999C13.4213 16.4999 12.7498 15.8284 12.7498 14.9999C12.7498 14.1715 13.4213 13.4999 14.2498 13.4999C15.0782 13.4999 15.7498 14.1715 15.7498 14.9999Z" stroke="#031427" stroke-linejoin="round"/>
</svg>
