<svg width="20" height="21" viewBox="0 0 20 21" fill="none" xmlns="http://www.w3.org/2000/svg">
<path d="M2.05369 8.73307C1.84657 8.73307 1.65757 8.56519 1.66709 8.34574C1.72285 7.06068 1.87909 6.22409 2.31682 5.56231C2.56865 5.18158 2.88146 4.85044 3.24111 4.58385C4.21321 3.86328 5.58457 3.86328 8.3273 3.86328H11.6729C14.4156 3.86328 15.787 3.86328 16.7591 4.58385C17.1187 4.85044 17.4315 5.18158 17.6834 5.56231C18.121 6.22402 18.2773 7.06049 18.3331 8.34531C18.3426 8.56501 18.1534 8.73307 17.946 8.73307C16.7912 8.73307 15.855 9.72411 15.855 10.9466C15.855 12.1691 16.7912 13.1602 17.946 13.1602C18.1534 13.1602 18.3426 13.3282 18.3331 13.5479C18.2773 14.8327 18.121 15.6692 17.6834 16.3309C17.4315 16.7116 17.1187 17.0428 16.7591 17.3094C15.787 18.0299 14.4156 18.0299 11.6729 18.0299H8.3273C5.58457 18.0299 4.21321 18.0299 3.24111 17.3094C2.88146 17.0428 2.56865 16.7116 2.31682 16.3309C1.87909 15.6691 1.72285 14.8326 1.66709 13.5475C1.65757 13.328 1.84657 13.1602 2.05369 13.1602C3.20851 13.1602 4.14468 12.1691 4.14468 10.9466C4.14468 9.72411 3.20851 8.73307 2.05369 8.73307Z" stroke="#031427" stroke-width="1.5" stroke-linejoin="round"/>
<path d="M7.5 3.86328L7.5 18.0299" stroke="#031427" stroke-width="1.5" stroke-linecap="round" stroke-linejoin="round"/>
</svg>
