<svg width="16" height="17" viewBox="0 0 16 17" fill="none" xmlns="http://www.w3.org/2000/svg">
<path d="M7.99999 8.44596C9.84094 8.44596 11.3333 6.95358 11.3333 5.11263C11.3333 3.27168 9.84094 1.7793 7.99999 1.7793C6.15904 1.7793 4.66666 3.27168 4.66666 5.11263C4.66666 6.95358 6.15904 8.44596 7.99999 8.44596Z" stroke="#5E758A" stroke-width="1.5" stroke-linecap="round" stroke-linejoin="round"/>
<path d="M12.8067 10.9387L10.4466 13.2987C10.3533 13.392 10.2666 13.5653 10.2466 13.692L10.12 14.592C10.0733 14.9186 10.3 15.1453 10.6267 15.0987L11.5266 14.972C11.6533 14.952 11.8333 14.8653 11.92 14.772L14.28 12.412C14.6866 12.0053 14.88 11.532 14.28 10.932C13.6866 10.3387 13.2133 10.532 12.8067 10.9387Z" stroke="#5E758A" stroke-width="1.5" stroke-miterlimit="10" stroke-linecap="round" stroke-linejoin="round"/>
<path d="M12.4667 11.2793C12.6667 11.9993 13.2267 12.5593 13.9467 12.7593" stroke="#5E758A" stroke-width="1.5" stroke-miterlimit="10" stroke-linecap="round" stroke-linejoin="round"/>
<path d="M2.27332 15.112C2.27332 12.532 4.84 10.4453 8 10.4453C8.69333 10.4453 9.35998 10.5453 9.97998 10.732" stroke="#5E758A" stroke-width="1.5" stroke-linecap="round" stroke-linejoin="round"/>
</svg>
