<svg width="16" height="16" viewBox="0 0 24 25" fill="none" xmlns="http://www.w3.org/2000/svg">
<path d="M9.46998 16.2243C9.27998 16.2243 9.08998 16.1543 8.93998 16.0043C8.11998 15.1843 7.66998 14.0943 7.66998 12.9443C7.66998 10.5543 9.60998 8.61426 12 8.61426C13.15 8.61426 14.24 9.06426 15.06 9.88426C15.2 10.0243 15.28 10.2143 15.28 10.4143C15.28 10.6143 15.2 10.8043 15.06 10.9443L9.99998 16.0043C9.84998 16.1543 9.65998 16.2243 9.46998 16.2243ZM12 10.1143C10.44 10.1143 9.16998 11.3843 9.16998 12.9443C9.16998 13.4443 9.29998 13.9243 9.53998 14.3443L13.4 10.4843C12.98 10.2443 12.5 10.1143 12 10.1143Z" fill="#082546"/>
<path d="M5.60003 19.4543C5.43003 19.4543 5.25003 19.3943 5.11003 19.2743C4.04003 18.3643 3.08003 17.2443 2.26003 15.9443C1.20003 14.2943 1.20003 11.6043 2.26003 9.94432C4.70003 6.12432 8.25003 3.92432 12 3.92432C14.2 3.92432 16.37 4.68432 18.27 6.11432C18.6 6.36432 18.67 6.83432 18.42 7.16432C18.17 7.49432 17.7 7.56432 17.37 7.31432C15.73 6.07432 13.87 5.42432 12 5.42432C8.77003 5.42432 5.68003 7.36432 3.52003 10.7543C2.77003 11.9243 2.77003 13.9643 3.52003 15.1343C4.27003 16.3043 5.13003 17.3143 6.08003 18.1343C6.39003 18.4043 6.43003 18.8743 6.16003 19.1943C6.02003 19.3643 5.81003 19.4543 5.60003 19.4543Z" fill="#082546"/>
<path d="M12 21.9643C10.67 21.9643 9.37 21.6943 8.12 21.1643C7.74 21.0043 7.56 20.5643 7.72 20.1843C7.88 19.8043 8.32 19.6243 8.7 19.7843C9.76 20.2343 10.87 20.4643 11.99 20.4643C15.22 20.4643 18.31 18.5243 20.47 15.1343C21.22 13.9643 21.22 11.9243 20.47 10.7543C20.16 10.2643 19.82 9.79433 19.46 9.35433C19.2 9.03433 19.25 8.56433 19.57 8.29433C19.89 8.03433 20.36 8.07433 20.63 8.40433C21.02 8.88433 21.4 9.40433 21.74 9.94433C22.8 11.5943 22.8 14.2843 21.74 15.9443C19.3 19.7643 15.75 21.9643 12 21.9643Z" fill="#082546"/>
<path d="M12.69 17.2144C12.34 17.2144 12.02 16.9644 11.95 16.6044C11.87 16.1944 12.14 15.8044 12.55 15.7344C13.65 15.5344 14.57 14.6144 14.77 13.5144C14.85 13.1044 15.24 12.8444 15.65 12.9144C16.06 12.9944 16.33 13.3844 16.25 13.7944C15.93 15.5244 14.55 16.8944 12.83 17.2144C12.78 17.2044 12.74 17.2144 12.69 17.2144Z" fill="#082546"/>
<path d="M2 23.6943C1.81 23.6943 1.62 23.6243 1.47 23.4743C1.18 23.1843 1.18 22.7043 1.47 22.4143L8.94 14.9443C9.23 14.6543 9.71 14.6543 10 14.9443C10.29 15.2343 10.29 15.7143 10 16.0043L2.53 23.4743C2.38 23.6243 2.19 23.6943 2 23.6943Z" fill="#082546"/>
<path d="M14.53 11.1643C14.34 11.1643 14.15 11.0943 14 10.9443C13.71 10.6543 13.71 10.1743 14 9.88428L21.47 2.41428C21.76 2.12428 22.24 2.12428 22.53 2.41428C22.82 2.70428 22.82 3.18428 22.53 3.47428L15.06 10.9443C14.91 11.0943 14.72 11.1643 14.53 11.1643Z" fill="#082546"/>
</svg>
