<svg width="12" height="13" viewBox="0 0 12 13" fill="none" xmlns="http://www.w3.org/2000/svg">
<path d="M6 6.81934C4.415 6.81934 3.125 5.52934 3.125 3.94434C3.125 2.35934 4.415 1.06934 6 1.06934C7.585 1.06934 8.875 2.35934 8.875 3.94434C8.875 5.52934 7.585 6.81934 6 6.81934ZM6 1.81934C4.83 1.81934 3.875 2.77434 3.875 3.94434C3.875 5.11434 4.83 6.06934 6 6.06934C7.17 6.06934 8.125 5.11434 8.125 3.94434C8.125 2.77434 7.17 1.81934 6 1.81934Z" fill="#292D32"/>
<path d="M1.70508 11.8193C1.50008 11.8193 1.33008 11.6493 1.33008 11.4443C1.33008 9.30934 3.42509 7.56934 6.00009 7.56934C6.20509 7.56934 6.37509 7.73934 6.37509 7.94434C6.37509 8.14934 6.20509 8.31934 6.00009 8.31934C3.84009 8.31934 2.08008 9.71934 2.08008 11.4443C2.08008 11.6493 1.91008 11.8193 1.70508 11.8193Z" fill="#292D32"/>
<path d="M9.10001 11.5193C8.01001 11.5193 7.125 10.6343 7.125 9.54434C7.125 8.45434 8.01001 7.56934 9.10001 7.56934C10.19 7.56934 11.075 8.45434 11.075 9.54434C11.075 10.6343 10.19 11.5193 9.10001 11.5193ZM9.10001 8.31934C8.42501 8.31934 7.875 8.86934 7.875 9.54434C7.875 10.2193 8.42501 10.7693 9.10001 10.7693C9.77501 10.7693 10.325 10.2193 10.325 9.54434C10.325 8.86934 9.77501 8.31934 9.10001 8.31934Z" fill="#292D32"/>
<path d="M11 11.8191C10.905 11.8191 10.81 11.7841 10.735 11.7091L10.235 11.2091C10.09 11.0641 10.09 10.8241 10.235 10.6791C10.38 10.5341 10.62 10.5341 10.765 10.6791L11.265 11.1791C11.41 11.3241 11.41 11.5641 11.265 11.7091C11.19 11.7841 11.095 11.8191 11 11.8191Z" fill="#292D32"/>
</svg>
