<svg width="65" height="62" viewBox="0 0 65 62" fill="none" xmlns="http://www.w3.org/2000/svg">
<path d="M61.1971 24.1494L54.3086 19.345L53.5921 10.9752C53.4027 8.77026 51.444 7.12699 49.239 7.32423L40.8738 8.07141L34.9454 2.12143C33.3824 0.553273 30.8261 0.553273 29.2638 2.12143L23.3354 8.07141L14.9702 7.32423C12.7652 7.12699 10.8065 8.77026 10.6171 10.9752L9.90059 19.345L3.01141 24.1494C1.19703 25.4145 0.751584 27.9304 2.02192 29.7415L4.53972 33.3226C4.54038 33.3239 6.85441 36.6157 6.85441 36.6157C6.85441 36.6157 5.80613 40.5011 5.80613 40.5024L4.66577 44.7249C4.08841 46.8625 5.36658 49.0773 7.50688 49.6462L15.6246 51.8061L19.1606 59.4261C20.0933 61.4331 22.4942 62.3057 24.4986 61.3678L32.1049 57.8037L39.7112 61.3678C41.715 62.3064 44.1166 61.4338 45.0492 59.4261L48.5853 51.8061L56.703 49.6462C58.8426 49.0773 60.1208 46.8625 59.5441 44.7249L58.4037 40.5024C58.4037 40.5011 57.3554 36.6157 57.3554 36.6157L62.1879 29.7415C63.4569 27.9304 63.0115 25.4139 61.1971 24.1494Z" fill="url(#paint0_linear_6175_30753)"/>
<path d="M41.4028 58.9508C41.2003 58.9508 41.0037 58.9071 40.8182 58.8196L32.1042 54.7369L23.3895 58.8202C23.2054 58.9071 23.0081 58.9508 22.8056 58.9508C22.2577 58.9508 21.7574 58.6341 21.5294 58.1436L17.4788 49.4145L8.17823 46.9405C7.69426 46.8118 7.4389 46.4755 7.32983 46.2867C7.22076 46.098 7.05746 45.708 7.18744 45.2247L9.6961 35.9327L4.15889 28.0566C3.87282 27.6497 3.89373 27.2291 3.93161 27.0136C3.97014 26.7994 4.09423 26.3964 4.50439 26.1103L12.3981 20.6051L13.2191 11.0146C13.2805 10.2988 13.8918 9.73776 14.6109 9.73776C14.6527 9.73776 14.6945 9.73972 14.7363 9.74364L24.3209 10.5999L31.1134 3.78255C31.4668 3.4279 31.8854 3.375 32.1036 3.375C32.3217 3.375 32.7404 3.4279 33.0937 3.78255L39.8862 10.5999L49.4709 9.74364C49.5133 9.73972 49.5551 9.73776 49.5962 9.73776C50.3153 9.73776 50.926 10.2988 50.9881 11.0159L51.809 20.6051L59.7014 26.1103C60.1122 26.3964 60.237 26.7994 60.2749 27.0136C60.3134 27.2285 60.3343 27.6497 60.0463 28.0586L54.511 35.932L57.0197 45.2241C57.1496 45.7074 56.9864 46.0973 56.8773 46.2861C56.7682 46.4748 56.5129 46.8112 56.0295 46.9398L46.7284 49.4139L42.6777 58.1442C42.4517 58.6341 41.9507 58.9508 41.4028 58.9508Z" fill="url(#paint1_linear_6175_30753)"/>
<path d="M23.4964 33.3373C21.2039 33.3373 19.5482 32.7455 18.53 31.5608C17.5105 30.3766 17.0017 28.6263 17.0017 26.3083C17.0017 23.9656 17.5105 22.2093 18.53 21.0376C19.5482 19.8665 21.2039 19.2807 23.4964 19.2807C25.813 19.2807 27.4752 19.8665 28.4817 21.0376C29.4869 22.2093 29.9898 23.9656 29.9898 26.3083C29.9898 28.6263 29.4869 30.3766 28.4817 31.5608C27.4752 32.7455 25.813 33.3373 23.4964 33.3373ZM23.4964 29.7849C23.8269 29.7849 24.1456 29.6961 24.4506 29.5178C24.7569 29.3401 25.0169 28.9959 25.2337 28.4865C25.4506 27.9777 25.559 27.2514 25.559 26.309C25.559 25.3156 25.4506 24.571 25.2337 24.0746C25.0169 23.5776 24.7569 23.2341 24.4506 23.0433C24.1456 22.852 23.8269 22.7573 23.4964 22.7573C23.1901 22.7573 22.8792 22.8526 22.5598 23.0433C22.2411 23.2341 21.9746 23.5776 21.7571 24.0746C21.5403 24.571 21.4332 25.3156 21.4332 26.309C21.4332 27.2514 21.5403 27.9777 21.7571 28.4865C21.974 28.9959 22.2404 29.3401 22.5598 29.5178C22.8792 29.6961 23.1907 29.7849 23.4964 29.7849ZM22.1595 46.0582L37.7058 19.0508H42.1373L26.5896 46.0582H22.1595ZM40.8774 45.714C38.5849 45.714 36.9292 45.1216 35.911 43.9375C34.8915 42.7534 34.3827 41.0024 34.3827 38.6851C34.3827 36.3423 34.8915 34.5854 35.911 33.4137C36.9292 32.2426 38.5849 31.6568 40.8774 31.6568C43.194 31.6568 44.8562 32.2426 45.8627 33.4137C46.8679 34.5854 47.3708 36.3423 47.3708 38.6851C47.3708 41.0024 46.8679 42.7534 45.8627 43.9375C44.8556 45.1216 43.194 45.714 40.8774 45.714ZM40.8774 42.1617C41.2079 42.1617 41.5266 42.0722 41.8316 41.8945C42.1379 41.7169 42.3979 41.3727 42.6147 40.8632C42.8316 40.3538 42.94 39.6275 42.94 38.6857C42.94 37.6923 42.8316 36.9477 42.6147 36.4507C42.3979 35.9543 42.1379 35.6108 41.8316 35.4194C41.5266 35.2287 41.2079 35.1334 40.8774 35.1334C40.5711 35.1334 40.2602 35.2287 39.9408 35.4194C39.6221 35.6108 39.3556 35.9543 39.1381 36.4507C38.9213 36.9477 38.8142 37.6923 38.8142 38.6857C38.8142 39.6275 38.9213 40.3538 39.1381 40.8632C39.355 41.3727 39.6214 41.7169 39.9408 41.8945C40.2602 42.0722 40.5711 42.1617 40.8774 42.1617Z" fill="url(#paint2_linear_6175_30753)"/>
<defs>
<linearGradient id="paint0_linear_6175_30753" x1="32.1047" y1="2.18439" x2="32.1047" y2="56.5573" gradientUnits="userSpaceOnUse">
<stop offset="0.0054" stop-color="#0083FF"/>
<stop offset="0.3086" stop-color="#0476EF"/>
<stop offset="0.9003" stop-color="#0F54C5"/>
<stop offset="1" stop-color="#114EBD"/>
</linearGradient>
<linearGradient id="paint1_linear_6175_30753" x1="32.1046" y1="16.6986" x2="32.1046" y2="58.9913" gradientUnits="userSpaceOnUse">
<stop offset="0.0054" stop-color="#0095FF"/>
<stop offset="0.2905" stop-color="#0485F0"/>
<stop offset="0.8469" stop-color="#0E5BC9"/>
<stop offset="1" stop-color="#114EBD"/>
</linearGradient>
<linearGradient id="paint2_linear_6175_30753" x1="32.1862" y1="22.3577" x2="32.1862" y2="39.7512" gradientUnits="userSpaceOnUse">
<stop stop-color="white"/>
<stop offset="1" stop-color="#C3D3FF"/>
</linearGradient>
</defs>
</svg>
