<?xml version="1.0" encoding="utf-8"?><!-- Uploaded to: SVG Repo, www.svgrepo.com, Generator: SVG Repo Mixer Tools -->
<svg width="16px" height="16px" viewBox="0 0 24 24" fill="none" xmlns="http://www.w3.org/2000/svg">
<path fill-rule="evenodd" clip-rule="evenodd" d="M22.9999 11.9998C22.9999 18.0749 18.075 22.9998 11.9999 22.9998C5.92478 22.9998 0.999908 18.0749 0.999908 11.9998C0.999908 5.92462 5.92478 0.999756 11.9999 0.999756C18.075 0.999756 22.9999 5.92462 22.9999 11.9998ZM3.55833 15.1079C3.24292 14.2516 3.05409 13.334 3.01454 12.3779C5.28685 10.0002 7.7342 8.90627 9.63086 8.40426C10.5084 8.172 11.2683 8.06654 11.8374 8.02078C11.7249 9.3527 11.4483 10.4493 11.2593 11.071C10.74 11.1518 9.97107 11.3243 9.01601 11.6917C7.54843 12.2561 5.65523 13.275 3.55833 15.1079ZM11.3113 3.03256C11.643 4.04874 11.8082 5.05894 11.8652 6.01347C11.1738 6.05885 10.2236 6.1785 9.11912 6.47084C7.4463 6.9136 5.42045 7.75277 3.41155 9.32386C4.48527 5.87402 7.58036 3.31507 11.3113 3.03256ZM11.9999 20.9929C8.86402 20.9929 6.103 19.3879 4.49355 16.9545C5.38928 16.1354 6.2393 15.4866 7.02287 14.9725C7.28235 15.4719 7.66735 16.0879 8.23177 16.7652C9.29798 18.0446 10.9856 19.5206 13.633 20.845C13.1034 20.9422 12.5576 20.9929 11.9999 20.9929ZM16.3528 19.8711C17.3335 19.3277 18.2018 18.6063 18.9143 17.7506C16.9685 17.2902 15.2789 16.2646 14.0153 15.2926C12.8723 14.4134 12.0281 13.541 11.5812 13.0449C11.1944 13.1042 10.5588 13.2411 9.73397 13.5583C9.43472 13.6734 9.10976 13.8126 8.76205 13.9809C8.95636 14.3668 9.27108 14.8883 9.76821 15.4848C10.8473 16.7797 12.8149 18.463 16.3528 19.8711ZM16.1045 3.99578C15.2764 3.57029 14.3738 3.26952 13.4213 3.11828C14.0015 5.30473 13.9567 7.39135 13.7412 9.00716C13.5782 10.2299 13.3155 11.2015 13.1336 11.7795C13.789 12.4964 14.5113 13.1531 15.2822 13.7438C15.5254 13.1996 15.801 12.4938 16.0385 11.6628C16.6147 9.6461 16.9555 6.93074 16.1045 3.99578ZM18.5062 5.79129C20.047 7.40546 20.9931 9.59212 20.9931 11.9998C20.9931 13.4119 20.6676 14.748 20.0876 15.9372C18.9824 15.7868 17.9286 15.379 16.9734 14.8535C17.2799 14.2025 17.6501 13.3021 17.9615 12.2122C18.4549 10.4855 18.8067 8.26017 18.5062 5.79129Z" fill="#0F0F0F"/>
</svg>