<svg width="24" height="24" viewBox="0 0 24 24" fill="none" xmlns="http://www.w3.org/2000/svg">
<path d="M22.1365 17.6564L22.1367 17.6567C22.3313 17.9882 22.4347 18.3652 22.4365 18.7496C22.4382 19.134 22.3382 19.512 22.1466 19.8452C21.955 20.1784 21.6786 20.455 21.3456 20.6468C21.0125 20.8387 20.6346 20.939 20.2502 20.9376H20.25H3.74998H3.74975C3.36538 20.939 2.98747 20.8387 2.6544 20.6468C2.32134 20.455 2.04497 20.1784 1.85337 19.8452C1.66177 19.512 1.56176 19.134 1.5635 18.7496C1.56524 18.3652 1.66866 17.9882 1.86326 17.6567L1.86346 17.6564L10.1041 3.40635L10.1042 3.40624C10.296 3.07304 10.5722 2.79628 10.905 2.60383C11.2378 2.41139 11.6155 2.31006 12 2.31006C12.3844 2.31006 12.7621 2.41139 13.0949 2.60383C13.4278 2.79628 13.704 3.07304 13.8958 3.40624L13.8959 3.40635L22.1365 17.6564ZM11.4255 9.17554C11.2731 9.32791 11.1875 9.53457 11.1875 9.75006V13.5001C11.1875 13.7155 11.2731 13.9222 11.4255 14.0746C11.5778 14.227 11.7845 14.3126 12 14.3126C12.2155 14.3126 12.4221 14.227 12.5745 14.0746C12.7269 13.9222 12.8125 13.7155 12.8125 13.5001V9.75006C12.8125 9.53457 12.7269 9.32791 12.5745 9.17554C12.4221 9.02316 12.2155 8.93756 12 8.93756C11.7845 8.93756 11.5778 9.02316 11.4255 9.17554ZM11.3402 17.8624C11.5355 17.9929 11.7651 18.0626 12 18.0626C12.3149 18.0626 12.617 17.9374 12.8397 17.7148C13.0624 17.4921 13.1875 17.19 13.1875 16.8751C13.1875 16.6402 13.1178 16.4106 12.9874 16.2153C12.8569 16.02 12.6714 15.8678 12.4544 15.778C12.2374 15.6881 11.9987 15.6646 11.7683 15.7104C11.538 15.7562 11.3264 15.8693 11.1603 16.0354C10.9942 16.2014 10.8811 16.413 10.8353 16.6434C10.7895 16.8737 10.813 17.1125 10.9029 17.3295C10.9928 17.5465 11.145 17.7319 11.3402 17.8624Z" fill="white" stroke="white" stroke-width="0.125"/>
</svg>
